<?xml version="1.0" encoding="UTF-8" standalone="no"?>
<!DOCTYPE svg PUBLIC "-//W3C//DTD SVG 1.1//EN" "http://www.w3.org/Graphics/SVG/1.1/DTD/svg11.dtd">
<svg width="100%" height="100%" viewBox="0 0 915 893" version="1.1" xmlns="http://www.w3.org/2000/svg" xmlns:xlink="http://www.w3.org/1999/xlink" xml:space="preserve" xmlns:serif="http://www.serif.com/" style="fill-rule:evenodd;clip-rule:evenodd;stroke-linejoin:round;stroke-miterlimit:2;">
    <g transform="matrix(1,0,0,1,-3676.184,-1269.39549)">
        <g transform="matrix(2.666667,0,0,2.666667,3798.739467,2033.258933)">
            <path d="M0,-20.347L0,-12.049C0.979,-11.967 1.726,-11.926 2.243,-11.926C4.458,-11.926 6.079,-12.239 7.105,-12.865C8.131,-13.489 8.645,-14.706 8.645,-16.514C8.645,-17.982 8.094,-19.008 6.993,-19.593C5.892,-20.177 4.159,-20.469 1.794,-20.469C1.223,-20.469 0.625,-20.429 0,-20.347M11.336,4.914L3.364,-7.421C2.562,-7.434 1.441,-7.482 0,-7.563L0,4.914L-5.505,4.914L-5.505,-24.955C-5.206,-24.955 -4.057,-25.006 -2.059,-25.108C-0.061,-25.21 1.549,-25.261 2.773,-25.261C10.357,-25.261 14.15,-22.325 14.15,-16.453C14.15,-14.686 13.626,-13.075 12.58,-11.621C11.533,-10.166 10.215,-9.14 8.624,-8.542L17.453,4.914L11.336,4.914Z" style="fill:rgb(29,29,27);fill-rule:nonzero;"/>
        </g>
        <g transform="matrix(2.666667,0,0,2.666667,3866.212267,2033.805067)">
            <path d="M0,-20.45L0,-13.457L9.868,-13.457L9.868,-8.951L0,-8.951L0,0L13.538,0L13.538,4.71L-5.301,4.71L-5.301,-25.16L13.762,-25.16L13.762,-20.45L0,-20.45Z" style="fill:rgb(29,29,27);fill-rule:nonzero;"/>
        </g>
        <g transform="matrix(2.666667,0,0,2.666667,3911.610667,1971.117333)">
            <path d="M0,26.566L1.957,21.815C4.05,23.283 6.11,24.018 8.135,24.018C11.247,24.018 12.804,22.93 12.804,20.755C12.804,19.736 12.437,18.764 11.703,17.84C10.969,16.916 9.457,15.879 7.167,14.731C4.876,13.582 3.333,12.637 2.538,11.897C1.743,11.156 1.132,10.276 0.703,9.256C0.275,8.237 0.061,7.109 0.061,5.872C0.061,3.561 0.907,1.644 2.599,0.122C4.292,-1.4 6.463,-2.161 9.114,-2.161C12.566,-2.161 15.101,-1.516 16.719,-0.225L15.108,4.343C13.245,3.01 11.281,2.344 9.216,2.344C7.992,2.344 7.044,2.667 6.371,3.313C5.699,3.959 5.362,4.798 5.362,5.831C5.362,7.543 7.258,9.324 11.051,11.173C13.049,12.151 14.489,13.052 15.373,13.874C16.256,14.697 16.929,15.655 17.391,16.749C17.853,17.843 18.085,19.063 18.085,20.409C18.085,22.828 17.13,24.82 15.22,26.383C13.31,27.946 10.751,28.727 7.544,28.727C4.757,28.727 2.243,28.007 0,26.566" style="fill:rgb(29,29,27);fill-rule:nonzero;"/>
        </g>
        <g transform="matrix(2.666667,0,0,2.666667,4004.746133,2033.805067)">
            <path d="M0,-20.45L0,4.71L-5.301,4.71L-5.301,-20.45L-14.802,-20.45L-14.802,-25.16L9.929,-25.16L9.929,-20.45L0,-20.45Z" style="fill:rgb(29,29,27);fill-rule:nonzero;"/>
        </g>
        <g transform="matrix(2.666667,0,0,2.666667,4056.8864,2022.006667)">
            <path d="M0,-12.009L-3.588,-0.979L3.588,-0.979L0,-12.009ZM7.319,9.134L5.138,3.078L-5.097,3.078L-7.177,9.134L-13.069,9.134L-1.162,-21.143L1.162,-21.143L13.171,9.134L7.319,9.134Z" style="fill:rgb(29,29,27);fill-rule:nonzero;"/>
        </g>
        <g transform="matrix(2.666667,0,0,2.666667,4100.436533,2047.7232)">
            <path d="M0,-30.379L5.301,-30.379L5.301,-10.133C5.301,-8.529 5.79,-7.224 6.769,-6.218C7.748,-5.212 9.093,-4.71 10.806,-4.71C12.722,-4.71 14.214,-5.202 15.281,-6.188C16.348,-7.173 16.882,-8.522 16.882,-10.235L16.882,-30.379L22.183,-30.379L22.183,-9.827C22.183,-6.755 21.153,-4.349 19.094,-2.61C17.035,-0.87 14.285,0 10.847,0C7.381,0 4.706,-0.849 2.824,-2.549C0.941,-4.248 0,-6.68 0,-9.848L0,-30.379Z" style="fill:rgb(29,29,27);fill-rule:nonzero;"/>
        </g>
        <g transform="matrix(2.666667,0,0,2.666667,4190.581333,2033.258933)">
            <path d="M0,-20.347L0,-12.049C0.979,-11.967 1.726,-11.926 2.243,-11.926C4.458,-11.926 6.079,-12.239 7.105,-12.865C8.131,-13.489 8.645,-14.706 8.645,-16.514C8.645,-17.982 8.094,-19.008 6.993,-19.593C5.892,-20.177 4.159,-20.469 1.794,-20.469C1.223,-20.469 0.625,-20.429 0,-20.347M11.336,4.914L3.364,-7.421C2.562,-7.434 1.441,-7.482 0,-7.563L0,4.914L-5.505,4.914L-5.505,-24.955C-5.206,-24.955 -4.057,-25.006 -2.059,-25.108C-0.061,-25.21 1.549,-25.261 2.773,-25.261C10.357,-25.261 14.15,-22.325 14.15,-16.453C14.15,-14.686 13.626,-13.075 12.58,-11.621C11.533,-10.166 10.215,-9.14 8.624,-8.542L17.453,4.914L11.336,4.914Z" style="fill:rgb(29,29,27);fill-rule:nonzero;"/>
        </g>
        <g transform="matrix(2.666667,0,0,2.666667,4270.885067,2022.006667)">
            <path d="M0,-12.009L-3.589,-0.979L3.588,-0.979L0,-12.009ZM7.319,9.134L5.138,3.078L-5.097,3.078L-7.177,9.134L-13.069,9.134L-1.162,-21.143L1.162,-21.143L13.171,9.134L7.319,9.134Z" style="fill:rgb(29,29,27);fill-rule:nonzero;"/>
        </g>
        <g transform="matrix(2.666667,0,0,2.666667,4366.684,1966.712533)">
            <path d="M0,30.277L-14.496,11.377L-14.496,29.89L-19.593,29.89L-19.593,0L-17.045,0L-2.936,18.024L-2.936,0L2.161,0L2.161,30.277L0,30.277Z" style="fill:rgb(29,29,27);fill-rule:nonzero;"/>
        </g>
        <g transform="matrix(2.666667,0,0,2.666667,4421.1624,2033.805067)">
            <path d="M0,-20.45L0,4.71L-5.301,4.71L-5.301,-20.45L-14.802,-20.45L-14.802,-25.16L9.929,-25.16L9.929,-20.45L0,-20.45Z" style="fill:rgb(29,29,27);fill-rule:nonzero;"/>
        </g>
        <g transform="matrix(2.666667,0,0,2.666667,4471.019467,2033.805067)">
            <path d="M0,-20.45L0,-13.457L9.868,-13.457L9.868,-8.951L0,-8.951L0,0L13.538,0L13.538,4.71L-5.301,4.71L-5.301,-25.16L13.762,-25.16L13.762,-20.45L0,-20.45Z" style="fill:rgb(29,29,27);fill-rule:nonzero;"/>
        </g>
        <g transform="matrix(2.666667,0,0,2.666667,3759.538933,2161.449067)">
            <path d="M0,-30.379L5.301,-30.379L5.301,-10.133C5.301,-8.529 5.79,-7.224 6.769,-6.218C7.748,-5.212 9.093,-4.71 10.806,-4.71C12.722,-4.71 14.214,-5.202 15.281,-6.188C16.348,-7.173 16.882,-8.522 16.882,-10.235L16.882,-30.379L22.183,-30.379L22.183,-9.827C22.183,-6.755 21.153,-4.349 19.094,-2.61C17.035,-0.87 14.285,0 10.847,0C7.381,0 4.706,-0.849 2.824,-2.549C0.941,-4.248 0,-6.68 0,-9.848L0,-30.379Z" style="fill:rgb(29,29,27);fill-rule:nonzero;"/>
        </g>
        <g transform="matrix(2.666667,0,0,2.666667,3887.2528,2080.438667)">
            <path d="M0,30.277L-14.496,11.377L-14.496,29.89L-19.593,29.89L-19.593,0L-17.045,0L-2.936,18.024L-2.936,0L2.161,0L2.161,30.277L0,30.277Z" style="fill:rgb(29,29,27);fill-rule:nonzero;"/>
        </g>
        <g transform="matrix(2.666667,0,0,2.666667,0,1360.525333)">
            <rect x="1466.1" y="269.967" width="5.301" height="29.869" style="fill:rgb(29,29,27);"/>
        </g>
        <g transform="matrix(2.666667,0,0,2.666667,3970.003467,2080.438667)">
            <path d="M0,30.277L-2.916,30.277L-14.089,0L-8.257,0L-1.346,20.185L5.953,0L11.662,0L0,30.277Z" style="fill:rgb(29,29,27);fill-rule:nonzero;"/>
        </g>
        <g transform="matrix(2.666667,0,0,2.666667,4023.6664,2147.530933)">
            <path d="M0,-20.45L0,-13.457L9.868,-13.457L9.868,-8.951L0,-8.951L0,0L13.538,0L13.538,4.71L-5.301,4.71L-5.301,-25.16L13.762,-25.16L13.762,-20.45L0,-20.45Z" style="fill:rgb(29,29,27);fill-rule:nonzero;"/>
        </g>
        <g transform="matrix(2.666667,0,0,2.666667,4087.550667,2146.9848)">
            <path d="M0,-20.347L0,-12.049C0.979,-11.967 1.726,-11.927 2.243,-11.927C4.458,-11.927 6.079,-12.239 7.105,-12.865C8.132,-13.489 8.645,-14.706 8.645,-16.514C8.645,-17.982 8.094,-19.008 6.993,-19.593C5.892,-20.177 4.159,-20.469 1.794,-20.469C1.223,-20.469 0.625,-20.429 0,-20.347M11.336,4.914L3.364,-7.421C2.562,-7.434 1.441,-7.482 0,-7.563L0,4.914L-5.505,4.914L-5.505,-24.955C-5.206,-24.955 -4.057,-25.006 -2.059,-25.108C-0.061,-25.21 1.55,-25.261 2.773,-25.261C10.357,-25.261 14.15,-22.325 14.15,-16.453C14.15,-14.686 13.626,-13.075 12.58,-11.621C11.533,-10.166 10.215,-9.14 8.624,-8.542L17.453,4.914L11.336,4.914Z" style="fill:rgb(29,29,27);fill-rule:nonzero;"/>
        </g>
        <g transform="matrix(2.666667,0,0,2.666667,4137.081333,2084.8432)">
            <path d="M0,26.566L1.957,21.815C4.05,23.283 6.11,24.017 8.135,24.017C11.247,24.017 12.804,22.93 12.804,20.755C12.804,19.736 12.437,18.764 11.703,17.84C10.969,16.916 9.457,15.879 7.167,14.731C4.876,13.582 3.333,12.637 2.538,11.896C1.743,11.156 1.132,10.276 0.703,9.256C0.275,8.237 0.061,7.109 0.061,5.872C0.061,3.561 0.907,1.644 2.599,0.122C4.292,-1.4 6.463,-2.161 9.114,-2.161C12.566,-2.161 15.101,-1.516 16.719,-0.225L15.108,4.342C13.245,3.01 11.281,2.344 9.216,2.344C7.992,2.344 7.044,2.667 6.371,3.313C5.699,3.959 5.362,4.798 5.362,5.831C5.362,7.543 7.258,9.324 11.051,11.173C13.049,12.151 14.489,13.052 15.373,13.874C16.256,14.697 16.929,15.655 17.391,16.749C17.853,17.843 18.085,19.063 18.085,20.409C18.085,22.828 17.13,24.82 15.22,26.383C13.31,27.946 10.751,28.727 7.544,28.727C4.757,28.727 2.243,28.007 0,26.566" style="fill:rgb(29,29,27);fill-rule:nonzero;"/>
        </g>
        <g transform="matrix(2.666667,0,0,2.666667,0,1360.525333)">
            <rect x="1574.282" y="269.967" width="5.301" height="29.869" style="fill:rgb(29,29,27);"/>
        </g>
        <g transform="matrix(2.666667,0,0,2.666667,4261.207467,2147.530933)">
            <path d="M0,-20.45L0,4.71L-5.301,4.71L-5.301,-20.45L-14.802,-20.45L-14.802,-25.16L9.929,-25.16L9.929,-20.45L0,-20.45Z" style="fill:rgb(29,29,27);fill-rule:nonzero;"/>
        </g>
        <g transform="matrix(2.666667,0,0,2.666667,4339.716533,2160.090667)">
            <path d="M0,-38.29L-4.608,-32.316L-8.482,-32.316L-5.036,-38.29L0,-38.29ZM-5.933,-21.143L-9.521,-10.113L-2.345,-10.113L-5.933,-21.143ZM1.386,0L-0.795,-6.056L-11.03,-6.056L-13.11,0L-19.002,0L-7.095,-30.277L-4.771,-30.277L7.238,0L1.386,0Z" style="fill:rgb(29,29,27);fill-rule:nonzero;"/>
        </g>
        <g transform="matrix(2.666667,0,0,2.666667,4382.125067,2146.9848)">
            <path d="M0,-20.347L0,-12.049C0.979,-11.967 1.726,-11.927 2.243,-11.927C4.458,-11.927 6.079,-12.239 7.105,-12.865C8.132,-13.489 8.645,-14.706 8.645,-16.514C8.645,-17.982 8.094,-19.008 6.993,-19.593C5.892,-20.177 4.159,-20.469 1.794,-20.469C1.223,-20.469 0.625,-20.429 0,-20.347M11.336,4.914L3.364,-7.421C2.562,-7.434 1.441,-7.482 0,-7.563L0,4.914L-5.505,4.914L-5.505,-24.955C-5.206,-24.955 -4.057,-25.006 -2.059,-25.108C-0.061,-25.21 1.55,-25.261 2.773,-25.261C10.357,-25.261 14.15,-22.325 14.15,-16.453C14.15,-14.686 13.626,-13.075 12.58,-11.621C11.533,-10.166 10.215,-9.14 8.624,-8.542L17.453,4.914L11.336,4.914Z" style="fill:rgb(29,29,27);fill-rule:nonzero;"/>
        </g>
        <g transform="matrix(2.666667,0,0,2.666667,0,1360.525333)">
            <rect x="1663.4" y="269.967" width="5.301" height="29.869" style="fill:rgb(29,29,27);"/>
        </g>
        <g transform="matrix(2.666667,0,0,2.666667,4477.326133,2120.888533)">
            <path d="M0,-0.489C0,3.005 0.591,5.709 1.774,7.626C2.956,9.542 4.676,10.501 6.932,10.501C9.583,10.501 11.604,9.563 12.998,7.687C14.391,5.811 15.087,3.086 15.087,-0.489C15.087,-7.489 12.505,-10.989 7.34,-10.989C4.975,-10.989 3.16,-10.041 1.896,-8.145C0.632,-6.249 0,-3.697 0,-0.489M-5.505,-0.489C-5.505,-4.743 -4.34,-8.342 -2.008,-11.285C0.323,-14.227 3.439,-15.699 7.34,-15.699C11.635,-15.699 14.917,-14.367 17.187,-11.703C19.457,-9.039 20.592,-5.301 20.592,-0.489C20.592,4.323 19.406,8.142 17.035,10.969C14.662,13.797 11.295,15.21 6.932,15.21C2.922,15.21 -0.153,13.81 -2.294,11.01C-4.435,8.21 -5.505,4.377 -5.505,-0.489" style="fill:rgb(29,29,27);fill-rule:nonzero;"/>
        </g>
        <g transform="matrix(2.666667,0,0,2.666667,0,0)">
            <clipPath id="_clip1">
                <path d="M1401.767,552.097C1401.767,569.389 1408.225,585.174 1418.86,597.17L1418.86,688.433L1452.88,688.433L1452.842,620.433L1520.843,688.433L1554.64,688.433L1554.64,662.898L1503.083,611.34C1523.753,599.682 1537.71,577.519 1537.71,552.097C1537.71,514.557 1507.279,484.125 1469.739,484.125C1432.199,484.125 1401.767,514.557 1401.767,552.097ZM1435.787,551.985C1435.787,533.234 1450.988,518.034 1469.739,518.034C1488.49,518.034 1503.69,533.234 1503.69,551.985C1503.69,570.736 1488.49,585.937 1469.739,585.937C1450.988,585.937 1435.787,570.736 1435.787,551.985Z" clip-rule="nonzero"/>
            </clipPath>
            <g clip-path="url(#_clip1)">
                <g transform="matrix(-1,0,0,1,3100.176,215.102)">
                    <rect x="1492.915" y="375.276" width="114.346" height="114.346" style="fill:rgb(224,80,94);"/>
                </g>
                <g transform="matrix(-1,0,0,1,2871.484,-13.59)">
                    <rect x="1378.569" y="489.622" width="114.346" height="114.346" style="fill:rgb(162,25,32);"/>
                </g>
                <g transform="matrix(-1,0,0,1,2871.484,215.102)">
                    <rect x="1378.569" y="375.276" width="114.346" height="114.346" style="fill:rgb(63,78,82);"/>
                </g>
                <g transform="matrix(-1,0,0,1,3100.176,-13.59)">
                    <rect x="1492.915" y="489.622" width="114.346" height="114.346" style="fill:rgb(109,122,127);"/>
                </g>
                <g transform="matrix(-0.707107,0.707107,0.707107,0.707107,1631.021653,533.073576)">
                    <path d="M57.322,-137.99C52.286,-133.095 20.823,-101.465 22.932,-52.296C24.787,-9.047 51.338,17.924 57.322,23.719L138.176,-57.136L57.322,-137.99Z" style="fill:rgb(92,192,238);fill-rule:nonzero;"/>
                </g>
                <g transform="matrix(1,0,0,1,1378.5693,590.3781)">
                    <path d="M0,-114.346L114.346,0L0,0L0,-114.346Z" style="fill:rgb(224,80,94);fill-rule:nonzero;"/>
                </g>
                <g transform="matrix(1,0,0,1,1492.9622,704.7241)">
                    <path d="M0,-114.346L-0.002,-114.346C-31.578,-114.346 -57.175,-88.749 -57.175,-57.173C-57.175,-25.597 -31.578,0 -0.002,0L0,0L0,-114.346Z" style="fill:rgb(111,145,54);fill-rule:nonzero;"/>
                </g>
                <g transform="matrix(1,0,0,1,1492.9622,704.7241)">
                    <path d="M0,-114.346L0,0C31.575,-0.001 57.171,-25.598 57.171,-57.173C57.171,-88.748 31.575,-114.345 0,-114.346" style="fill:rgb(242,179,25);fill-rule:nonzero;"/>
                </g>
            </g>
        </g>
        <g transform="matrix(2.666667,0,0,2.666667,0,0)">
            <clipPath id="_clip2">
                <path d="M1554.811,487.555L1554.811,623.831C1554.793,661.1 1585.439,691.777 1622.683,691.801C1659.962,691.826 1690.664,661.135 1690.646,623.831L1690.646,487.904L1656.623,487.904L1656.623,623.826C1656.457,642.337 1641.187,657.476 1622.683,657.484C1604.168,657.492 1588.88,642.349 1588.714,623.826L1588.714,487.555L1554.811,487.555Z" clip-rule="nonzero"/>
            </clipPath>
            <g clip-path="url(#_clip2)">
                <g transform="matrix(-1,0,0,1,3100.176,215.102)">
                    <rect x="1492.915" y="375.276" width="114.346" height="114.346" style="fill:rgb(224,80,94);"/>
                </g>
                <g transform="matrix(-1,0,0,1,3100.176,-13.59)">
                    <rect x="1492.915" y="489.622" width="114.346" height="114.346" style="fill:rgb(109,122,127);"/>
                </g>
                <g transform="matrix(-1,0,0,1,3328.868,-13.59)">
                    <rect x="1607.261" y="489.622" width="114.346" height="114.346" style="fill:rgb(239,123,29);"/>
                </g>
                <g transform="matrix(-1,0,0,1,3328.868,215.102)">
                    <rect x="1607.261" y="375.276" width="114.346" height="114.346" style="fill:rgb(92,192,238);"/>
                </g>
                <g transform="matrix(1,0,0,1,1607.2614,704.7241)">
                    <path d="M0,-114.346L114.346,0L0,0L0,-114.346Z" style="fill:rgb(74,94,37);fill-rule:nonzero;"/>
                </g>
                <g transform="matrix(1,0,0,1,1721.6074,590.3781)">
                    <path d="M0,-114.346L-114.346,0L-114.346,-114.346L0,-114.346Z" style="fill:rgb(242,179,25);fill-rule:nonzero;"/>
                </g>
                <g transform="matrix(-0.707107,0.707107,0.707107,0.707107,1631.021653,533.073576)">
                    <path d="M57.322,-137.99C52.286,-133.095 20.823,-101.465 22.932,-52.296C24.787,-9.047 51.338,17.924 57.322,23.719L138.176,-57.136L57.322,-137.99Z" style="fill:rgb(92,192,238);fill-rule:nonzero;"/>
                </g>
            </g>
        </g>
    </g>
</svg>
