<?xml version="1.0" encoding="UTF-8" standalone="no"?>
<!DOCTYPE svg PUBLIC "-//W3C//DTD SVG 1.1//EN" "http://www.w3.org/Graphics/SVG/1.1/DTD/svg11.dtd">
<svg width="100%" height="100%" viewBox="0 0 1703 1135" version="1.1" xmlns="http://www.w3.org/2000/svg" xmlns:xlink="http://www.w3.org/1999/xlink" xml:space="preserve" xmlns:serif="http://www.serif.com/" style="fill-rule:evenodd;clip-rule:evenodd;stroke-linejoin:round;stroke-miterlimit:2;">
    <g transform="matrix(1,0,0,1,-678.661333,-1242.596388)">
        <g transform="matrix(2.666667,0,0,2.666667,0,0)">
            <clipPath id="_clip1">
                <path d="M297.667,607.537C297.667,639.716 309.684,669.087 329.474,691.411L329.474,861.24L392.78,861.24L392.71,734.702L519.25,861.24L582.143,861.24L582.143,813.721L486.202,717.78C524.666,696.084 550.639,654.845 550.639,607.537C550.639,537.68 494.009,481.05 424.152,481.05C354.297,481.05 297.667,537.68 297.667,607.537ZM360.973,607.328C360.973,572.435 389.259,544.149 424.152,544.149C459.046,544.149 487.333,572.435 487.333,607.328C487.333,642.221 459.046,670.508 424.152,670.508C389.259,670.508 360.973,642.221 360.973,607.328Z" clip-rule="nonzero"/>
            </clipPath>
            <g clip-path="url(#_clip1)">
                <g transform="matrix(-1,0,0,1,1147.343,490.327)">
                    <rect x="467.28" y="188.445" width="212.783" height="212.783" style="fill:rgb(224,80,94);"/>
                </g>
                <g transform="matrix(-1,0,0,1,721.779,64.764)">
                    <rect x="254.498" y="401.227" width="212.783" height="212.782" style="fill:rgb(162,25,32);"/>
                </g>
                <g transform="matrix(-1,0,0,1,721.779,490.327)">
                    <rect x="254.498" y="188.445" width="212.783" height="212.783" style="fill:rgb(63,78,82);"/>
                </g>
                <g transform="matrix(-1,0,0,1,1147.343,64.764)">
                    <rect x="467.28" y="401.227" width="212.783" height="212.782" style="fill:rgb(109,122,127);"/>
                </g>
                <g transform="matrix(-0.707105,0.707108,0.707108,0.707105,724.278722,572.134804)">
                    <path d="M106.669,-256.781C97.297,-247.671 38.75,-188.811 42.674,-97.315C46.127,-16.835 95.534,33.356 106.669,44.139L257.129,-106.321L106.669,-256.781Z" style="fill:rgb(92,192,238);fill-rule:nonzero;"/>
                </g>
                <g transform="matrix(1,0,0,1,254.4985,678.7721)">
                    <path d="M0,-212.782L212.783,0L0,0L0,-212.782Z" style="fill:rgb(224,80,94);fill-rule:nonzero;"/>
                </g>
                <g transform="matrix(1,0,0,1,467.3682,891.5545)">
                    <path d="M0,-212.782L-0.004,-212.782C-58.762,-212.782 -106.395,-165.149 -106.395,-106.391C-106.395,-47.632 -58.762,0 -0.004,0L0,0L0,-212.782Z" style="fill:rgb(111,145,54);fill-rule:nonzero;"/>
                </g>
                <g transform="matrix(1,0,0,1,467.3682,891.5545)">
                    <path d="M0,-212.782L0,0C58.756,-0.002 106.387,-47.634 106.387,-106.391C106.387,-165.148 58.756,-212.78 0,-212.782" style="fill:rgb(242,179,25);fill-rule:nonzero;"/>
                </g>
            </g>
        </g>
        <g transform="matrix(2.666667,0,0,2.666667,0,0)">
            <clipPath id="_clip2">
                <path d="M582.462,487.433L582.462,741.021C582.427,810.378 639.456,867.461 708.762,867.508C778.132,867.554 835.266,810.442 835.232,741.021L835.232,488.082L771.918,488.082L771.918,741.014C771.61,775.462 743.196,803.633 708.762,803.648C674.307,803.663 645.859,775.482 645.551,741.014L645.551,487.433L582.462,487.433Z" clip-rule="nonzero"/>
            </clipPath>
            <g clip-path="url(#_clip2)">
                <g transform="matrix(-1,0,0,1,1147.343,490.327)">
                    <rect x="467.28" y="188.445" width="212.783" height="212.783" style="fill:rgb(224,80,94);"/>
                </g>
                <g transform="matrix(-1,0,0,1,1147.343,64.764)">
                    <rect x="467.28" y="401.227" width="212.783" height="212.782" style="fill:rgb(109,122,127);"/>
                </g>
                <g transform="matrix(-1,0,0,1,1572.909,64.764)">
                    <rect x="680.063" y="401.227" width="212.783" height="212.782" style="fill:rgb(239,123,29);"/>
                </g>
                <g transform="matrix(-1,0,0,1,1572.909,490.327)">
                    <rect x="680.063" y="188.445" width="212.783" height="212.783" style="fill:rgb(92,192,238);"/>
                </g>
                <g transform="matrix(1,0,0,1,680.0635,891.5555)">
                    <path d="M0,-212.783L212.783,0L0,0L0,-212.783Z" style="fill:rgb(74,94,37);fill-rule:nonzero;"/>
                </g>
                <g transform="matrix(1,0,0,1,892.846,678.7721)">
                    <path d="M0,-212.782L-212.783,0L-212.783,-212.782L0,-212.782Z" style="fill:rgb(242,179,25);fill-rule:nonzero;"/>
                </g>
                <g transform="matrix(-0.707105,0.707108,0.707108,0.707105,724.278722,572.134804)">
                    <path d="M106.669,-256.781C97.297,-247.671 38.75,-188.811 42.674,-97.315C46.127,-16.835 95.534,33.356 106.669,44.139L257.129,-106.321L106.669,-256.781Z" style="fill:rgb(92,192,238);fill-rule:nonzero;"/>
                </g>
            </g>
        </g>
    </g>
</svg>
