<?xml version="1.0" encoding="UTF-8" standalone="no"?>
<!DOCTYPE svg PUBLIC "-//W3C//DTD SVG 1.1//EN" "http://www.w3.org/Graphics/SVG/1.1/DTD/svg11.dtd">
<svg width="100%" height="100%" viewBox="0 0 1845 1235" version="1.1" xmlns="http://www.w3.org/2000/svg" xmlns:xlink="http://www.w3.org/1999/xlink" xml:space="preserve" xmlns:serif="http://www.serif.com/" style="fill-rule:evenodd;clip-rule:evenodd;stroke-linejoin:round;stroke-miterlimit:2;">
    <g transform="matrix(1,0,0,1,-2789.570667,-1170.952075)">
        <g transform="matrix(2.666667,0,0,2.666667,0,0)">
            <clipPath id="_clip1">
                <path d="M1085.531,439.124C1063.749,439.124 1046.089,456.783 1046.089,478.567L1046.089,862.449C1046.089,884.233 1063.749,901.891 1085.531,901.891L1698.206,901.891C1719.99,901.891 1737.649,884.233 1737.649,862.449L1737.649,478.567C1737.649,456.783 1719.99,439.124 1698.206,439.124L1085.531,439.124Z" clip-rule="nonzero"/>
            </clipPath>
            <g clip-path="url(#_clip1)">
                <g transform="matrix(-1,0,0,1,2783.738,492.399)">
                    <rect x="1276.609" y="178.109" width="230.52" height="231.383" style="fill:rgb(224,80,94);"/>
                </g>
                <g transform="matrix(-1,0,0,1,2322.698,29.633)">
                    <rect x="1046.089" y="409.492" width="230.52" height="231.383" style="fill:rgb(162,25,32);"/>
                </g>
                <g transform="matrix(-1,0,0,1,2322.698,492.399)">
                    <rect x="1046.089" y="178.109" width="230.52" height="231.383" style="fill:rgb(63,78,82);"/>
                </g>
                <g transform="matrix(-1,0,0,1,2783.738,29.633)">
                    <rect x="1276.609" y="409.492" width="230.52" height="231.383" style="fill:rgb(109,122,127);"/>
                </g>
                <g transform="matrix(-1,0,0,1,3244.778,29.633)">
                    <rect x="1507.129" y="409.492" width="230.52" height="231.383" style="fill:rgb(239,123,29);"/>
                </g>
                <g transform="matrix(-1,0,0,1,3244.778,492.399)">
                    <rect x="1507.129" y="178.109" width="230.52" height="231.383" style="fill:rgb(92,192,238);"/>
                </g>
                <g transform="matrix(1,0,0,1,1507.129,901.8911)">
                    <path d="M0,-231.383L230.52,0L0,0L0,-231.383Z" style="fill:rgb(74,94,37);fill-rule:nonzero;"/>
                </g>
                <g transform="matrix(1,0,0,1,1737.6488,670.5079)">
                    <path d="M0,-231.383L-230.52,0L-230.52,-231.383L0,-231.383Z" style="fill:rgb(242,179,25);fill-rule:nonzero;"/>
                </g>
                <g transform="matrix(-0.708427,0.705784,0.705784,0.708427,1555.334669,555.160007)">
                    <path d="M115.561,-278.922C105.39,-269.073 41.842,-205.424 46.102,-106.101C49.85,-18.734 103.476,35.944 115.561,47.693L278.867,-115.004L115.561,-278.922Z" style="fill:rgb(92,192,238);fill-rule:nonzero;"/>
                </g>
                <g transform="matrix(1,0,0,1,1046.0896,670.5079)">
                    <path d="M0,-231.383L230.52,0L0,0L0,-231.383Z" style="fill:rgb(224,80,94);fill-rule:nonzero;"/>
                </g>
                <g transform="matrix(1,0,0,1,1276.7039,901.8911)">
                    <path d="M0,-231.383L-0.005,-231.383C-63.661,-231.383 -115.264,-179.586 -115.264,-115.692L-115.264,-115.691C-115.264,-51.797 -63.661,0 -0.005,0L0,0L0,-231.383Z" style="fill:rgb(111,145,54);fill-rule:nonzero;"/>
                </g>
                <g transform="matrix(0,1,1,0,1450.0229,728.5721)">
                    <path d="M-58.064,-173.319L173.319,-173.319C173.317,-109.665 121.521,-58.064 57.628,-58.064L57.627,-58.064C-6.266,-58.064 -58.062,-109.665 -58.064,-173.319" style="fill:rgb(242,179,25);fill-rule:nonzero;"/>
                </g>
            </g>
        </g>
        <g transform="matrix(2.666667,0,0,2.666667,3279.695733,2134.165333)">
            <path d="M0,-276.196C37.802,-276.196 68.446,-245.437 68.446,-207.493C68.446,-169.55 37.802,-138.791 0,-138.791C-37.802,-138.791 -68.446,-169.55 -68.446,-207.493C-68.446,-245.437 -37.802,-276.196 0,-276.196M67.222,-87.387C108.891,-110.978 137.03,-155.824 137.03,-207.268C137.03,-283.23 75.679,-344.81 0,-344.81C-75.679,-344.81 -137.03,-283.23 -137.03,-207.268C-137.03,-172.276 -124.011,-140.336 -102.571,-116.061L-102.571,68.614L-33.988,68.614L-34.063,-68.987L103.025,68.614L171.161,68.614L171.161,16.941L67.222,-87.387Z" style="fill:white;fill-rule:nonzero;"/>
        </g>
        <g transform="matrix(2.666667,0,0,2.666667,3737.042933,2335.446933)">
            <path d="M0,-413.35L68.348,-413.35L68.348,-137.602C68.682,-100.12 99.502,-69.477 136.828,-69.493C174.132,-69.509 204.916,-100.143 205.25,-137.602L205.25,-412.644L273.841,-412.644L273.841,-137.593C273.878,-62.106 211.981,0 136.828,-0.051C61.746,-0.101 -0.037,-62.176 0,-137.593L0,-413.35Z" style="fill:white;fill-rule:nonzero;"/>
        </g>
    </g>
</svg>
