<?xml version="1.0" encoding="UTF-8" standalone="no"?>
<!DOCTYPE svg PUBLIC "-//W3C//DTD SVG 1.1//EN" "http://www.w3.org/Graphics/SVG/1.1/DTD/svg11.dtd">
<svg width="100%" height="100%" viewBox="0 0 2309 524" version="1.1" xmlns="http://www.w3.org/2000/svg" xmlns:xlink="http://www.w3.org/1999/xlink" xml:space="preserve" xmlns:serif="http://www.serif.com/" style="fill-rule:evenodd;clip-rule:evenodd;stroke-linejoin:round;stroke-miterlimit:2;">
    <g transform="matrix(1,0,0,1,-874.239733,-1460.515733)">
        <g transform="matrix(2.666667,0,0,2.666667,1752.562933,1688.556)">
            <path d="M0,-38.404L0,-22.742C1.847,-22.588 3.258,-22.511 4.233,-22.511C8.414,-22.511 11.473,-23.101 13.411,-24.282C15.347,-25.461 16.316,-27.757 16.316,-31.17C16.316,-33.94 15.277,-35.877 13.199,-36.98C11.121,-38.083 7.85,-38.635 3.386,-38.635C2.309,-38.635 1.18,-38.558 0,-38.404M21.395,9.274L6.349,-14.007C4.835,-14.032 2.719,-14.123 0,-14.277L0,9.274L-10.39,9.274L-10.39,-47.101C-9.826,-47.101 -7.658,-47.197 -3.887,-47.389C-0.115,-47.582 2.924,-47.678 5.233,-47.678C19.548,-47.678 26.706,-42.137 26.706,-31.054C26.706,-27.719 25.718,-24.679 23.743,-21.934C21.767,-19.189 19.279,-17.252 16.277,-16.124L32.94,9.274L21.395,9.274Z" style="fill:rgb(29,29,27);fill-rule:nonzero;"/>
        </g>
        <g transform="matrix(2.666667,0,0,2.666667,1879.908533,1689.581067)">
            <path d="M0,-38.596L0,-25.397L18.625,-25.397L18.625,-16.893L0,-16.893L0,0L25.551,0L25.551,8.889L-10.005,8.889L-10.005,-47.485L25.974,-47.485L25.974,-38.596L0,-38.596Z" style="fill:rgb(29,29,27);fill-rule:nonzero;"/>
        </g>
        <g transform="matrix(2.666667,0,0,2.666667,1965.592267,1571.2672)">
            <path d="M0,50.14L3.694,41.174C7.644,43.945 11.531,45.33 15.354,45.33C21.228,45.33 24.166,43.278 24.166,39.173C24.166,37.249 23.473,35.415 22.088,33.67C20.703,31.926 17.848,29.97 13.526,27.802C9.203,25.634 6.292,23.852 4.791,22.453C3.29,21.055 2.136,19.394 1.328,17.47C0.52,15.546 0.115,13.417 0.115,11.082C0.115,6.721 1.712,3.104 4.906,0.23C8.1,-2.642 12.198,-4.079 17.201,-4.079C23.717,-4.079 28.501,-2.861 31.554,-0.424L28.514,8.196C24.999,5.682 21.293,4.425 17.393,4.425C15.084,4.425 13.295,5.035 12.025,6.253C10.755,7.472 10.12,9.056 10.12,11.005C10.12,14.237 13.699,17.599 20.857,21.087C24.628,22.934 27.347,24.634 29.015,26.186C30.682,27.738 31.952,29.547 32.824,31.611C33.696,33.677 34.132,35.979 34.132,38.519C34.132,43.085 32.33,46.844 28.726,49.794C25.121,52.744 20.292,54.219 14.238,54.219C8.979,54.219 4.233,52.86 0,50.14" style="fill:rgb(29,29,27);fill-rule:nonzero;"/>
        </g>
        <g transform="matrix(2.666667,0,0,2.666667,2141.372267,1689.581067)">
            <path d="M0,-38.596L0,8.889L-10.005,8.889L-10.005,-38.596L-27.937,-38.596L-27.937,-47.485L18.74,-47.485L18.74,-38.596L0,-38.596Z" style="fill:rgb(29,29,27);fill-rule:nonzero;"/>
        </g>
        <g transform="matrix(2.666667,0,0,2.666667,2239.7808,1667.311467)">
            <path d="M0,-22.664L-6.773,-1.846L6.773,-1.846L0,-22.664ZM13.815,17.24L9.697,5.812L-9.62,5.812L-13.545,17.24L-24.666,17.24L-2.193,-39.904L2.193,-39.904L24.859,17.24L13.815,17.24Z" style="fill:rgb(29,29,27);fill-rule:nonzero;"/>
        </g>
        <g transform="matrix(2.666667,0,0,2.666667,2321.975733,1715.8504)">
            <path d="M0,-57.336L10.005,-57.336L10.005,-19.125C10.005,-16.097 10.929,-13.634 12.776,-11.736C14.623,-9.838 17.162,-8.889 20.395,-8.889C24.012,-8.889 26.827,-9.818 28.841,-11.679C30.855,-13.538 31.862,-16.085 31.862,-19.317L31.862,-57.336L41.867,-57.336L41.867,-18.547C41.867,-12.75 39.924,-8.209 36.037,-4.925C32.151,-1.641 26.962,0 20.472,0C13.93,0 8.883,-1.603 5.33,-4.81C1.776,-8.016 0,-12.608 0,-18.586L0,-57.336Z" style="fill:rgb(29,29,27);fill-rule:nonzero;"/>
        </g>
        <g transform="matrix(2.666667,0,0,2.666667,2492.112,1688.556)">
            <path d="M0,-38.404L0,-22.742C1.847,-22.588 3.258,-22.511 4.233,-22.511C8.414,-22.511 11.473,-23.101 13.411,-24.282C15.347,-25.461 16.316,-27.757 16.316,-31.17C16.316,-33.94 15.277,-35.877 13.199,-36.98C11.121,-38.083 7.85,-38.635 3.386,-38.635C2.309,-38.635 1.18,-38.558 0,-38.404M21.395,9.274L6.349,-14.007C4.835,-14.032 2.719,-14.123 0,-14.277L0,9.274L-10.39,9.274L-10.39,-47.101C-9.826,-47.101 -7.658,-47.197 -3.887,-47.389C-0.115,-47.582 2.925,-47.678 5.233,-47.678C19.548,-47.678 26.706,-42.137 26.706,-31.054C26.706,-27.719 25.718,-24.679 23.743,-21.934C21.767,-19.189 19.279,-17.252 16.277,-16.124L32.94,9.274L21.395,9.274Z" style="fill:rgb(29,29,27);fill-rule:nonzero;"/>
        </g>
        <g transform="matrix(2.666667,0,0,2.666667,2643.674933,1667.311467)">
            <path d="M0,-22.664L-6.773,-1.846L6.773,-1.846L0,-22.664ZM13.815,17.24L9.697,5.812L-9.62,5.812L-13.545,17.24L-24.666,17.24L-2.193,-39.904L2.193,-39.904L24.859,17.24L13.815,17.24Z" style="fill:rgb(29,29,27);fill-rule:nonzero;"/>
        </g>
        <g transform="matrix(2.666667,0,0,2.666667,2824.4832,1562.954133)">
            <path d="M0,57.144L-27.36,21.472L-27.36,56.413L-36.98,56.413L-36.98,0L-32.17,0L-5.541,34.017L-5.541,0L4.079,0L4.079,57.144L0,57.144Z" style="fill:rgb(29,29,27);fill-rule:nonzero;"/>
        </g>
        <g transform="matrix(2.666667,0,0,2.666667,2927.304,1689.581067)">
            <path d="M0,-38.596L0,8.889L-10.005,8.889L-10.005,-38.596L-27.937,-38.596L-27.937,-47.485L18.74,-47.485L18.74,-38.596L0,-38.596Z" style="fill:rgb(29,29,27);fill-rule:nonzero;"/>
        </g>
        <g transform="matrix(2.666667,0,0,2.666667,3021.402133,1689.581067)">
            <path d="M0,-38.596L0,-25.397L18.625,-25.397L18.625,-16.893L0,-16.893L0,0L25.551,0L25.551,8.889L-10.005,8.889L-10.005,-47.485L25.975,-47.485L25.975,-38.596L0,-38.596Z" style="fill:rgb(29,29,27);fill-rule:nonzero;"/>
        </g>
        <g transform="matrix(2.666667,0,0,2.666667,1724.856533,1930.492)">
            <path d="M0,-57.336L10.005,-57.336L10.005,-19.125C10.005,-16.097 10.929,-13.634 12.776,-11.736C14.623,-9.837 17.162,-8.889 20.395,-8.889C24.012,-8.889 26.827,-9.818 28.841,-11.678C30.855,-13.538 31.862,-16.085 31.862,-19.317L31.862,-57.336L41.867,-57.336L41.867,-18.547C41.867,-12.749 39.924,-8.209 36.037,-4.925C32.151,-1.641 26.962,0 20.472,0C13.93,0 8.882,-1.602 5.33,-4.81C1.776,-8.016 0,-12.608 0,-18.586L0,-57.336Z" style="fill:rgb(29,29,27);fill-rule:nonzero;"/>
        </g>
        <g transform="matrix(2.666667,0,0,2.666667,1965.9,1777.596)">
            <path d="M0,57.144L-27.36,21.472L-27.36,56.413L-36.98,56.413L-36.98,0L-32.17,0L-5.541,34.017L-5.541,0L4.079,0L4.079,57.144L0,57.144Z" style="fill:rgb(29,29,27);fill-rule:nonzero;"/>
        </g>
        <g transform="matrix(2.666667,0,0,2.666667,0,825.525333)">
            <rect x="753.028" y="357.027" width="10.005" height="56.374" style="fill:rgb(29,29,27);"/>
        </g>
        <g transform="matrix(2.666667,0,0,2.666667,2122.0808,1777.596)">
            <path d="M0,57.144L-5.503,57.144L-26.59,0L-15.585,0L-2.54,38.096L11.236,0L22.011,0L0,57.144Z" style="fill:rgb(29,29,27);fill-rule:nonzero;"/>
        </g>
        <g transform="matrix(2.666667,0,0,2.666667,2223.3624,1904.222667)">
            <path d="M0,-38.596L0,-25.397L18.625,-25.397L18.625,-16.893L0,-16.893L0,0L25.551,0L25.551,8.889L-10.005,8.889L-10.005,-47.485L25.975,-47.485L25.975,-38.596L0,-38.596Z" style="fill:rgb(29,29,27);fill-rule:nonzero;"/>
        </g>
        <g transform="matrix(2.666667,0,0,2.666667,2343.9352,1903.1976)">
            <path d="M0,-38.404L0,-22.742C1.847,-22.588 3.258,-22.511 4.233,-22.511C8.414,-22.511 11.473,-23.101 13.411,-24.281C15.347,-25.461 16.316,-27.757 16.316,-31.169C16.316,-33.94 15.277,-35.877 13.199,-36.98C11.121,-38.083 7.85,-38.635 3.386,-38.635C2.309,-38.635 1.18,-38.558 0,-38.404M21.395,9.274L6.349,-14.007C4.835,-14.032 2.719,-14.123 0,-14.277L0,9.274L-10.39,9.274L-10.39,-47.101C-9.826,-47.101 -7.658,-47.197 -3.886,-47.389C-0.115,-47.581 2.925,-47.678 5.233,-47.678C19.548,-47.678 26.706,-42.137 26.706,-31.054C26.706,-27.719 25.718,-24.679 23.743,-21.934C21.767,-19.189 19.279,-17.252 16.277,-16.124L32.94,9.274L21.395,9.274Z" style="fill:rgb(29,29,27);fill-rule:nonzero;"/>
        </g>
        <g transform="matrix(2.666667,0,0,2.666667,2437.4184,1785.909333)">
            <path d="M0,50.14L3.694,41.174C7.644,43.944 11.531,45.33 15.354,45.33C21.228,45.33 24.166,43.278 24.166,39.173C24.166,37.249 23.473,35.415 22.088,33.67C20.703,31.926 17.848,29.97 13.526,27.802C9.203,25.634 6.292,23.851 4.791,22.453C3.29,21.055 2.136,19.394 1.327,17.47C0.519,15.546 0.115,13.417 0.115,11.082C0.115,6.721 1.712,3.104 4.906,0.23C8.1,-2.642 12.198,-4.079 17.201,-4.079C23.717,-4.079 28.501,-2.861 31.554,-0.424L28.514,8.196C24.999,5.682 21.292,4.425 17.393,4.425C15.084,4.425 13.295,5.034 12.025,6.253C10.755,7.472 10.12,9.056 10.12,11.005C10.12,14.237 13.699,17.598 20.857,21.087C24.628,22.934 27.347,24.634 29.014,26.186C30.682,27.738 31.952,29.547 32.824,31.611C33.696,33.677 34.132,35.979 34.132,38.519C34.132,43.085 32.33,46.844 28.726,49.794C25.121,52.744 20.292,54.219 14.238,54.219C8.979,54.219 4.233,52.86 0,50.14" style="fill:rgb(29,29,27);fill-rule:nonzero;"/>
        </g>
        <g transform="matrix(2.666667,0,0,2.666667,0,825.525333)">
            <rect x="957.207" y="357.027" width="10.005" height="56.374" style="fill:rgb(29,29,27);"/>
        </g>
        <g transform="matrix(2.666667,0,0,2.666667,2671.689067,1904.222667)">
            <path d="M0,-38.596L0,8.889L-10.005,8.889L-10.005,-38.596L-27.937,-38.596L-27.937,-47.485L18.74,-47.485L18.74,-38.596L0,-38.596Z" style="fill:rgb(29,29,27);fill-rule:nonzero;"/>
        </g>
        <g transform="matrix(2.666667,0,0,2.666667,2819.8656,1927.928)">
            <path d="M0,-72.267L-8.697,-60.992L-16.008,-60.992L-9.505,-72.267L0,-72.267ZM-11.198,-39.905L-17.971,-19.086L-4.425,-19.086L-11.198,-39.905ZM2.617,0L-1.501,-11.429L-20.818,-11.429L-24.743,0L-35.864,0L-13.391,-57.144L-9.005,-57.144L13.661,0L2.617,0Z" style="fill:rgb(29,29,27);fill-rule:nonzero;"/>
        </g>
        <g transform="matrix(2.666667,0,0,2.666667,2899.905333,1903.1976)">
            <path d="M0,-38.404L0,-22.742C1.847,-22.588 3.258,-22.511 4.233,-22.511C8.414,-22.511 11.473,-23.101 13.411,-24.281C15.347,-25.461 16.316,-27.757 16.316,-31.169C16.316,-33.94 15.277,-35.877 13.199,-36.98C11.121,-38.083 7.85,-38.635 3.386,-38.635C2.309,-38.635 1.18,-38.558 0,-38.404M21.395,9.274L6.349,-14.007C4.835,-14.032 2.719,-14.123 0,-14.277L0,9.274L-10.39,9.274L-10.39,-47.101C-9.826,-47.101 -7.658,-47.197 -3.886,-47.389C-0.115,-47.581 2.925,-47.678 5.234,-47.678C19.548,-47.678 26.706,-42.137 26.706,-31.054C26.706,-27.719 25.718,-24.679 23.743,-21.934C21.767,-19.189 19.279,-17.252 16.277,-16.124L32.94,9.274L21.395,9.274Z" style="fill:rgb(29,29,27);fill-rule:nonzero;"/>
        </g>
        <g transform="matrix(2.666667,0,0,2.666667,0,825.525333)">
            <rect x="1125.407" y="357.027" width="10.005" height="56.374" style="fill:rgb(29,29,27);"/>
        </g>
        <g transform="matrix(2.666667,0,0,2.666667,3079.585067,1853.940533)">
            <path d="M0,-0.923C0,5.671 1.116,10.775 3.348,14.392C5.58,18.009 8.825,19.818 13.083,19.818C18.086,19.818 21.902,18.048 24.531,14.508C27.161,10.968 28.476,5.824 28.476,-0.923C28.476,-14.135 23.601,-20.741 13.853,-20.741C9.389,-20.741 5.965,-18.951 3.579,-15.372C1.193,-11.794 0,-6.977 0,-0.923M-10.39,-0.923C-10.39,-8.952 -8.19,-15.744 -3.79,-21.298C0.609,-26.852 6.49,-29.63 13.853,-29.63C21.959,-29.63 28.155,-27.115 32.439,-22.087C36.723,-17.059 38.866,-10.004 38.866,-0.923C38.866,8.158 36.627,15.368 32.151,20.703C27.674,26.039 21.318,28.707 13.083,28.707C5.516,28.707 -0.289,26.065 -4.329,20.78C-8.37,15.496 -10.39,8.261 -10.39,-0.923" style="fill:rgb(29,29,27);fill-rule:nonzero;"/>
        </g>
        <g transform="matrix(2.666667,0,0,2.666667,1045.4424,1889.7104)">
            <path d="M0,-128.921C17.711,-128.921 32.068,-114.563 32.068,-96.853C32.068,-79.142 17.711,-64.784 0,-64.784C-17.711,-64.784 -32.068,-79.142 -32.068,-96.853C-32.068,-114.563 -17.711,-128.921 0,-128.921M31.495,-40.79C51.018,-51.802 64.201,-72.735 64.201,-96.747C64.201,-132.204 35.457,-160.948 0,-160.948C-35.457,-160.948 -64.201,-132.204 -64.201,-96.747C-64.201,-80.414 -58.102,-65.505 -48.057,-54.175L-48.057,32.027L-15.924,32.027L-15.959,-32.202L48.269,32.027L80.192,32.027L80.192,7.907L31.495,-40.79Z" style="fill:rgb(29,29,27);fill-rule:nonzero;"/>
        </g>
        <g transform="matrix(2.666667,0,0,2.666667,1259.718667,1983.661333)">
            <path d="M0,-192.94L32.022,-192.94L32.022,-64.228C32.179,-46.733 46.619,-32.43 64.107,-32.437C81.584,-32.445 96.007,-46.744 96.164,-64.228L96.164,-192.611L128.3,-192.611L128.3,-64.225C128.317,-28.989 99.317,0 64.107,-0.024C28.929,-0.047 -0.017,-29.022 0,-64.225L0,-192.94Z" style="fill:rgb(29,29,27);fill-rule:nonzero;"/>
        </g>
    </g>
</svg>
