<?xml version="1.0" encoding="UTF-8" standalone="no"?>
<!DOCTYPE svg PUBLIC "-//W3C//DTD SVG 1.1//EN" "http://www.w3.org/Graphics/SVG/1.1/DTD/svg11.dtd">
<svg width="100%" height="100%" viewBox="0 0 793 870" version="1.1" xmlns="http://www.w3.org/2000/svg" xmlns:xlink="http://www.w3.org/1999/xlink" xml:space="preserve" xmlns:serif="http://www.serif.com/" style="fill-rule:evenodd;clip-rule:evenodd;stroke-linejoin:round;stroke-miterlimit:2;">
    <g transform="matrix(1,0,0,1,-3737.615733,-1291.001333)">
        <g transform="matrix(2.666667,0,0,2.666667,3798.213333,2032.102133)">
            <path d="M0,-20.316L0,-12.031C0.977,-11.949 1.723,-11.909 2.239,-11.909C4.451,-11.909 6.069,-12.221 7.094,-12.845C8.119,-13.469 8.631,-14.684 8.631,-16.489C8.631,-17.955 8.082,-18.979 6.982,-19.563C5.883,-20.146 4.153,-20.438 1.791,-20.438C1.221,-20.438 0.624,-20.397 0,-20.316M11.318,4.906L3.359,-7.41C2.558,-7.423 1.438,-7.471 0,-7.552L0,4.906L-5.496,4.906L-5.496,-24.917C-5.198,-24.917 -4.051,-24.968 -2.056,-25.069C-0.061,-25.171 1.547,-25.222 2.768,-25.222C10.341,-25.222 14.128,-22.291 14.128,-16.428C14.128,-14.664 13.605,-13.055 12.56,-11.603C11.515,-10.151 10.199,-9.126 8.611,-8.53L17.425,4.906L11.318,4.906Z" style="fill:rgb(29,29,27);fill-rule:nonzero;"/>
        </g>
        <g transform="matrix(2.666667,0,0,2.666667,3865.580533,2032.645067)">
            <path d="M0,-20.418L0,-13.436L9.853,-13.436L9.853,-8.937L0,-8.937L0,0L13.517,0L13.517,4.702L-5.293,4.702L-5.293,-25.12L13.741,-25.12L13.741,-20.418L0,-20.418Z" style="fill:rgb(29,29,27);fill-rule:nonzero;"/>
        </g>
        <g transform="matrix(2.666667,0,0,2.666667,3910.908267,1970.054133)">
            <path d="M0,26.525L1.954,21.782C4.044,23.248 6.1,23.98 8.122,23.98C11.23,23.98 12.784,22.895 12.784,20.723C12.784,19.705 12.418,18.735 11.685,17.812C10.952,16.89 9.442,15.855 7.155,14.708C4.868,13.561 3.328,12.618 2.534,11.878C1.74,11.139 1.13,10.26 0.702,9.242C0.275,8.224 0.061,7.098 0.061,5.863C0.061,3.556 0.906,1.642 2.595,0.122C4.285,-1.397 6.453,-2.158 9.099,-2.158C12.546,-2.158 15.077,-1.513 16.693,-0.224L15.084,4.336C13.225,3.006 11.264,2.341 9.201,2.341C7.98,2.341 7.033,2.664 6.361,3.308C5.69,3.953 5.354,4.791 5.354,5.822C5.354,7.532 7.247,9.31 11.033,11.156C13.028,12.133 14.467,13.032 15.349,13.853C16.231,14.674 16.903,15.631 17.364,16.723C17.825,17.816 18.056,19.034 18.056,20.377C18.056,22.793 17.103,24.781 15.196,26.342C13.289,27.903 10.735,28.683 7.532,28.683C4.75,28.683 2.239,27.964 0,26.525" style="fill:rgb(29,29,27);fill-rule:nonzero;"/>
        </g>
        <g transform="matrix(2.666667,0,0,2.666667,4003.898133,2032.645067)">
            <path d="M0,-20.418L0,4.702L-5.293,4.702L-5.293,-20.418L-14.779,-20.418L-14.779,-25.12L9.914,-25.12L9.914,-20.418L0,-20.418Z" style="fill:rgb(29,29,27);fill-rule:nonzero;"/>
        </g>
        <g transform="matrix(2.666667,0,0,2.666667,4055.957067,2020.8648)">
            <path d="M0,-11.99L-3.583,-0.977L3.583,-0.977L0,-11.99ZM7.308,9.12L5.13,3.074L-5.089,3.074L-7.166,9.12L-13.049,9.12L-1.16,-21.11L1.16,-21.11L13.15,9.12L7.308,9.12Z" style="fill:rgb(29,29,27);fill-rule:nonzero;"/>
        </g>
        <g transform="matrix(2.666667,0,0,2.666667,4099.4392,2046.542933)">
            <path d="M0,-30.332L5.293,-30.332L5.293,-10.118C5.293,-8.516 5.781,-7.213 6.758,-6.209C7.736,-5.205 9.079,-4.703 10.789,-4.703C12.703,-4.703 14.192,-5.195 15.257,-6.179C16.323,-7.163 16.855,-8.51 16.855,-10.22L16.855,-30.332L22.148,-30.332L22.148,-9.812C22.148,-6.745 21.12,-4.343 19.064,-2.606C17.008,-0.869 14.263,0 10.83,0C7.369,0 4.699,-0.848 2.819,-2.545C0.94,-4.241 0,-6.67 0,-9.833L0,-30.332Z" style="fill:rgb(29,29,27);fill-rule:nonzero;"/>
        </g>
        <g transform="matrix(2.666667,0,0,2.666667,4189.443467,2032.102133)">
            <path d="M0,-20.316L0,-12.031C0.977,-11.949 1.723,-11.909 2.239,-11.909C4.451,-11.909 6.069,-12.221 7.094,-12.845C8.119,-13.469 8.631,-14.684 8.631,-16.489C8.631,-17.955 8.082,-18.979 6.982,-19.563C5.883,-20.146 4.153,-20.438 1.791,-20.438C1.221,-20.438 0.624,-20.397 0,-20.316M11.318,4.906L3.359,-7.41C2.558,-7.423 1.438,-7.471 0,-7.552L0,4.906L-5.496,4.906L-5.496,-24.917C-5.198,-24.917 -4.051,-24.968 -2.056,-25.069C-0.061,-25.171 1.547,-25.222 2.768,-25.222C10.341,-25.222 14.128,-22.291 14.128,-16.428C14.128,-14.664 13.605,-13.055 12.56,-11.603C11.515,-10.151 10.199,-9.126 8.611,-8.53L17.425,4.906L11.318,4.906Z" style="fill:rgb(29,29,27);fill-rule:nonzero;"/>
        </g>
        <g transform="matrix(2.666667,0,0,2.666667,4269.621867,2020.8648)">
            <path d="M0,-11.99L-3.583,-0.977L3.583,-0.977L0,-11.99ZM7.308,9.12L5.13,3.074L-5.089,3.074L-7.166,9.12L-13.049,9.12L-1.161,-21.11L1.16,-21.11L13.15,9.12L7.308,9.12Z" style="fill:rgb(29,29,27);fill-rule:nonzero;"/>
        </g>
        <g transform="matrix(2.666667,0,0,2.666667,4365.270933,1965.6568)">
            <path d="M0,30.23L-14.474,11.359L-14.474,29.843L-19.563,29.843L-19.563,0L-17.018,0L-2.931,17.996L-2.931,0L2.158,0L2.158,30.23L0,30.23Z" style="fill:rgb(29,29,27);fill-rule:nonzero;"/>
        </g>
        <g transform="matrix(2.666667,0,0,2.666667,4419.664267,2032.645067)">
            <path d="M0,-20.418L0,4.702L-5.293,4.702L-5.293,-20.418L-14.779,-20.418L-14.779,-25.12L9.914,-25.12L9.914,-20.418L0,-20.418Z" style="fill:rgb(29,29,27);fill-rule:nonzero;"/>
        </g>
        <g transform="matrix(2.666667,0,0,2.666667,4469.443733,2032.645067)">
            <path d="M0,-20.418L0,-13.436L9.853,-13.436L9.853,-8.937L0,-8.937L0,0L13.517,0L13.517,4.702L-5.293,4.702L-5.293,-25.12L13.741,-25.12L13.741,-20.418L0,-20.418Z" style="fill:rgb(29,29,27);fill-rule:nonzero;"/>
        </g>
        <g transform="matrix(2.666667,0,0,2.666667,3759.073867,2160.0912)">
            <path d="M0,-30.332L5.293,-30.332L5.293,-10.118C5.293,-8.516 5.781,-7.213 6.758,-6.209C7.736,-5.205 9.079,-4.703 10.789,-4.703C12.703,-4.703 14.192,-5.195 15.257,-6.179C16.323,-7.163 16.855,-8.51 16.855,-10.22L16.855,-30.332L22.148,-30.332L22.148,-9.812C22.148,-6.745 21.12,-4.343 19.064,-2.606C17.008,-0.869 14.263,0 10.83,0C7.369,0 4.699,-0.848 2.819,-2.545C0.94,-4.241 0,-6.67 0,-9.833L0,-30.332Z" style="fill:rgb(29,29,27);fill-rule:nonzero;"/>
        </g>
        <g transform="matrix(2.666667,0,0,2.666667,3886.588533,2079.205333)">
            <path d="M0,30.23L-14.474,11.359L-14.474,29.843L-19.563,29.843L-19.563,0L-17.018,0L-2.931,17.996L-2.931,0L2.158,0L2.158,30.23L0,30.23Z" style="fill:rgb(29,29,27);fill-rule:nonzero;"/>
        </g>
        <g transform="matrix(2.666667,0,0,2.666667,0,1357.938667)">
            <rect x="1465.837" y="270.475" width="5.293" height="29.823" style="fill:rgb(29,29,27);"/>
        </g>
        <g transform="matrix(2.666667,0,0,2.666667,3969.209867,2079.205333)">
            <path d="M0,30.23L-2.911,30.23L-14.067,0L-8.245,0L-1.344,20.154L5.944,0L11.644,0L0,30.23Z" style="fill:rgb(29,29,27);fill-rule:nonzero;"/>
        </g>
        <g transform="matrix(2.666667,0,0,2.666667,4022.789067,2146.1936)">
            <path d="M0,-20.418L0,-13.436L9.853,-13.436L9.853,-8.937L0,-8.937L0,0L13.517,0L13.517,4.702L-5.293,4.702L-5.293,-25.12L13.741,-25.12L13.741,-20.418L0,-20.418Z" style="fill:rgb(29,29,27);fill-rule:nonzero;"/>
        </g>
        <g transform="matrix(2.666667,0,0,2.666667,4086.5736,2145.6504)">
            <path d="M0,-20.316L0,-12.031C0.977,-11.949 1.723,-11.909 2.239,-11.909C4.451,-11.909 6.069,-12.221 7.094,-12.845C8.119,-13.469 8.631,-14.684 8.631,-16.489C8.631,-17.955 8.082,-18.979 6.982,-19.563C5.883,-20.146 4.153,-20.438 1.791,-20.438C1.221,-20.438 0.624,-20.397 0,-20.316M11.318,4.906L3.359,-7.41C2.558,-7.423 1.438,-7.471 0,-7.552L0,4.906L-5.496,4.906L-5.496,-24.917C-5.198,-24.917 -4.051,-24.968 -2.056,-25.069C-0.061,-25.171 1.547,-25.222 2.768,-25.222C10.341,-25.222 14.128,-22.291 14.128,-16.428C14.128,-14.664 13.605,-13.055 12.56,-11.603C11.515,-10.151 10.199,-9.126 8.611,-8.53L17.425,4.906L11.318,4.906Z" style="fill:rgb(29,29,27);fill-rule:nonzero;"/>
        </g>
        <g transform="matrix(2.666667,0,0,2.666667,4136.026667,2083.602667)">
            <path d="M0,26.525L1.954,21.782C4.044,23.248 6.1,23.98 8.122,23.98C11.23,23.98 12.784,22.895 12.784,20.723C12.784,19.705 12.418,18.735 11.685,17.812C10.952,16.89 9.442,15.855 7.155,14.708C4.869,13.561 3.328,12.618 2.534,11.878C1.74,11.139 1.13,10.26 0.702,9.242C0.275,8.224 0.061,7.098 0.061,5.863C0.061,3.556 0.906,1.642 2.595,0.122C4.285,-1.397 6.453,-2.158 9.099,-2.158C12.547,-2.158 15.077,-1.513 16.693,-0.224L15.084,4.336C13.225,3.006 11.264,2.341 9.201,2.341C7.98,2.341 7.033,2.664 6.362,3.308C5.69,3.953 5.354,4.791 5.354,5.822C5.354,7.532 7.247,9.31 11.033,11.156C13.028,12.133 14.467,13.032 15.349,13.853C16.231,14.674 16.903,15.631 17.364,16.723C17.826,17.816 18.057,19.034 18.057,20.377C18.057,22.793 17.103,24.781 15.196,26.342C13.29,27.903 10.735,28.683 7.532,28.683C4.75,28.683 2.239,27.964 0,26.525" style="fill:rgb(29,29,27);fill-rule:nonzero;"/>
        </g>
        <g transform="matrix(2.666667,0,0,2.666667,0,1357.938667)">
            <rect x="1573.85" y="270.475" width="5.293" height="29.823" style="fill:rgb(29,29,27);"/>
        </g>
        <g transform="matrix(2.666667,0,0,2.666667,4259.958933,2146.1936)">
            <path d="M0,-20.418L0,4.702L-5.293,4.702L-5.293,-20.418L-14.779,-20.418L-14.779,-25.12L9.914,-25.12L9.914,-20.418L0,-20.418Z" style="fill:rgb(29,29,27);fill-rule:nonzero;"/>
        </g>
        <g transform="matrix(2.666667,0,0,2.666667,4338.3456,2158.733067)">
            <path d="M0,-38.23L-4.601,-32.265L-8.469,-32.265L-5.028,-38.23L0,-38.23ZM-5.924,-21.11L-9.507,-10.097L-2.341,-10.097L-5.924,-21.11ZM1.384,0L-0.794,-6.046L-11.013,-6.046L-13.089,0L-18.973,0L-7.084,-30.23L-4.764,-30.23L7.227,0L1.384,0Z" style="fill:rgb(29,29,27);fill-rule:nonzero;"/>
        </g>
        <g transform="matrix(2.666667,0,0,2.666667,4380.687733,2145.6504)">
            <path d="M0,-20.316L0,-12.031C0.977,-11.949 1.723,-11.909 2.239,-11.909C4.451,-11.909 6.07,-12.221 7.094,-12.845C8.119,-13.469 8.631,-14.684 8.631,-16.489C8.631,-17.955 8.082,-18.979 6.982,-19.563C5.883,-20.146 4.153,-20.438 1.791,-20.438C1.221,-20.438 0.624,-20.397 0,-20.316M11.318,4.906L3.359,-7.41C2.558,-7.423 1.438,-7.471 0,-7.552L0,4.906L-5.496,4.906L-5.496,-24.917C-5.198,-24.917 -4.051,-24.968 -2.056,-25.069C-0.061,-25.171 1.547,-25.222 2.769,-25.222C10.341,-25.222 14.128,-22.291 14.128,-16.428C14.128,-14.664 13.605,-13.055 12.56,-11.603C11.515,-10.151 10.199,-9.126 8.611,-8.53L17.425,4.906L11.318,4.906Z" style="fill:rgb(29,29,27);fill-rule:nonzero;"/>
        </g>
        <g transform="matrix(2.666667,0,0,2.666667,0,1357.938667)">
            <rect x="1662.83" y="270.475" width="5.293" height="29.823" style="fill:rgb(29,29,27);"/>
        </g>
        <g transform="matrix(2.666667,0,0,2.666667,4475.740267,2119.594933)">
            <path d="M0,-0.489C0,2.999 0.59,5.7 1.771,7.613C2.952,9.526 4.668,10.483 6.921,10.483C9.568,10.483 11.586,9.547 12.978,7.674C14.368,5.801 15.064,3.08 15.064,-0.489C15.064,-7.478 12.485,-10.973 7.328,-10.973C4.967,-10.973 3.155,-10.026 1.893,-8.133C0.631,-6.24 0,-3.692 0,-0.489M-5.496,-0.489C-5.496,-4.737 -4.333,-8.33 -2.005,-11.268C0.322,-14.206 3.433,-15.675 7.328,-15.675C11.617,-15.675 14.894,-14.345 17.161,-11.685C19.427,-9.025 20.56,-5.293 20.56,-0.489C20.56,4.315 19.376,8.129 17.008,10.952C14.64,13.774 11.278,15.186 6.921,15.186C2.918,15.186 -0.153,13.788 -2.29,10.992C-4.428,8.197 -5.496,4.37 -5.496,-0.489" style="fill:rgb(29,29,27);fill-rule:nonzero;"/>
        </g>
        <g transform="matrix(2.666667,0,0,2.666667,3918.589067,1744.692)">
            <path d="M0,-136.279C18.722,-136.279 33.899,-121.102 33.899,-102.38C33.899,-83.658 18.722,-68.481 0,-68.481C-18.722,-68.481 -33.899,-83.658 -33.899,-102.38C-33.899,-121.102 -18.722,-136.279 0,-136.279M33.292,-43.118C53.93,-54.758 67.865,-76.886 67.865,-102.269C67.865,-139.75 37.481,-170.134 0,-170.134C-37.481,-170.134 -67.865,-139.75 -67.865,-102.269C-67.865,-85.003 -61.418,-69.244 -50.8,-57.267L-50.8,33.855L-16.833,33.855L-16.87,-34.039L51.024,33.855L84.769,33.855L84.769,8.359L33.292,-43.118Z" style="fill:rgb(29,29,27);fill-rule:nonzero;"/>
        </g>
        <g transform="matrix(2.666667,0,0,2.666667,4145.095467,1844.005333)">
            <path d="M0,-203.952L33.85,-203.952L33.85,-67.894C34.016,-49.4 49.28,-34.281 67.766,-34.289C86.241,-34.296 101.487,-49.411 101.652,-67.894L101.652,-203.604L135.623,-203.604L135.623,-67.89C135.641,-30.643 104.986,0 67.766,-0.025C30.58,-0.05 -0.018,-30.678 0,-67.89L0,-203.952Z" style="fill:rgb(29,29,27);fill-rule:nonzero;"/>
        </g>
    </g>
</svg>
