<?xml version="1.0" encoding="UTF-8" standalone="no"?><!DOCTYPE svg PUBLIC "-//W3C//DTD SVG 1.1//EN" "http://www.w3.org/Graphics/SVG/1.1/DTD/svg11.dtd"><svg width="100%" height="100%" viewBox="0 0 507 505" version="1.1" xmlns="http://www.w3.org/2000/svg" xmlns:xlink="http://www.w3.org/1999/xlink" xml:space="preserve" xmlns:serif="http://www.serif.com/" style="fill-rule:evenodd;clip-rule:evenodd;stroke-linejoin:round;stroke-miterlimit:2;"><rect x="101.1" y="99.8" width="101.2" height="101.2" style="fill:#e0505e;"/><rect x="202.3" y="99.8" width="101.2" height="101.2" style="fill:#e0505e;"/><rect x="303.5" y="99.8" width="101.2" height="101.2" style="fill:#a21920;"/><rect x="101.1" y="201" width="101.2" height="101.2" style="fill:#e0505e;"/><rect x="202.3" y="201" width="101.2" height="101.2" style="fill:#231f20;"/><rect x="303.5" y="201" width="101.2" height="101.2" style="fill:#e0505e;"/><rect x="101.1" y="302.2" width="101.2" height="101.2" style="fill:#f18e9b;"/><path d="M101.1,302.2l101.2,101.2l0,-101.2l-101.2,0Z" style="fill:#a21920;fill-rule:nonzero;"/><rect x="202.3" y="302.2" width="101.2" height="101.2" style="fill:#e0505e;"/><rect x="303.5" y="302.2" width="101.2" height="101.2" style="fill:#a21920;"/><path d="M303.5,302.2l101.2,101.2l0,-101.2l-101.2,0Z" style="fill:#231f20;fill-rule:nonzero;"/><path d="M455.2,99.4c0,-27.9 -22.6,-50.5 -50.5,-50.5c-27.9,0 -50.5,22.6 -50.5,50.5c0,22 14,40.7 33.6,47.6l0,155.9l33.7,0l0,-155.9c19.6,-6.9 33.6,-25.6 33.6,-47.6" style="fill:#3f4e52;fill-rule:nonzero;"/><path d="M404.7,48.9c-14,0 -26.7,5.7 -35.9,15l35.9,35.9l0,-50.8Z" style="fill:#bdcfd6;fill-rule:nonzero;"/><path d="M387.8,147l0,54l16.9,0l0,-101.2l-50.5,0c0.1,21.8 14.1,40.3 33.6,47.3" style="fill:#6d7a7f;fill-rule:nonzero;"/><path d="M303.3,151.7c0,83.8 -67.9,151.7 -151.7,151.7c-83.8,0 -151.7,-67.9 -151.7,-151.7c0,-83.8 67.9,-151.7 151.7,-151.7c83.8,0 151.7,67.9 151.7,151.7" style="fill:#e1ebf0;fill-rule:nonzero;"/><path d="M202.3,201l92.8,0c5.3,-15.5 8.2,-32.1 8.2,-49.3c0,-18.2 -3.2,-35.7 -9.1,-51.9l-92,0l0,101.2Z" style="fill:#fff;fill-rule:nonzero;"/><path d="M202.3,8.7l0,91.1l92,0c-15.5,-42.5 -49.3,-76 -92,-91.1" style="fill:#e1ebf0;fill-rule:nonzero;"/><path d="M0,151.7c0,17.3 2.9,33.9 8.2,49.3l92.8,0l0,-101.2l-92,0c-5.9,16.2 -9.1,33.6 -9.1,51.9" style="fill:#bce2f1;fill-rule:nonzero;"/><path d="M202.3,8.7c-15.8,-5.6 -32.9,-8.7 -50.6,-8.7c-17.7,0 -34.8,3.1 -50.6,8.7l0,91.1l101.2,0l0,-91.1Z" style="fill:#bce2f1;fill-rule:nonzero;"/><path d="M223.7,151.5c0,39.8 -32.2,72 -72,72c-39.8,0 -72,-32.2 -72,-72c0,-39.8 32.2,-72 72,-72c39.8,0 72,32.2 72,72" style="fill:#bce2f1;fill-rule:nonzero;"/><path d="M223.7,151.5c0,-20 -8.2,-38.2 -21.4,-51.2l0,100.7l1.7,0c12.2,-12.9 19.7,-30.3 19.7,-49.5" style="fill:#6d7a7f;fill-rule:nonzero;"/><path d="M101.1,100.3c-13.2,13.1 -21.4,31.2 -21.4,51.2c0,19.2 7.5,36.6 19.7,49.5l1.7,0l0,-100.7Z" style="fill:#5cc0ee;fill-rule:nonzero;"/><path d="M101.6,99.8l100.1,0c-13,-12.5 -30.6,-20.2 -50,-20.2c-19.4,0 -37.1,7.7 -50,20.2" style="fill:#5cc0ee;fill-rule:nonzero;"/><path d="M506.1,420.8c0,46.4 -37.7,84.1 -84.1,84.1c-46.4,0 -84.1,-37.7 -84.1,-84.1c0,-46.4 37.7,-84.1 84.1,-84.1c46.4,0 84.1,37.7 84.1,84.1" style="fill:#e1ebf0;fill-rule:nonzero;"/><path d="M404.7,403.4l0,-64.9c-32.5,6.8 -58.2,32.4 -65,64.9l65,0Z" style="fill:#f9d7dd;fill-rule:nonzero;"/><path d="M505.9,415.7c-0.2,-4.2 -0.8,-8.3 -1.6,-12.3l-99.6,0l0,99.7c3.6,0.8 7.3,1.3 11,1.5l12.5,0c41.8,-3.1 75.1,-36.7 77.7,-78.7l0,-10.2Z" style="fill:#bce2f1;fill-rule:nonzero;"/><path d="M489.1,420.6c0,37.1 -30,67.1 -67.1,67.1c-37.1,0 -67.1,-30 -67.1,-67.1c0,-37.1 30,-67.1 67.1,-67.1c37.1,0 67.1,30 67.1,67.1" style="fill:#bce2f1;fill-rule:nonzero;"/><path d="M404.7,403.4l0,-47.6c-23.2,6.2 -41.4,24.4 -47.6,47.6l47.6,0Z" style="fill:#f18e9b;fill-rule:nonzero;"/><path d="M404.7,485.5c5.5,1.5 11.3,2.3 17.3,2.3c37.1,0 67.1,-30 67.1,-67.1c0,-6 -0.8,-11.7 -2.2,-17.2l-82.1,0l0,82.1Z" style="fill:#5cc0ee;fill-rule:nonzero;"/><path d="M98.2,403.7c-6.9,-19.6 -25.6,-33.6 -47.6,-33.6c-18.7,0 -35,10.1 -43.7,25.2l70.6,0l0,16.9l-76.6,0c-0.5,2.7 -0.7,5.6 -0.7,8.4c0,2.9 0.3,5.7 0.7,8.4l76.6,0l0,16.9l-70.6,0c8.7,15.1 25,25.2 43.7,25.2c22,0 40.7,-14 47.6,-33.6l155.9,0l0,-33.7l-155.9,0Z" style="fill:#bdcfd6;fill-rule:nonzero;"/><path d="M168.4,437.4l33.8,-33.7l-101.2,0l0,33.7l67.4,0Z" style="fill:#6d7a7f;fill-rule:nonzero;"/><path d="M101.1,403.7l-2.9,0l-0.1,-0.3l-20.6,0l0,8.7l-76.6,0c-0.5,2.7 -0.7,5.6 -0.7,8.4c0,2.9 0.3,5.7 0.7,8.4l76.6,0l0,16.9l-70.6,0c8.7,15.1 25,25.2 43.7,25.2c22,0 40.7,-14 47.6,-33.6l2.9,0l0,-33.7Z" style="fill:#3f4e52;fill-rule:nonzero;"/><path d="M230.7,336.9c-15.8,-10.5 -34.8,-16.5 -55.2,-16.5c-37.2,0 -69.7,20.2 -87,50.3l174,0l-0,-0l81.8,0l0,-33.7l-113.6,0Z" style="fill:#3f4e52;fill-rule:nonzero;"/><path d="M101.1,370.7l101.2,0l0,-46.7c-8.5,-2.4 -17.5,-3.6 -26.8,-3.6c-29.5,0 -56,12.7 -74.4,33l0,17.3Z" style="fill:#6d7a7f;fill-rule:nonzero;"/><rect x="303.5" y="336.9" width="40.8" height="33.7" style="fill:#6d7a7f;"/><rect x="404.7" y="201" width="16.9" height="101.2" style="fill:#6d7a7f;"/><path d="M404.7,48.9l0,50.8l50.5,0c0,-0.1 0,-0.2 0,-0.3c0,-27.9 -22.6,-50.5 -50.5,-50.5" style="fill:#6d7a7f;fill-rule:nonzero;"/><path d="M130.1,331.2c16.1,16.1 22.2,22.2 39.4,39.4l32.7,0l0,-46.7c-8.5,-2.4 -17.5,-3.6 -26.8,-3.6c-16.3,0 -31.8,3.9 -45.4,10.8" style="fill:#bdcfd6;fill-rule:nonzero;"/><path d="M25.4,429l-16.9,-16.9l-7.8,0c-0.5,2.7 -0.7,5.6 -0.7,8.4c0,2.9 0.3,5.7 0.7,8.4l24.6,0Z" style="fill:#6d7a7f;fill-rule:nonzero;"/><path d="M42.3,445.8l-35.4,0c8.7,15.1 25,25.2 43.7,25.2c5.1,0 10.1,-0.8 14.7,-2.2l-23,-23Z" style="fill:#6d7a7f;fill-rule:nonzero;"/><path d="M236.3,437.4l17.8,0l0,-33.7l-51.6,0l33.7,33.7Z" style="fill:#3f4e52;fill-rule:nonzero;"/><path d="M202.3,294.7c43.5,-15.4 77.8,-50 92.8,-93.7l-92.8,0l0,93.7Z" style="fill:#bce2f1;fill-rule:nonzero;"/><path d="M101.1,294.7c10.3,3.6 21.1,6.2 32.2,7.5l36.8,0c11.2,-1.3 21.9,-3.9 32.2,-7.5l0,-93.7l-101.2,0l0,93.7Z" style="fill:#fff;fill-rule:nonzero;"/><path d="M101.1,202.8c13,12.9 30.9,20.8 50.6,20.8c19.7,0 37.6,-7.9 50.6,-20.8l0,-1.8l-101.2,0l0,1.8Z" style="fill:#6d7a7f;fill-rule:nonzero;"/></svg>