<?xml version="1.0" encoding="UTF-8" standalone="no"?><!DOCTYPE svg PUBLIC "-//W3C//DTD SVG 1.1//EN" "http://www.w3.org/Graphics/SVG/1.1/DTD/svg11.dtd"><svg width="100%" height="100%" viewBox="0 0 456 505" version="1.1" xmlns="http://www.w3.org/2000/svg" xmlns:xlink="http://www.w3.org/1999/xlink" xml:space="preserve" xmlns:serif="http://www.serif.com/" style="fill-rule:evenodd;clip-rule:evenodd;stroke-linejoin:round;stroke-miterlimit:2;"><rect x="50.8" y="99.7" width="101.2" height="101.2" style="fill:#6f9136;"/><rect x="152" y="99.7" width="101.2" height="101.2" style="fill:#4a5e25;"/><path d="M201.8,100.8c0,55.7 -45.1,100.8 -100.8,100.8c-55.7,0 -100.8,-45.1 -100.8,-100.8c0,-55.7 45.1,-100.8 100.8,-100.8c55.7,0 100.8,45.1 100.8,100.8" style="fill:#e1ebf0;fill-rule:nonzero;"/><path d="M50.8,99.7l0,-86.4c-30,17.2 -50.2,49.4 -50.6,86.4l50.6,0Z" style="fill:#bce2f1;fill-rule:nonzero;"/><path d="M50.8,188.2c11.7,6.7 24.9,11.2 38.9,12.7l22.6,0c14.4,-1.6 27.8,-6.2 39.7,-13.2l0,-88l-101.2,0l0,88.5Z" style="fill:#bce2f1;fill-rule:nonzero;"/><path d="M152,13.9l0,85.9l49.8,0c-0.4,-36.6 -20.3,-68.5 -49.8,-85.9" style="fill:#bce2f1;fill-rule:nonzero;"/><path d="M185.1,99.5c0,46.4 -37.7,84.1 -84.1,84.1c-46.4,0 -84.1,-37.7 -84.1,-84.1c0,-46.4 37.7,-84.1 84.1,-84.1c46.4,0 84.1,37.7 84.1,84.1" style="fill:#3ea0c7;fill-rule:nonzero;"/><path d="M152,166.3c20,-15.3 33,-39.4 33.1,-66.6l-33.1,0l0,66.6Z" style="fill:#5cc0ee;fill-rule:nonzero;"/><path d="M100.6,99.7l84.5,0l0,-0.2c0,-46.4 -37.7,-84.1 -84.1,-84.1c-46.4,0 -84.1,37.7 -84.1,84.1c0,46.4 37.7,84.1 84.1,84.1c23.1,0 43.9,-9.3 59.1,-24.3l-59.5,-59.5Z" style="fill:#a21920;fill-rule:nonzero;"/><path d="M152,32.7l0,67.1l33.1,0l0,-0.2c0,-27.3 -13,-51.5 -33.1,-66.8" style="fill:#e0505e;fill-rule:nonzero;"/><path d="M50.8,32c-20.6,15.3 -33.9,39.8 -33.9,67.5l0,0.2l33.9,-0l0,-67.7Z" style="fill:#ef7b1d;fill-rule:nonzero;"/><rect x="253.2" y="99.7" width="101.2" height="101.2" style="fill:#6f9136;"/><path d="M253.2,99.7l101.2,101.2l0,-101.2l-101.2,0Z" style="fill:#4a5e25;fill-rule:nonzero;"/><rect x="269.6" y="68.5" width="101.2" height="101.2" style="fill:#f2b319;"/><rect x="269.6" y="99.7" width="84.8" height="70" style="fill:#efd39a;"/><path d="M269.6,68.5l101.2,101.2l0,-101.2l-101.2,0Z" style="fill:#efd39a;fill-rule:nonzero;"/><rect x="286.3" y="51.6" width="101.2" height="101.2" style="fill:#e0505e;"/><rect x="354.4" y="99.7" width="33.1" height="53" style="fill:#a21920;"/><path d="M286.3,152.8l101.2,-101.2l-101.2,0l0,101.2Z" style="fill:#a21920;fill-rule:nonzero;"/><path d="M286.3,99.7l53,0l15.1,-15.1l0,-33.1l-68.2,0l0,48.2Z" style="fill:#e0505e;fill-rule:nonzero;"/><rect x="303.8" y="34.8" width="101.2" height="101.2" style="fill:#efd39a;"/><rect x="354.4" y="34.8" width="50.6" height="64.9" style="fill:#f9f0dc;"/><rect x="354.4" y="99.7" width="50.6" height="36.3" style="fill:#f9f0dc;"/><rect x="303.8" y="99.7" width="50.6" height="36.3" style="fill:#f2b319;"/><path d="M354.4,99.7l0,-64.9l-50.6,0l0,14.3l50.6,50.6Z" style="fill:#f2b319;fill-rule:nonzero;"/><rect x="50.8" y="200.9" width="101.2" height="101.2" style="fill:#6f9136;"/><path d="M152,200.9l-101.2,101.2l0,-101.2l101.2,0Z" style="fill:#cddf99;fill-rule:nonzero;"/><rect x="152" y="200.9" width="101.2" height="101.2" style="fill:#6f9136;"/><path d="M152,200.9l101.2,101.2l-101.2,0l0,-101.2Z" style="fill:#4a5e25;fill-rule:nonzero;"/><rect x="253.2" y="200.9" width="101.2" height="101.2" style="fill:#cddf99;"/><rect x="50.8" y="302.2" width="101.2" height="101.2" style="fill:#cddf99;"/><rect x="152" y="302.2" width="101.2" height="101.2" style="fill:#6f9136;"/><rect x="253.2" y="302.2" width="101.2" height="101.2" style="fill:#3ea0c7;"/><path d="M455.5,352.9c0,83.8 -67.9,151.7 -151.7,151.7c-83.8,0 -151.7,-67.9 -151.7,-151.7c0,-83.8 67.9,-151.7 151.7,-151.7c83.8,0 151.7,67.9 151.7,151.7" style="fill:#fff;fill-rule:nonzero;"/><path d="M354.4,403.4l92.4,0c5.6,-15.8 8.6,-32.8 8.6,-50.5c0,-17.8 -3.1,-34.9 -8.7,-50.8l-92.3,0l0,101.2Z" style="fill:#e1ebf0;fill-rule:nonzero;"/><path d="M354.4,403.4l-101.2,0l0,92.5c15.8,5.6 32.9,8.7 50.6,8.7c17.7,0 34.8,-3.1 50.6,-8.7l0,-92.5Z" style="fill:#e1ebf0;fill-rule:nonzero;"/><path d="M354.4,495.9c43.1,-15.3 77.2,-49.4 92.4,-92.5l-92.4,0l0,92.5Z" style="fill:#bce2f1;fill-rule:nonzero;"/><path d="M253.2,302.2l0,-92.2c-43,15.2 -77.1,49.3 -92.3,92.2l92.3,0Z" style="fill:#e1ebf0;fill-rule:nonzero;"/><path d="M375.8,352.8c0,39.8 -32.2,72 -72,72c-39.8,0 -72,-32.2 -72,-72c0,-39.8 32.2,-72 72,-72c39.8,0 72,32.2 72,72" style="fill:#bce2f1;fill-rule:nonzero;"/><path d="M354.4,301.6c-13,-12.9 -30.9,-20.8 -50.6,-20.8c-19.7,0 -37.6,7.9 -50.6,20.8l0,0.6l101.2,0l0,-0.6Z" style="fill:#5cc0ee;fill-rule:nonzero;"/><path d="M375.8,352.8c0,-19.7 -8,-37.6 -20.8,-50.6l-0.6,0l0,101.2l0.6,0c12.8,-13 20.8,-30.9 20.8,-50.6" style="fill:#6d7a7f;fill-rule:nonzero;"/><path d="M231.8,352.8c0,19.7 7.9,37.6 20.8,50.6l0.6,0l0,-101.2l-0.6,0c-12.9,13 -20.8,30.9 -20.8,50.6" style="fill:#5cc0ee;fill-rule:nonzero;"/><path d="M253.5,252.9l-0.2,0.1l0,201.8c15.2,7.6 32.4,12 50.6,12c44.2,0 82.5,-25.4 101,-62.5l-151.4,-151.4Z" style="fill:#231f20;fill-rule:nonzero;"/><path d="M284.1,283.6c-11.8,3.4 -22.4,9.6 -30.9,18l-0,0.6l49.5,0l-18.6,-18.6Z" style="fill:#a21920;fill-rule:nonzero;"/><path d="M354.4,454.8l0,-51.5l-101.2,0l0,51.5c15.2,7.6 32.4,12 50.6,12c18.2,0 35.4,-4.3 50.6,-12" style="fill:#ef7b1d;fill-rule:nonzero;"/><path d="M354.4,454.8c21.8,-10.9 39.5,-28.7 50.4,-50.5l-0.9,-0.9l-49.5,0l0,51.5Z" style="fill:#a21920;fill-rule:nonzero;"/><path d="M354.4,353.9l0,49.5l0.6,0c0.2,-0.2 0.4,-0.4 0.6,-0.6c0.4,-0.4 0.7,-0.8 1.1,-1.2c0.4,-0.4 0.7,-0.8 1.1,-1.2c0.3,-0.4 0.6,-0.7 0.9,-1.1c1.5,-1.7 2.8,-3.5 4.1,-5.3c0.2,-0.2 0.3,-0.5 0.5,-0.7c0.4,-0.6 0.8,-1.2 1.2,-1.8c0.2,-0.3 0.3,-0.5 0.5,-0.8c0.4,-0.6 0.8,-1.3 1.1,-1.9c0.1,-0.2 0.2,-0.4 0.4,-0.7c0.4,-0.7 0.8,-1.4 1.1,-2.1l0.1,-0.3c1.7,-3.3 3.2,-6.8 4.4,-10.4l0.1,-0.2c0.3,-0.9 0.6,-1.8 0.8,-2.7l0,-0.1l-18.6,-18.6Z" style="fill:#a21920;fill-rule:nonzero;"/><path d="M67.4,356.9l0,-155.9l-33.7,0l0,155.9c-19.6,6.9 -33.6,25.6 -33.6,47.6c0,27.9 22.6,50.5 50.5,50.5c27.9,0 50.5,-22.6 50.5,-50.5c0,-22 -14,-40.7 -33.6,-47.6" style="fill:#3f4e52;fill-rule:nonzero;"/><path d="M50.8,455c27.7,-0.2 50.2,-22.7 50.2,-50.5c0,-0.4 -0,-0.8 -0,-1.1l-50.2,0l0,51.6Z" style="fill:#6d7a7f;fill-rule:nonzero;"/><path d="M50.8,403.4l0,-101.2l-17.2,0l0,54.7c-19.3,6.8 -33.1,25 -33.6,46.5l50.8,0Z" style="fill:#6d7a7f;fill-rule:nonzero;"/><path d="M50.8,403.4l-50.8,0c-0,0.4 -0,0.8 -0,1.1c0,27.9 22.6,50.5 50.5,50.5c0.1,0 0.2,-0 0.3,-0l0,-51.6Z" style="fill:#3f4e52;fill-rule:nonzero;"/><path d="M50.8,302.2l0,101.2l50.2,0c-0.5,-21.5 -14.4,-39.6 -33.6,-46.5l0,-54.7l-16.6,0Z" style="fill:#3f4e52;fill-rule:nonzero;"/><path d="M354.4,136l0,-36.3l-36.3,36.3l36.3,0Z" style="fill:#efd39a;fill-rule:nonzero;"/><path d="M405,49.1l-50.6,50.6l50.6,0l0,-50.6Z" style="fill:#efd39a;fill-rule:nonzero;"/><path d="M152,99.7l-101.2,0l0,67.2c14,10.4 31.4,16.6 50.2,16.6c19.2,0 36.9,-6.4 51,-17.3l0,-15.2l-51.4,-51.4l51.4,0Z" style="fill:#e0505e;fill-rule:nonzero;"/><path d="M33.6,302.2l17.2,0l-17.2,-17.2l0,17.2Z" style="fill:#3f4e52;fill-rule:nonzero;"/><rect x="50.8" y="200.9" width="16.6" height="101.2" style="fill:#bdcfd6;"/><path d="M50.8,200.9l0,101.2l16.6,-16.6l0,-84.6l-16.6,0Z" style="fill:#6d7a7f;fill-rule:nonzero;"/><path d="M86.9,439.5l-36.1,-36.1l0,51.6c14.2,-0.1 27,-6 36.1,-15.5" style="fill:#bdcfd6;fill-rule:nonzero;"/><path d="M253.2,495.9l0,-92.5l-92.4,0c15.2,43.1 49.4,77.3 92.4,92.5" style="fill:#bce2f1;fill-rule:nonzero;"/><path d="M354.4,209.9l0,92.2l92.3,0c-15.3,-43 -49.3,-77 -92.3,-92.2" style="fill:#bce2f1;fill-rule:nonzero;"/><path d="M354.4,454.8l0,-50.8c-13,12.9 -30.9,20.8 -50.6,20.8c-19.7,0 -37.6,-7.9 -50.6,-20.8l0,50.8c15.2,7.6 32.4,12 50.6,12c18.2,0 35.4,-4.3 50.6,-12" style="fill:#231f20;fill-rule:nonzero;"/><path d="M253.2,302.2l101.5,101.5l-101.5,0" style="fill:#a21920;fill-rule:nonzero;"/></svg>