<?xml version="1.0" encoding="UTF-8" standalone="no"?><!DOCTYPE svg PUBLIC "-//W3C//DTD SVG 1.1//EN" "http://www.w3.org/Graphics/SVG/1.1/DTD/svg11.dtd"><svg width="100%" height="100%" viewBox="0 0 510 480" version="1.1" xmlns="http://www.w3.org/2000/svg" xmlns:xlink="http://www.w3.org/1999/xlink" xml:space="preserve" xmlns:serif="http://www.serif.com/" style="fill-rule:evenodd;clip-rule:evenodd;stroke-linejoin:round;stroke-miterlimit:2;"><rect x="102.6" y="73.3" width="101.2" height="101.2" style="fill:#e0505e;"/><rect x="203.8" y="73.3" width="101.2" height="101.2" style="fill:#6d7a7f;"/><path d="M305,73.3l-101.8,101.8l101.8,0l0,-101.8Z" style="fill:#bce2f1;fill-rule:nonzero;"/><rect x="305" y="73.3" width="101.2" height="101.2" style="fill:#3ea0c7;"/><path d="M406.2,73.4l-101.2,101.2l101.2,0l0,-101.2Z" style="fill:#1e708e;fill-rule:nonzero;"/><rect x="102.3" y="174.7" width="101.2" height="101.2" style="fill:#6d7a7f;"/><rect x="203.8" y="174.6" width="101.2" height="101.2" style="fill:#3ea0c7;"/><rect x="305" y="174.6" width="101.2" height="101.2" style="fill:#3f4e52;"/><rect x="102.6" y="275.8" width="101.2" height="101.2" style="fill:#1e708e;"/><rect x="203.8" y="275.8" width="101.2" height="101.2" style="fill:#bce2f1;"/><rect x="305" y="275.8" width="101.2" height="101.2" style="fill:#3ea0c7;"/><path d="M458.1,21.5l-51.9,51.9l73.3,0c0,-20.3 -8.2,-38.6 -21.5,-51.9" style="fill:#ef7b1d;fill-rule:nonzero;"/><path d="M458.1,21.5c-13.3,-13.3 -31.6,-21.5 -51.9,-21.5l0,73.3l51.9,-51.9Z" style="fill:#f2b319;fill-rule:nonzero;"/><path d="M406.2,73.3l0,-73.3c-20.3,0 -38.6,8.2 -51.9,21.5l51.9,51.9Z" style="fill:#ef7b1d;fill-rule:nonzero;"/><path d="M354.3,21.5c-13.3,13.3 -21.5,31.6 -21.5,51.9l73.3,0l-51.9,-51.9Z" style="fill:#f2b319;fill-rule:nonzero;"/><path d="M332.9,73.4c0,20.3 8.2,38.6 21.5,51.9l51.9,-51.9l-73.4,0Z" style="fill:#ef7b1d;fill-rule:nonzero;"/><path d="M354.3,125.2c13.3,13.3 31.6,21.5 51.9,21.5l0,-73.3l-51.9,51.9Z" style="fill:#f2b319;fill-rule:nonzero;"/><path d="M406.2,73.4l0,73.3c20.3,0 38.6,-8.2 51.9,-21.5l-51.9,-51.9Z" style="fill:#ef7b1d;fill-rule:nonzero;"/><path d="M405.5,277.6l103.7,-103.7c-13.3,-13.6 -31.9,-22.1 -52.4,-22.1c-40.5,0 -73.4,32.8 -73.4,73.4c-0,20.5 8.5,39.1 22.1,52.4" style="fill:#f2b319;fill-rule:nonzero;"/><path d="M455.4,377.6c0,55.1 -44.7,99.8 -99.8,99.8c-55.1,0 -99.8,-44.7 -99.8,-99.8c0,-55.1 44.7,-99.8 99.8,-99.8c55.1,0 99.8,44.7 99.8,99.8" style="fill:#a21920;fill-rule:nonzero;"/><path d="M406.2,291.6l0,85.4l49.2,0c-0.2,-36.4 -19.9,-68.2 -49.2,-85.4" style="fill:#f18e9b;fill-rule:nonzero;"/><path d="M305,463.6c14.8,8.7 32.1,13.8 50.6,13.8c18.5,0 35.8,-5 50.6,-13.8l0,-86.7l-101.2,0l0,86.7Z" style="fill:#f18e9b;fill-rule:nonzero;"/><path d="M305,427.2l0,36.4c14.8,8.7 32.1,13.8 50.6,13.8c18.5,0 35.8,-5 50.6,-13.8l0,-36.4l-101.2,0Z" style="fill:#e0505e;fill-rule:nonzero;"/><path d="M389.5,378c0,18.7 -15.2,33.9 -33.9,33.9c-18.7,0 -33.9,-15.2 -33.9,-33.9c0,-18.7 15.2,-33.9 33.9,-33.9c18.7,0 33.9,15.2 33.9,33.9" style="fill:#231f20;fill-rule:nonzero;"/><path d="M321.7,378c0,18.7 15.2,33.9 33.9,33.9c18.7,0 33.9,-15.2 33.9,-33.9c0,-0.3 -0,-0.7 -0,-1l-67.8,0c-0,0.3 -0,0.7 -0,1" style="fill:#a21920;fill-rule:nonzero;"/><path d="M372.5,378c0,9.3 -7.6,16.9 -16.9,16.9c-9.3,0 -16.9,-7.6 -16.9,-16.9c0,-9.3 7.6,-16.9 16.9,-16.9c9.3,0 16.9,7.6 16.9,16.9" style="fill:#ef7b1d;fill-rule:nonzero;"/><path d="M338.7,378c0,9.3 7.6,16.9 16.9,16.9c9.3,0 16.9,-7.6 16.9,-16.9c0,-0.3 -0,-0.7 -0.1,-1l-33.6,0c-0,0.3 -0.1,0.7 -0.1,1" style="fill:#f2b319;fill-rule:nonzero;"/><path d="M406.2,377.2c27.9,0 50.6,-22.7 50.6,-50.6c0,-13.8 -5.5,-26.2 -14.4,-35.4l-71.5,71.5c9.1,8.9 21.6,14.4 35.4,14.4" style="fill:#9abf68;fill-rule:nonzero;"/><path d="M426.4,307.2l-20.1,20.1l0,49.6l4.2,0c17.9,-1.5 33.2,-12.3 40.9,-27.6c-4.7,-16.1 -13.4,-30.6 -25,-42.2" style="fill:#6f9136;fill-rule:nonzero;"/><path d="M188.6,362c-9.2,9.4 -22,15.2 -36.1,15.2c-27.9,0 -50.6,-22.7 -50.6,-50.6c0,-14.1 5.8,-26.9 15.2,-36.1l-72.1,-72.1c-27.8,27.6 -45,65.9 -45,108.2c0,84.2 68.3,152.5 152.5,152.5c42.3,0 80.6,-17.2 108.2,-45l-72.1,-72.1Z" style="fill:#ef7b1d;fill-rule:nonzero;"/><path d="M102.4,275.8l-57.4,-57.4c-16.1,16 -28.6,35.5 -36.3,57.4l93.7,0Z" style="fill:#f2b319;fill-rule:nonzero;"/><path d="M102.6,377l-94,0c15.3,43.8 50.1,78.5 94,93.7l0,-93.7Z" style="fill:#f2b319;fill-rule:nonzero;"/><path d="M188.6,362c-9.2,9.4 -22,15.2 -36.1,15.2c-27.9,0 -50.6,-22.7 -50.6,-50.6c0,-14.1 5.8,-26.9 15.2,-36.1l-54.5,-54.5c-23.2,23.1 -37.5,55 -37.5,90.3c0,70.4 57.1,127.4 127.4,127.4c35.3,0 67.2,-14.3 90.3,-37.5l-54.2,-54.2Z" style="fill:#f9f0dc;fill-rule:nonzero;"/><path d="M305,174.6l-151.8,-151.8c-55.9,0 -101.2,45.3 -101.2,101.2c0,18.5 5,35.9 13.7,50.8l175.1,0l0.1,-0.2l64.1,0Z" style="fill:#9abf68;fill-rule:nonzero;"/><path d="M203.2,74c-12.9,-12.6 -30.5,-20.5 -50,-20.5c-39.4,0 -71.3,31.9 -71.3,71.3c0,19.5 7.8,37.1 20.5,50l101.6,0l0.2,-0.2l100.8,0l-101.2,-101.2l-0.6,0.6Z" style="fill:#f18e9b;fill-rule:nonzero;"/><path d="M102.6,74.6c-12.8,12.9 -20.7,30.6 -20.7,50.2c0,19.4 7.7,36.9 20.3,49.8l0.4,0l0,-99.9Z" style="fill:#a21920;fill-rule:nonzero;"/><path d="M65.5,73.4l37.1,0l0,-37.1c-15.4,8.9 -28.2,21.7 -37.1,37.1" style="fill:#4a5e25;fill-rule:nonzero;"/><path d="M202.5,73.3c-12.8,-12.3 -30.2,-19.8 -49.3,-19.8c-19.1,0 -36.5,7.6 -49.3,19.8l98.6,0Z" style="fill:#e0505e;fill-rule:nonzero;"/><path d="M203.8,73.4l0,101.2l101.2,0l-101.2,-101.2Z" style="fill:#e0505e;fill-rule:nonzero;"/><path d="M102.6,74.6l100.6,100.6l-100.8,0l0.2,-100.6Z" style="fill:#e0505e;fill-rule:nonzero;"/><path d="M254.4,124l-50.6,50.6l101.2,0l-50.6,-50.6Z" style="fill:#a21920;fill-rule:nonzero;"/><path d="M203.8,275.8l-101.2,0l101.2,101.2l0,-101.2Z" style="fill:#3ea0c7;fill-rule:nonzero;"/><path d="M203.6,377l-15,-15c-8.2,8.4 -19.3,13.9 -31.7,15l46.6,0Z" style="fill:#efd39a;fill-rule:nonzero;"/><path d="M102.6,276l0,42.3c1.8,-10.8 7,-20.5 14.5,-27.8l-14.5,-14.5Z" style="fill:#efd39a;fill-rule:nonzero;"/><path d="M102.6,334.9l0,42.1l45.5,0c-23.1,-2 -41.7,-19.5 -45.5,-42.1" style="fill:#efd39a;fill-rule:nonzero;"/><path d="M102.6,334.9c-0.4,-2.7 -0.7,-5.5 -0.7,-8.3c0,-2.8 0.2,-5.6 0.7,-8.3l0,-42.3l-0.2,-0.2l-66.9,0c-6.7,15.5 -10.4,32.5 -10.4,50.4c0,18 3.8,35.2 10.5,50.8l67,0l0,-42.1Z" style="fill:#f9f0dc;fill-rule:nonzero;"/><path d="M102.4,275.8l-39.8,-39.8c-11.4,11.4 -20.6,24.8 -27.1,39.8l66.9,0Z" style="fill:#efd39a;fill-rule:nonzero;"/><path d="M102.6,443.5l0,-66.5l-67,0c13,29.8 37,53.8 67,66.5" style="fill:#efd39a;fill-rule:nonzero;"/><path d="M203.8,470.2c21.6,-7.7 41,-20.2 56.9,-36.2l-56.9,-56.9l0,93Z" style="fill:#f2b319;fill-rule:nonzero;"/><path d="M203.8,442.9c14.6,-6.4 27.8,-15.6 39,-26.7l-39,-39l0,65.7Z" style="fill:#efd39a;fill-rule:nonzero;"/><path d="M305,275.8l-101.2,0l0,101.4l101.2,-101.4Z" style="fill:#5cc0ee;fill-rule:nonzero;"/><path d="M507.4,172.1c-13.2,-12.6 -31,-20.3 -50.6,-20.3c-19.6,0 -37.4,7.7 -50.6,20.3l0,2.5l101.2,0l0,-2.5Z" style="fill:#efd39a;fill-rule:nonzero;"/><path d="M406.2,174.6l-2.5,0c-12.6,13.2 -20.3,31 -20.3,50.6c0,19.6 7.7,37.4 20.3,50.6l2.5,0l0,-101.2Z" style="fill:#ef7b1d;fill-rule:nonzero;"/><path d="M507.4,174.6l-101.2,0l51.2,51.2l50,-50l0,-1.1Z" style="fill:#ef7b1d;fill-rule:nonzero;"/><path d="M102.9,276.1l101,-101l-101.6,0l0.6,101Z" style="fill:#3f4e52;fill-rule:nonzero;"/><path d="M305,377l0,-85.4c-29.3,17.3 -49,49 -49.2,85.4l49.2,0Z" style="fill:#e0505e;fill-rule:nonzero;"/><path d="M255.8,377.6c0,36.6 19.7,68.6 49.1,86l0,-86.6l-49.1,0.1c-0,0.2 -0,0.4 -0,0.5" style="fill:#a21920;fill-rule:nonzero;"/></svg>