<?xml version="1.0" encoding="UTF-8" standalone="no"?>
<!DOCTYPE svg PUBLIC "-//W3C//DTD SVG 1.1//EN" "http://www.w3.org/Graphics/SVG/1.1/DTD/svg11.dtd">
<svg width="100%" height="100%" viewBox="0 0 828 807" version="1.1" xmlns="http://www.w3.org/2000/svg" xmlns:xlink="http://www.w3.org/1999/xlink" xml:space="preserve" xmlns:serif="http://www.serif.com/" style="fill-rule:evenodd;clip-rule:evenodd;stroke-linejoin:round;stroke-miterlimit:2;">
    <g transform="matrix(1,0,0,1,-3624.943467,-1407.198643)">
        <g transform="matrix(2.666667,0,0,2.666667,0,0)">
            <clipPath id="_clip1">
                <path d="M1380.351,596.556C1380.351,612.209 1386.196,626.495 1395.823,637.354L1395.823,719.96L1426.615,719.96L1426.582,658.41L1488.131,719.96L1518.723,719.96L1518.723,696.848L1472.056,650.18C1490.765,639.627 1503.399,619.568 1503.399,596.556C1503.399,562.578 1475.854,535.033 1441.875,535.033C1407.896,535.033 1380.351,562.578 1380.351,596.556ZM1411.144,596.455C1411.144,579.484 1424.902,565.725 1441.875,565.725C1458.848,565.725 1472.606,579.484 1472.606,596.455C1472.606,613.428 1458.848,627.187 1441.875,627.187C1424.902,627.187 1411.144,613.428 1411.144,596.455Z" clip-rule="nonzero"/>
            </clipPath>
            <g clip-path="url(#_clip1)">
                <g>
                    <g transform="matrix(-1,0,0,1,3029.205,285.913)">
                        <rect x="1462.853" y="345.294" width="103.499" height="103.499" style="fill:rgb(224,80,94);"/>
                    </g>
                    <g transform="matrix(-1,0,0,1,2822.207,78.915)">
                        <rect x="1359.354" y="448.793" width="103.499" height="103.499" style="fill:rgb(162,25,32);"/>
                    </g>
                    <g transform="matrix(-1,0,0,1,2822.207,285.913)">
                        <rect x="1359.354" y="345.294" width="103.499" height="103.499" style="fill:rgb(63,78,82);"/>
                    </g>
                    <g transform="matrix(-1,0,0,1,3029.205,78.915)">
                        <rect x="1462.853" y="448.793" width="103.499" height="103.499" style="fill:rgb(109,122,127);"/>
                    </g>
                    <g transform="matrix(-0.707107,0.707107,0.707107,0.707107,1587.858805,579.3374)">
                        <path d="M51.885,-124.9C47.327,-120.47 18.848,-91.84 20.757,-47.336C22.437,-8.189 46.469,16.225 51.885,21.469L125.069,-51.715L51.885,-124.9Z" style="fill:rgb(92,192,238);fill-rule:nonzero;"/>
                    </g>
                    <g transform="matrix(1,0,0,1,1359.3538,631.2065)">
                        <path d="M0,-103.499L103.499,0L0,0L0,-103.499Z" style="fill:rgb(224,80,94);fill-rule:nonzero;"/>
                    </g>
                    <g transform="matrix(1,0,0,1,1462.8955,734.7058)">
                        <path d="M0,-103.499L-0.002,-103.499C-28.583,-103.499 -51.752,-80.33 -51.752,-51.749C-51.752,-23.169 -28.583,0 -0.002,0L0,0L0,-103.499Z" style="fill:rgb(111,145,54);fill-rule:nonzero;"/>
                    </g>
                    <g transform="matrix(1,0,0,1,1462.8955,734.7058)">
                        <path d="M0,-103.499L0,0C28.58,-0.001 51.748,-23.169 51.748,-51.749C51.748,-80.329 28.58,-103.498 0,-103.499" style="fill:rgb(242,179,25);fill-rule:nonzero;"/>
                    </g>
                </g>
            </g>
        </g>
        <g transform="matrix(2.666667,0,0,2.666667,0,0)">
            <clipPath id="_clip2">
                <path d="M1518.878,538.138L1518.878,661.486C1518.862,695.22 1546.6,722.987 1580.312,723.01C1614.054,723.032 1641.845,695.252 1641.828,661.486L1641.828,538.453L1611.031,538.453L1611.031,661.482C1610.882,678.237 1597.06,691.94 1580.312,691.947C1563.553,691.954 1549.714,678.247 1549.565,661.482L1549.565,538.138L1518.878,538.138Z" clip-rule="nonzero"/>
            </clipPath>
            <g clip-path="url(#_clip2)">
                <g>
                    <g transform="matrix(-1,0,0,1,3029.205,285.913)">
                        <rect x="1462.853" y="345.294" width="103.499" height="103.499" style="fill:rgb(224,80,94);"/>
                    </g>
                    <g transform="matrix(-1,0,0,1,3029.205,78.915)">
                        <rect x="1462.853" y="448.793" width="103.499" height="103.499" style="fill:rgb(109,122,127);"/>
                    </g>
                    <g transform="matrix(-1,0,0,1,3236.205,78.915)">
                        <rect x="1566.353" y="448.793" width="103.499" height="103.499" style="fill:rgb(239,123,29);"/>
                    </g>
                    <g transform="matrix(-1,0,0,1,3236.205,285.913)">
                        <rect x="1566.353" y="345.294" width="103.499" height="103.499" style="fill:rgb(92,192,238);"/>
                    </g>
                    <g transform="matrix(1,0,0,1,1566.3523,734.7058)">
                        <path d="M0,-103.499L103.499,0L0,0L0,-103.499Z" style="fill:rgb(74,94,37);fill-rule:nonzero;"/>
                    </g>
                    <g transform="matrix(1,0,0,1,1669.8516,631.2065)">
                        <path d="M0,-103.499L-103.499,0L-103.499,-103.499L0,-103.499Z" style="fill:rgb(242,179,25);fill-rule:nonzero;"/>
                    </g>
                    <g transform="matrix(-0.707107,0.707107,0.707107,0.707107,1587.858805,579.3374)">
                        <path d="M51.885,-124.9C47.327,-120.47 18.848,-91.84 20.757,-47.336C22.437,-8.189 46.469,16.225 51.885,21.469L125.069,-51.715L51.885,-124.9Z" style="fill:rgb(92,192,238);fill-rule:nonzero;"/>
                    </g>
                </g>
            </g>
        </g>
        <g transform="matrix(2.666667,0,0,2.666667,3720.519733,2214.046933)">
            <path d="M0,-76.523L13.352,-76.523L13.352,-25.525C13.352,-21.484 14.586,-18.198 17.05,-15.664C19.515,-13.13 22.905,-11.864 27.219,-11.864C32.047,-11.864 35.804,-13.104 38.492,-15.587C41.18,-18.069 42.524,-21.468 42.524,-25.782L42.524,-76.523L55.877,-76.523L55.877,-24.755C55.877,-17.016 53.283,-10.956 48.096,-6.574C42.909,-2.191 35.984,0 27.322,0C18.591,0 11.854,-2.14 7.112,-6.42C2.37,-10.699 0,-16.828 0,-24.806L0,-76.523Z" style="fill:rgb(29,29,27);fill-rule:nonzero;"/>
        </g>
        <g transform="matrix(2.666667,0,0,2.666667,3946.2184,2178.9848)">
            <path d="M0,-51.511L0,-33.895L26.449,-33.895L26.449,-22.545L0,-22.545L0,11.864L-13.352,11.864L-13.352,-63.375L36.208,-63.375L36.208,-51.511L0,-51.511Z" style="fill:rgb(29,29,27);fill-rule:nonzero;"/>
        </g>
        <g transform="matrix(2.666667,0,0,2.666667,4109.8776,2178.302667)">
            <path d="M0,-51.512L0,-27.425C2.26,-27.185 4.04,-27.066 5.342,-27.066C11.435,-27.066 15.886,-28.084 18.695,-30.122C21.502,-32.158 22.906,-35.471 22.906,-40.059C22.906,-47.866 16.622,-51.769 4.058,-51.769C2.654,-51.769 1.301,-51.683 0,-51.512M0,-15.562L0,12.12L-13.352,12.12L-13.352,-63.067C-4.451,-63.444 0.753,-63.632 2.26,-63.632C14.14,-63.632 22.829,-61.809 28.324,-58.163C33.819,-54.516 36.567,-48.824 36.567,-41.086C36.567,-23.83 26.398,-15.202 6.06,-15.202C4.554,-15.202 2.534,-15.322 0,-15.562" style="fill:rgb(29,29,27);fill-rule:nonzero;"/>
        </g>
        <g transform="matrix(2.666667,0,0,2.666667,4274.494133,2178.9848)">
            <path d="M0,-51.511L0,-33.895L24.858,-33.895L24.858,-22.545L0,-22.545L0,0.001L34.102,0.001L34.102,11.864L-13.352,11.864L-13.352,-63.375L34.667,-63.375L34.667,-51.511L0,-51.511Z" style="fill:rgb(29,29,27);fill-rule:nonzero;"/>
        </g>
    </g>
</svg>
