<?xml version="1.0" encoding="UTF-8" standalone="no"?>
<!DOCTYPE svg PUBLIC "-//W3C//DTD SVG 1.1//EN" "http://www.w3.org/Graphics/SVG/1.1/DTD/svg11.dtd">
<svg width="100%" height="100%" viewBox="0 0 1956 923" version="1.1" xmlns="http://www.w3.org/2000/svg" xmlns:xlink="http://www.w3.org/1999/xlink" xml:space="preserve" xmlns:serif="http://www.serif.com/" style="fill-rule:evenodd;clip-rule:evenodd;stroke-linejoin:round;stroke-miterlimit:2;">
    <g transform="matrix(1,0,0,1,-1037.7536,-1264.033067)">
        <g transform="matrix(2.666667,0,0,2.666667,1293.142933,1855.500267)">
            <path d="M0,-134.019C-24.004,-134.019 -49.876,-132.102 -73.216,-126.688C-71.174,-89.864 -73.171,-15.818 -56.192,4.038C-58.306,4.38 -60.419,4.743 -62.533,5.128C-74.791,-14.941 -76.177,-65.012 -77.257,-103.573C-77.538,-113.755 -77.797,-123.136 -78.196,-130.949L-78.243,-131.01L-78.196,-131.024C-52.692,-136.931 -26.133,-139.147 0,-139.146C26.134,-139.145 52.686,-136.937 78.184,-131.024L78.243,-131.01L78.24,-130.949C77.808,-123.136 77.546,-113.755 77.262,-103.573C76.185,-65.012 74.784,-14.941 62.571,5.128C60.435,4.743 58.305,4.38 56.182,4.038C73.184,-15.818 71.177,-89.864 73.215,-126.688C49.869,-132.102 24.005,-134.019 0,-134.019" style="fill:rgb(29,29,27);"/>
        </g>
        <g transform="matrix(2.666667,0,0,2.666667,1326.537867,1415.679467)">
            <path d="M0,13.122C-3.654,12.209 -8.157,11.815 -12.523,11.815C-16.888,11.815 -21.393,12.209 -25.046,13.122C-30.299,9.758 -30.77,3.612 -25.156,1.175C-21.029,0.486 -16.651,0 -12.523,0C-8.394,0 -4.016,0.486 0.111,1.175C5.724,3.612 5.253,9.758 0,13.122" style="fill:rgb(29,29,27);"/>
        </g>
        <g transform="matrix(2.666667,0,0,2.666667,1149.5648,1530.206667)">
            <path d="M0,15.875C-3.779,3.088 7.726,-4.511 15.371,-5.066C36.319,-6.585 48.51,-1.463 71.781,-0.066C80.433,0.013 88.885,-0.353 97.599,-3.926C95.607,2.173 68.857,6.924 57.91,6.983C54.049,7.003 49.937,6.745 46.148,6.165C43.794,5.804 8.494,0.4 9.563,11.823C9.66,12.869 11.035,12.862 11.461,12.69C17.943,10.06 22.537,7.994 29.313,7.751C42.835,7.266 52.137,11.335 67.003,8.319C56.622,15.057 30.196,12.705 24.845,14.301C19.408,15.924 15.034,18.874 10.147,20.244C2.245,22.46 0.264,16.764 0,15.875" style="fill:rgb(29,29,27);"/>
        </g>
        <g transform="matrix(2.666667,0,0,2.666667,1180.699733,1633.6024)">
            <path d="M0,8.193C1.064,6.04 2.417,3.772 4.305,2.275C7.461,-0.227 11.366,6.151 7.419,7.589C5.139,8.42 2.472,8.302 0,8.193" style="fill:rgb(29,29,27);"/>
        </g>
        <g transform="matrix(2.666667,0,0,2.666667,1150.729067,1667.398667)">
            <path d="M0,0.351C-1.86,-0.559 -4.087,-1.535 -6.105,-2.145C-4.231,-2.651 -2.352,-3.551 -0.585,-4.374C-2.602,-6.018 -4.775,-7.824 -7.191,-8.532C-10.771,-9.583 -11.658,-3.79 -9.232,-2.242C-12.001,-1.047 -11.538,4.543 -8.288,4.654C-9.366,6.369 -7.55,9.934 -5.257,8.737C-3.54,7.843 -1.68,5.591 -0.966,4.643C-2.394,4.294 -3.941,3.93 -5.407,3.796C-3.541,2.847 -1.677,1.553 0,0.351" style="fill:rgb(29,29,27);"/>
        </g>
        <g transform="matrix(2.666667,0,0,2.666667,1177.398133,1780.792533)">
            <path d="M0,29.647C9.645,27.971 13.807,26.319 19.735,23.728C26.072,21.371 31.342,18.515 37.65,14.636C31.834,14.263 26.991,12.046 23.246,9.249C18.331,5.577 15.345,0.926 14.698,-1.922C14.132,1.28 13.043,4.009 11.116,6.707C9.013,9.653 5.155,15.71 1.381,11.844C-0.401,10.648 -5.654,13.306 -8.661,12.623C-14.613,11.27 -14.509,17.474 -11.154,19.141C-13.952,21.051 -12.766,25.996 -8.914,26.426C-10.143,28.352 -7.348,31.569 -4.22,30.442C-2.775,29.921 -1.629,29.962 0,29.647" style="fill:rgb(29,29,27);"/>
        </g>
        <g transform="matrix(2.666667,0,0,2.666667,1189.844267,1693.7256)">
            <path d="M0,14.062C1.194,14.749 2.909,15.718 3.905,16.472C4.009,16.55 4.1,16.619 4.178,16.679C4.744,14.943 5.443,13.536 6.242,12.387C7.058,11.213 7.982,10.31 8.98,9.6C9.281,7.882 9.709,6.638 10.01,5.419C10.289,4.288 11.858,1.78 13.053,0.527C12.53,0.277 11.465,0.219 10.677,0.104C7.748,-0.32 3.458,-1.483 1.69,-2.617C1.444,0.191 1.146,2.939 0.849,5.687C0.549,8.45 0.249,11.214 0,14.062" style="fill:rgb(29,29,27);"/>
        </g>
        <g transform="matrix(2.666667,0,0,2.666667,1194.8,1625.697333)">
            <path d="M0,-13.319C2.429,-12.025 4.469,-10.794 4.374,-6.946C4.312,-4.474 1.982,-0.811 0,0L-23.281,0C-25.261,-0.811 -27.591,-4.474 -27.653,-6.946C-27.749,-10.794 -25.708,-12.025 -23.281,-13.319L0,-13.319Z" style="fill:rgb(29,29,27);"/>
        </g>
        <g transform="matrix(2.666667,0,0,2.666667,1421.633067,1596.394933)">
            <path d="M0,99.691C2.729,98.01 5.067,95.675 6.966,92.666L6.968,92.666C9.526,88.666 10.982,84.031 11.02,78.947C11.05,74.994 10.475,70.767 9.932,66.354C9.248,60.782 -2.072,33.876 -4.627,28.735C-6.641,24.68 -10.231,17.703 -9.96,14.667C-9.787,8.094 -4.386,4.155 2.229,4.209C5.95,4.239 10.077,6.885 12.161,10.237L12.161,10.238C13.71,12.986 13.929,16.52 13.16,20.86L13.125,20.924C6.314,27.325 7.668,31.889 10.036,39.867C11.471,44.704 13.277,50.788 13.877,59.278C14.594,52.284 15.237,45.485 15.825,38.712C16.455,31.449 17.292,27.887 17.816,20.474L17.816,20.471L17.816,20.474L17.816,20.471C18.035,15.326 17.188,10.143 14.522,6.546C11.619,2.63 7.192,0 1.521,0.284C-11.657,0.945 -18.076,12.196 -12.362,23.165C-8.04,31.467 -2.48,45.221 0.97,53.981C4.432,62.772 6.034,70.238 2.947,73.269L2.756,73.253C-0.493,68.762 -5.198,67.151 -10.07,65.482C-15.808,63.515 -22.098,60.836 -26.229,53.951C-27.103,55.73 -28.642,57.309 -30.347,58.586C-32.675,60.331 -37.073,62.619 -38.752,62.99C-38.848,63.011 -38.933,62.911 -38.892,62.826C-38.705,62.43 -38.515,62.018 -38.382,61.484C-38.261,61.001 -38.184,60.413 -38.188,59.639C-39.745,60.976 -40.383,61.13 -42.96,62.481C-49.023,65.662 -55.462,68.587 -54.85,75.071C-54.155,82.436 -45.695,84.401 -36.378,84.969C-30.972,85.299 -25.573,85.639 -21.253,87.326C-21.222,86.56 -20.693,85.115 -19.941,83.825C-19.39,82.88 -18.616,82.015 -17.586,81.548C-17.486,81.503 -17.373,81.614 -17.423,81.709C-18.445,83.636 -18.906,87.113 -18.865,88.851C-18.65,98.051 -6.799,98.929 0,99.691" style="fill:rgb(29,29,27);"/>
        </g>
        <g transform="matrix(2.666667,0,0,2.666667,1274.839733,1815.1072)">
            <path d="M0,-86.534C-4.848,-85.694 -10.131,-83.676 -13.867,-82.248C-14.26,-82.097 -14.44,-82.028 -14.591,-81.97C-14.396,-80.921 -14.51,-79.955 -14.621,-79.019C-14.834,-77.216 -15.034,-75.532 -12.697,-73.726C-11.451,-76.134 -9.575,-76.379 -7.742,-75.598C-6.508,-75.072 -5.303,-74.056 -4.35,-72.939C-3.397,-71.821 -2.691,-70.59 -2.461,-69.64C-2.236,-68.715 -2.432,-68.012 -3.206,-67.793C-3.275,-67.747 -3.357,-67.711 -3.453,-67.683C-3.901,-67.552 -4.879,-67.539 -5.868,-67.684C-6.865,-67.83 -7.9,-68.14 -8.464,-68.658C-8.657,-68.836 -8.801,-69.038 -8.875,-69.267C-8.941,-69.409 -9.001,-69.519 -9.051,-69.602C-9.094,-69.419 -9.118,-69.184 -9.133,-68.981C-9.075,-68.018 -8.872,-67.049 -8.519,-66.204C-8.232,-65.512 -7.842,-64.908 -7.352,-64.461C-7.158,-64.524 -6.933,-64.604 -6.684,-64.692C-5.793,-65.008 -4.612,-65.426 -3.345,-65.599L-3.295,-65.602C-2.459,-65.602 -1.564,-65.573 -0.657,-65.545L0,-65.525L0,-82.011L-0.072,-82.009L-0.072,-82.01L-0.107,-82.009L-0.142,-82.009L-0.211,-82.007L-0.454,-82.007L-0.489,-82.008L-0.523,-82.008L-0.558,-82.009L-0.627,-82.009L-0.695,-82.011L-0.729,-82.011L-0.762,-82.013L-0.796,-82.013L-0.83,-82.015L-0.864,-82.015L-0.897,-82.017L-0.931,-82.018L-0.965,-82.02L-1.031,-82.022L-1.064,-82.024L-1.13,-82.026L-1.162,-82.028L-1.164,-82.028L-1.196,-82.03L-1.293,-82.036L-1.326,-82.038L-1.389,-82.042L-1.422,-82.044L-1.485,-82.048L-1.517,-82.05L-1.548,-82.053L-1.579,-82.055L-1.611,-82.057L-1.641,-82.059L-1.672,-82.061L-1.703,-82.064L-1.734,-82.066L-1.764,-82.068L-1.794,-82.072L-1.823,-82.074L-1.825,-82.074L-1.854,-82.076L-1.884,-82.079L-1.913,-82.082L-1.972,-82.086L-2,-82.089L-2.03,-82.092L-2.059,-82.095L-2.087,-82.097L-2.115,-82.1L-2.144,-82.103L-2.172,-82.105L-2.226,-82.111L-2.255,-82.113L-2.336,-82.122L-2.361,-82.124L-2.363,-82.124L-2.388,-82.127L-2.414,-82.13L-2.44,-82.132L-2.465,-82.136L-2.61,-82.151L-2.515,-82.259L-2.494,-82.284L-2.471,-82.309L-2.399,-82.384L-2.374,-82.409L-2.322,-82.459L-2.321,-82.459L-2.295,-82.484L-2.268,-82.509L-2.267,-82.509L-2.24,-82.534L-2.211,-82.559L-2.182,-82.585L-2.152,-82.609L-2.122,-82.634L-2.092,-82.66L-2.061,-82.684L-2.03,-82.709L-2.029,-82.709L-1.998,-82.735L-1.965,-82.759L-1.933,-82.783L-1.931,-82.783L-1.899,-82.807L-1.865,-82.832L-1.83,-82.857L-1.796,-82.88L-1.795,-82.88L-1.76,-82.905L-1.725,-82.929L-1.688,-82.953L-1.652,-82.976L-1.615,-83L-1.577,-83.023L-1.54,-83.047L-1.502,-83.07L-1.5,-83.07L-1.462,-83.093L-1.423,-83.115L-1.384,-83.138L-1.304,-83.182L-1.303,-83.182L-1.262,-83.204L-1.222,-83.226L-1.054,-83.31L-0.968,-83.35L-0.924,-83.37L-0.88,-83.391L-0.835,-83.41L-0.792,-83.429L-0.791,-83.429L-0.746,-83.447L-0.701,-83.466L-0.655,-83.484L-0.611,-83.502L-0.61,-83.502L-0.564,-83.52L-0.518,-83.537L-0.516,-83.537L-0.47,-83.554L-0.424,-83.57L-0.423,-83.57L-0.377,-83.587L-0.376,-83.587L-0.328,-83.603L-0.281,-83.618L-0.234,-83.634L-0.232,-83.634L-0.185,-83.649L-0.184,-83.649L-0.135,-83.664L-0.097,-83.675L-0.019,-83.695L0,-83.701L0,-86.534ZM-22.335,-20.756C-22.225,-21.036 -21.77,-21.019 -21.683,-20.732C-19.88,-14.775 -16.39,-9.278 -11.563,-5.335C-8.288,-2.659 -4.397,-0.698 0,0.206L0,-1.713C-0.122,-1.852 -0.239,-1.997 -0.355,-2.144C-1.535,-3.653 -2.384,-5.527 -2.495,-7.606C-2.606,-9.684 -1.981,-11.964 -0.222,-14.283C-0.15,-14.378 -0.076,-14.473 0,-14.567L0,-55.233C-3.904,-53.481 -8.432,-51.115 -12.172,-48.378C-15.762,-45.75 -18.622,-42.786 -19.479,-39.717C-18.628,-40.222 -17.761,-40.595 -16.819,-40.844C-15.618,-41.161 -14.3,-41.275 -12.741,-41.196C-12.419,-41.18 -12.343,-40.661 -12.65,-40.565C-13.522,-40.291 -14.406,-39.947 -15.282,-39.535C-18.874,-37.845 -22.341,-35.014 -24.449,-31.22C-26.553,-27.43 -27.302,-22.668 -25.465,-17.108C-25.172,-16.222 -24.812,-15.315 -24.384,-14.389C-23.953,-15.45 -23.628,-16.582 -23.308,-17.704C-23.013,-18.741 -22.719,-19.771 -22.335,-20.756M0,-14.567C2.186,-17.304 5.978,-20.089 12.047,-22.649C12.933,-23.107 14.894,-24.095 16.675,-25.671C18.451,-27.242 20.071,-29.408 20.31,-32.243C20.337,-32.56 20.875,-32.617 20.979,-32.313C21.431,-30.983 21.543,-29.575 21.41,-28.124C21.301,-26.931 21.026,-25.707 20.643,-24.475C23.913,-26.249 26.295,-29.334 28.005,-32.72C31.108,-38.867 32.003,-45.987 32.026,-48.185C32.029,-48.455 32.384,-48.602 32.598,-48.42C33.041,-48.041 33.501,-47.545 33.894,-46.925C33.968,-46.807 34.041,-46.685 34.11,-46.558C34.293,-50.65 33.874,-54.175 32.874,-57.475C31.752,-61.174 29.9,-64.599 27.351,-68.231C27.207,-68.435 27.36,-68.72 27.617,-68.733C27.982,-68.751 28.386,-68.679 28.835,-68.501C29.001,-68.434 29.175,-68.352 29.358,-68.254C27.468,-72.892 24.965,-75.744 21.904,-79.229C21.579,-79.597 21.252,-79.97 20.98,-80.282L20.91,-80.556C21.145,-81.571 21.302,-82.098 21.654,-82.552C21.963,-82.951 22.393,-83.253 23.14,-83.754C22.127,-84.795 19.775,-85.611 17.154,-86.167C13.704,-86.898 9.828,-87.165 7.869,-86.912C8.83,-85.308 9.235,-83.658 9.282,-82.115C9.348,-79.953 8.71,-77.994 7.937,-76.664C7.772,-76.382 7.245,-76.554 7.296,-76.871C7.449,-77.784 7.775,-79.563 7.68,-81.487C7.588,-83.345 7.103,-85.35 5.681,-86.844C3.958,-87.029 2.017,-86.883 0,-86.534L0,-83.701L0.06,-83.716L0.099,-83.727L0.138,-83.736L0.178,-83.746L0.219,-83.755L0.219,-83.754L0.258,-83.764L0.299,-83.772L0.339,-83.781L0.38,-83.789L0.42,-83.796L0.461,-83.804L0.501,-83.811L0.503,-83.811L0.542,-83.818L0.543,-83.818L0.584,-83.825L0.666,-83.837L0.708,-83.842L0.749,-83.848L0.791,-83.852L0.875,-83.862L0.917,-83.866L0.958,-83.869L1,-83.873L1.043,-83.875L1.127,-83.881L1.171,-83.883L1.254,-83.885L1.298,-83.887L1.468,-83.887L1.511,-83.886L1.598,-83.882L1.641,-83.881L1.683,-83.878L1.684,-83.878L1.726,-83.875L1.727,-83.875L1.769,-83.872L1.771,-83.872L1.814,-83.869L1.856,-83.865L1.857,-83.865L1.899,-83.86L1.9,-83.86L1.944,-83.855L1.986,-83.85L1.987,-83.85L2.03,-83.844L2.073,-83.837L2.117,-83.831L2.16,-83.825L2.246,-83.809L2.29,-83.801L2.291,-83.801L2.333,-83.792L2.378,-83.783L2.421,-83.773L2.464,-83.764L2.507,-83.753L2.551,-83.742L2.61,-83.727L2.609,-83.668L2.607,-83.658L2.607,-83.649L2.606,-83.639L2.606,-83.629L2.605,-83.618L2.603,-83.609L2.601,-83.588L2.598,-83.577L2.597,-83.566L2.597,-83.567L2.595,-83.556L2.592,-83.545L2.591,-83.535L2.59,-83.535L2.588,-83.523L2.586,-83.512L2.583,-83.501L2.58,-83.489L2.578,-83.478L2.576,-83.478L2.574,-83.466L2.571,-83.455L2.567,-83.443L2.564,-83.431L2.56,-83.419L2.557,-83.408L2.556,-83.408L2.553,-83.395L2.552,-83.395L2.549,-83.383L2.548,-83.383L2.54,-83.359L2.536,-83.346L2.532,-83.334L2.526,-83.321L2.522,-83.309L2.517,-83.296L2.513,-83.283L2.507,-83.27L2.502,-83.258L2.497,-83.244L2.491,-83.232L2.486,-83.218L2.48,-83.206L2.475,-83.193L2.468,-83.18L2.463,-83.166L2.457,-83.153L2.451,-83.141L2.444,-83.128L2.438,-83.114L2.432,-83.101L2.411,-83.062L2.406,-83.048L2.405,-83.048L2.384,-83.009L2.378,-82.995L2.371,-82.983L2.37,-82.983L2.356,-82.955L2.355,-82.955L2.348,-82.943L2.341,-82.93L2.333,-82.916L2.325,-82.903L2.318,-82.891L2.31,-82.878L2.303,-82.865L2.302,-82.865L2.295,-82.853L2.279,-82.827L2.272,-82.815L2.264,-82.802L2.256,-82.79L2.248,-82.777L2.24,-82.766L2.232,-82.753L2.223,-82.741L2.215,-82.728L2.199,-82.704L2.191,-82.693L2.182,-82.68L2.174,-82.668L2.164,-82.656L2.156,-82.645L2.148,-82.632L2.14,-82.621L2.138,-82.621L2.13,-82.609L2.122,-82.598L2.113,-82.586L2.105,-82.575L2.103,-82.575L2.087,-82.553L2.078,-82.541L2.068,-82.53L2.06,-82.52L2.05,-82.509L2.033,-82.488L2.023,-82.477L2.006,-82.456L1.996,-82.446L1.987,-82.436L1.979,-82.426L1.978,-82.426L1.96,-82.406L1.95,-82.397L1.941,-82.387L1.932,-82.378L1.923,-82.368L1.914,-82.359L1.905,-82.351L1.896,-82.341L1.895,-82.341L1.887,-82.333L1.886,-82.333L1.877,-82.324L1.868,-82.316L1.859,-82.307L1.849,-82.299L1.832,-82.284L1.822,-82.276L1.813,-82.268L1.803,-82.261L1.795,-82.254L1.786,-82.247L1.776,-82.24L1.759,-82.227L1.732,-82.215L1.664,-82.199L1.632,-82.193L1.63,-82.193L1.598,-82.185L1.563,-82.178L1.53,-82.171L1.496,-82.165L1.495,-82.165L1.463,-82.158L1.427,-82.152L1.394,-82.145L1.326,-82.133L1.291,-82.128L1.257,-82.122L1.222,-82.117L1.188,-82.111L1.154,-82.107L1.153,-82.107L1.119,-82.101L1.084,-82.097L1.05,-82.091L1.015,-82.087L0.98,-82.082L0.945,-82.078L0.911,-82.075L0.876,-82.07L0.841,-82.067L0.806,-82.063L0.772,-82.059L0.702,-82.053L0.7,-82.053L0.666,-82.049L0.561,-82.04L0.526,-82.038L0.491,-82.035L0.456,-82.033L0.454,-82.033L0.42,-82.03L0.35,-82.026L0.314,-82.024L0.28,-82.022L0.245,-82.02L0.243,-82.02L0.21,-82.019L0.174,-82.017L0.034,-82.013L0,-82.011L0,-65.525C2.744,-65.443 5.519,-65.417 7.212,-66.204C8.916,-66.994 9.514,-68.698 7.792,-72.221C7.648,-72.515 8.171,-72.809 8.376,-72.55C11.609,-68.461 10.248,-65.987 8.352,-64.563C7.45,-63.886 6.431,-63.459 5.749,-63.211C6.485,-62.769 6.899,-62.142 7.058,-61.418C7.218,-60.69 7.112,-59.868 6.818,-59.047C6.669,-58.635 6.473,-58.221 6.238,-57.819L6.057,-57.671C4.467,-57.116 2.345,-56.285 0,-55.233L0,-14.567ZM0,0.206C0.914,0.394 1.849,0.538 2.806,0.631C1.817,0.056 0.841,-0.741 0,-1.713L0,0.206Z" style="fill:rgb(29,29,27);"/>
        </g>
        <g transform="matrix(2.666667,0,0,2.666667,1250.495733,1627.3464)">
            <path d="M0,-0.21C-1.26,-0.049 -2.459,0.325 -3.59,0.678C-6.581,1.61 -9.103,2.397 -11.055,-1.195L-10.973,-1.263C-8.098,0.634 -4.985,-0.332 -2.202,-1.195C0.192,-1.939 2.345,-2.607 3.925,-1.338L3.932,-1.263C3.863,-1.187 3.341,-1.076 2.684,-0.937C1.742,-0.737 0.518,-0.476 0.019,-0.216L0,-0.21Z" style="fill:rgb(29,29,27);"/>
        </g>
        <g transform="matrix(2.666667,0,0,2.666667,1191.563467,1791.5552)">
            <path d="M0,-52.82C-0.327,-52.794 -0.66,-52.778 -0.993,-52.769C-0.919,-52.882 -0.843,-52.994 -0.766,-53.105C-0.489,-53.506 -0.196,-53.891 0.116,-54.252L0,-52.82ZM-15.982,-48.852C-14.391,-47.57 -15.179,-48.202 -15.985,-48.85L-15.982,-48.852ZM-19.929,-46.383C-19.596,-46.256 -19.261,-46.124 -18.926,-45.984L-19.038,-45.91C-19.312,-45.731 -19.585,-45.556 -19.857,-45.387L-19.929,-46.383ZM-20.35,-52.202C-19.98,-51.964 -19.614,-51.71 -19.249,-51.44C-19.588,-51.293 -19.927,-51.151 -20.264,-51.02L-20.35,-52.202ZM-14.871,-52.261C-15.09,-52.44 -10.721,-48.911 -14.783,-52.185L-14.871,-52.261ZM-4.733,5.803L-0.293,-49.182C-1.508,-49.138 -2.722,-49.191 -3.897,-49.243L-3.96,-49.246C-5.247,-49.302 -6.208,-50.852 -5.651,-51.979C-5.082,-53.127 -4.44,-54.305 -3.694,-55.383C-2.906,-56.523 -1.996,-57.577 -0.93,-58.423C-0.458,-58.798 0.027,-59.047 0.515,-59.191L0.595,-60.178L-20.936,-60.278L-20.641,-56.211C-18.558,-55.266 -16.744,-53.789 -15.036,-52.395L-15.038,-52.392L-14.874,-52.258L-14.871,-52.261L-14.874,-52.258L-14.783,-52.185C-13.848,-51.33 -13.946,-49.798 -15.003,-49.306C-15.103,-49.26 -15.205,-49.212 -15.306,-49.165C-15.529,-49.061 -15.755,-48.956 -15.982,-48.852C-16.232,-49.054 -16.543,-49.304 -16.92,-49.609L-16.924,-49.604C-16.833,-49.533 -16.408,-49.189 -15.985,-48.85C-16.147,-48.775 -16.309,-48.701 -16.473,-48.626L-16.393,-48.59C-16.039,-48.43 -15.753,-48.299 -15.52,-48.189C-15.145,-48.012 -14.879,-47.884 -14.695,-47.795L-14.686,-47.79C-13.448,-47.187 -13.152,-45.455 -14.173,-44.724C-14.715,-44.336 -15.272,-43.943 -15.824,-43.563C-14.71,-43.131 -14.14,-41.656 -14.819,-40.754C-15.375,-40.015 -16.573,-38.547 -17.884,-37.427C-18.149,-37.202 -18.423,-36.985 -18.703,-36.787C-18.872,-36.668 -19.041,-36.556 -19.21,-36.453L-19.196,-36.277L-19.196,-36.275L-19.193,-36.232L-19.129,-35.332C-18.435,-23.089 -17.017,-6.707 -15.964,6.687C-15.384,6.639 -14.724,6.688 -13.972,6.858C-11.335,7.458 -6.968,5.486 -4.733,5.803" style="fill:rgb(29,29,27);"/>
        </g>
        <g transform="matrix(2.666667,0,0,2.666667,1196.2384,1423.692267)">
            <path d="M0,11.946C-3.683,11.161 -8.198,10.925 -12.561,11.078C-16.924,11.23 -21.412,11.78 -25.03,12.82C-30.397,9.641 -31.083,3.516 -25.557,0.885C-21.457,0.051 -17.1,-0.587 -12.973,-0.731C-8.847,-0.874 -4.455,-0.542 -0.307,0.003C5.389,2.242 5.132,8.401 0,11.946" style="fill:rgb(29,29,27);"/>
        </g>
        <g transform="matrix(2.666667,0,0,2.666667,1293.142933,1473.786933)">
            <path d="M0,-7.464C-4.269,-7.464 -8.82,-6.951 -12.368,-5.864C-12.364,-5.721 -12.36,-2.824 -12.355,-0.001C-8.222,-0.116 -4.102,-0.17 0,-0.17C4.104,-0.17 8.223,-0.116 12.357,0C12.36,-2.823 12.365,-5.721 12.368,-5.864C8.821,-6.951 4.269,-7.464 0,-7.464" style="fill:rgb(29,29,27);"/>
        </g>
        <g transform="matrix(2.666667,0,0,2.666667,1162.9768,1484.619733)">
            <path d="M0,-9.261C-4.266,-9.112 -8.797,-8.441 -12.304,-7.23C-12.288,-6.94 -12.147,-3.309 -12.015,0.149C-3.86,-1.119 4.356,-2.079 12.593,-2.772C12.507,-5.303 12.419,-7.878 12.416,-8.093C8.833,-9.056 4.266,-9.41 0,-9.261" style="fill:rgb(29,29,27);"/>
        </g>
        <g transform="matrix(2.666667,0,0,2.666667,1484.2816,1928.6312)">
            <path d="M0,-0.034L3.801,0.58L2.675,-4.708L0,-0.034ZM-4.538,4.355L-2.68,4.654L-0.892,1.526L4.175,2.345L4.928,5.882L7.548,6.305L4.724,-6.954L2.167,-7.368L-4.538,4.355ZM-13.83,1.034L-11.922,1.307C-10.927,1.45 -10.143,1.4 -9.57,1.161C-8.997,0.922 -8.507,0.447 -8.096,-0.262C-7.684,-0.972 -7.415,-1.791 -7.288,-2.716C-7.167,-3.598 -7.208,-4.405 -7.411,-5.13C-7.617,-5.858 -7.96,-6.434 -8.438,-6.861C-8.918,-7.29 -9.787,-7.594 -11.042,-7.774L-12.587,-7.995L-13.83,1.034ZM-16.631,2.444L-11.569,3.169C-10.087,3.382 -8.88,3.263 -7.949,2.815C-7.018,2.369 -6.262,1.685 -5.682,0.766C-5.103,-0.149 -4.725,-1.232 -4.552,-2.479C-4.377,-3.752 -4.462,-4.876 -4.807,-5.841C-5.148,-6.808 -5.681,-7.58 -6.408,-8.156C-7.131,-8.731 -8.202,-9.12 -9.618,-9.323L-14.905,-10.079L-16.631,2.444ZM-22.315,1.864L-19.748,2.14L-18.451,-10.438L-21.018,-10.713L-22.315,1.864ZM-31.072,0.724L-28.49,0.954L-22.994,-11.25L-24.847,-11.415L-29.107,-1.972L-31.813,-12.037L-34.559,-12.281L-31.072,0.724ZM-44.063,-5.238L-40.22,-5.032L-41.881,-10.171L-44.063,-5.238ZM-48.124,-0.391L-46.248,-0.291L-44.79,-3.592L-39.667,-3.319L-38.555,0.12L-35.905,0.262L-40.074,-12.625L-42.66,-12.762L-48.124,-0.391ZM-54.535,-7.468L-54.049,-7.451C-53.103,-7.417 -52.397,-7.625 -51.936,-8.072C-51.476,-8.52 -51.234,-9.058 -51.213,-9.683C-51.201,-10.036 -51.262,-10.359 -51.391,-10.651C-51.522,-10.945 -51.729,-11.176 -52.017,-11.353C-52.306,-11.53 -52.773,-11.627 -53.422,-11.651L-54.391,-11.685L-54.535,-7.468ZM-57.295,-0.871L-54.764,-0.781L-54.595,-5.734L-53.542,-5.696C-52.075,-5.643 -50.894,-5.972 -49.994,-6.681C-49.096,-7.391 -48.622,-8.451 -48.573,-9.862C-48.549,-10.596 -48.657,-11.209 -48.893,-11.703C-49.134,-12.196 -49.502,-12.585 -49.996,-12.869C-50.491,-13.152 -51.358,-13.314 -52.598,-13.359L-56.861,-13.51L-57.295,-0.871ZM-72.873,-1.102L-70.844,-1.102L-70.844,-10.773L-67.876,-1.947L-65.799,-1.947L-62.772,-10.644L-62.772,-1.102L-60.392,-1.102L-60.392,-13.748L-63.39,-13.748L-66.468,-4.853L-69.46,-13.748L-72.873,-13.748L-72.873,-1.102ZM-78.564,-1.129L-75.983,-1.175L-76.2,-13.82L-78.78,-13.774L-78.564,-1.129ZM-94.551,-0.718C-93.212,-0.483 -92.041,-0.381 -91.039,-0.417C-89.35,-0.476 -88.131,-0.888 -87.38,-1.649C-86.632,-2.412 -86.275,-3.309 -86.311,-4.347C-86.336,-5.069 -86.544,-5.712 -86.936,-6.283C-87.333,-6.844 -88.228,-7.488 -89.624,-8.221L-90.537,-8.694C-91.329,-9.109 -91.827,-9.441 -92.027,-9.692C-92.233,-9.94 -92.342,-10.211 -92.353,-10.508C-92.367,-10.896 -92.214,-11.231 -91.898,-11.519C-91.581,-11.808 -91.112,-11.962 -90.489,-11.984C-89.736,-12.011 -88.711,-11.806 -87.413,-11.369L-87.483,-13.392C-88.744,-13.637 -89.873,-13.742 -90.87,-13.707C-92.209,-13.659 -93.221,-13.284 -93.913,-12.58C-94.601,-11.879 -94.931,-11.053 -94.898,-10.102C-94.873,-9.344 -94.635,-8.685 -94.186,-8.126C-93.747,-7.567 -92.917,-6.968 -91.698,-6.335L-90.847,-5.895C-90.054,-5.48 -89.553,-5.135 -89.346,-4.863C-89.136,-4.584 -89.025,-4.27 -89.013,-3.917C-88.997,-3.458 -89.161,-3.055 -89.507,-2.713C-89.853,-2.37 -90.385,-2.184 -91.111,-2.159C-91.511,-2.145 -91.953,-2.17 -92.433,-2.232C-92.913,-2.294 -93.645,-2.513 -94.625,-2.886L-94.551,-0.718ZM-107.459,-12.245L-106.929,-4.523C-106.829,-3.063 -106.543,-2.013 -106.066,-1.378C-105.591,-0.74 -104.975,-0.28 -104.217,0.008C-103.457,0.293 -102.566,0.399 -101.539,0.326C-100.497,0.251 -99.651,0.009 -98.993,-0.403C-98.338,-0.814 -97.854,-1.352 -97.538,-2.011C-97.222,-2.668 -97.114,-3.729 -97.214,-5.189L-97.745,-12.938L-99.985,-12.777L-99.443,-4.861C-99.355,-3.575 -99.512,-2.695 -99.912,-2.214C-100.312,-1.734 -100.879,-1.469 -101.609,-1.418C-102.351,-1.364 -102.969,-1.549 -103.465,-1.97C-103.963,-2.393 -104.26,-3.301 -104.355,-4.697L-104.886,-12.429L-107.459,-12.245ZM-115.276,1.112L-112.697,0.882L-113.63,-9.988L-109.204,-10.381L-109.353,-12.111L-120.784,-11.09L-120.635,-9.362L-116.209,-9.756L-115.276,1.112ZM-128.43,-4.248L-127.842,-4.321C-126.785,-4.454 -126.084,-4.78 -125.74,-5.299C-125.396,-5.818 -125.259,-6.376 -125.329,-6.969C-125.393,-7.484 -125.607,-7.872 -125.969,-8.133C-126.332,-8.395 -127.015,-8.463 -128.021,-8.337L-128.909,-8.225L-128.43,-4.248ZM-130.018,2.906L-127.604,2.604L-128.222,-2.526L-126.816,-2.702L-123.138,2.045L-120.018,1.654L-124.752,-3.701C-124.033,-4.14 -123.505,-4.715 -123.168,-5.418C-122.83,-6.125 -122.707,-6.845 -122.795,-7.58C-122.87,-8.197 -123.078,-8.729 -123.424,-9.183C-123.767,-9.636 -124.202,-9.952 -124.723,-10.131C-125.246,-10.309 -125.978,-10.342 -126.922,-10.223L-131.53,-9.646L-130.018,2.906ZM-135.712,3.929L-133.157,3.563L-134.883,-8.96L-137.438,-8.594L-135.712,3.929ZM-144.346,5.574L-141.793,5.116L-139.583,-8.122L-141.416,-7.794L-143.132,2.45L-148.3,-6.556L-151.016,-6.068L-144.346,5.574ZM-159.041,-14.536C-98.088,-28.2 -32.348,-24.969 15.795,-14.536L12.828,2.453C16.263,3.083 19.849,3.807 23.49,4.64L18.576,28.166C12.181,26.499 -7.395,23.037 -14.576,22.66L9.405,16.175L9.405,15.767C-37.738,5.896 -97.173,3.383 -153.364,15.913L-153.364,16.175L-129.226,22.652C-136.275,22.987 -156.093,26.487 -162.535,28.166L-167.448,4.64C-163.562,3.752 -159.74,2.986 -156.097,2.327L-159.041,-14.536Z" style="fill:rgb(162,25,32);"/>
        </g>
        <g transform="matrix(2.666667,0,0,2.666667,1293.0096,1265.0784)">
            <path d="M0,54.617C-4.329,54.646 -18.12,52.142 -18.193,43.1C-18.222,39.662 -15.313,36.433 -13.583,33.47C-2.913,19.31 3.109,12.82 -4.441,-0.392C-2.095,0.015 1.488,3.267 3.341,5.649C6.614,11.225 6.923,17.033 4.823,23.48C2.611,28.848 -4.632,35.553 -2.356,41.711C-0.23,47.465 7.198,47.922 4.784,41.876C3.536,38.755 1.995,38.447 2.968,34.844C4.535,29.042 12.082,21.695 8.776,14.71C16.385,19.006 11.715,30.722 12.433,32.767C12.833,34.467 18.71,39.636 18.272,43.14C17.197,51.73 7.122,55.009 0,54.617" style="fill:rgb(162,25,32);"/>
        </g>
        <g transform="matrix(2.666667,0,0,2.666667,1163.5752,1271.057067)">
            <path d="M0,54.616C-4.329,54.646 -18.12,52.141 -18.195,43.1C-18.222,39.662 -15.313,36.432 -13.583,33.47C-2.913,19.309 3.109,12.819 -4.443,-0.392C-2.095,0.014 1.487,3.267 3.34,5.648C6.614,11.224 6.923,17.033 4.823,23.48C2.61,28.847 -4.632,35.552 -2.357,41.71C-0.231,47.464 7.196,47.921 4.782,41.875C3.536,38.754 1.994,38.447 2.967,34.844C4.535,29.042 12.082,21.694 8.776,14.709C16.383,19.006 11.715,30.721 12.433,32.767C12.833,34.466 18.71,39.636 18.272,43.14C17.197,51.73 7.122,55.008 0,54.616" style="fill:rgb(162,25,32);"/>
        </g>
        <g transform="matrix(2.666667,0,0,2.666667,1422.444267,1271.057067)">
            <path d="M0,54.616C-4.329,54.646 -18.12,52.141 -18.193,43.1C-18.222,39.662 -15.313,36.432 -13.583,33.47C-2.913,19.309 3.11,12.819 -4.442,-0.392C-2.094,0.014 1.488,3.267 3.341,5.648C6.615,11.224 6.923,17.033 4.824,23.48C2.611,28.847 -4.631,35.552 -2.356,41.71C-0.23,47.464 7.198,47.921 4.784,41.875C3.537,38.754 1.995,38.447 2.968,34.844C4.536,29.042 12.082,21.694 8.776,14.709C16.385,19.006 11.716,30.721 12.434,32.767C12.834,34.466 18.71,39.636 18.272,43.14C17.197,51.73 7.123,55.008 0,54.616" style="fill:rgb(162,25,32);"/>
        </g>
        <g transform="matrix(2.666667,0,0,2.666667,1390.0512,1423.692267)">
            <path d="M0,11.946C3.682,11.161 8.198,10.925 12.561,11.078C16.924,11.23 21.412,11.78 25.03,12.82C30.397,9.641 31.083,3.516 25.557,0.885C21.458,0.051 17.098,-0.587 12.973,-0.731C8.847,-0.874 4.455,-0.542 0.307,0.003C-5.389,2.242 -5.132,8.401 0,11.946" style="fill:rgb(29,29,27);"/>
        </g>
        <g transform="matrix(2.666667,0,0,2.666667,1423.3128,1483.907733)">
            <path d="M0,-8.994C4.266,-8.845 8.797,-8.174 12.304,-6.963C12.288,-6.681 12.153,-3.227 12.026,0.149C3.87,-1.12 -4.347,-2.08 -12.584,-2.773C-12.501,-5.215 -12.419,-7.618 -12.416,-7.826C-8.834,-8.789 -4.266,-9.143 0,-8.994" style="fill:rgb(29,29,27);"/>
        </g>
        <g transform="matrix(2.666667,0,0,2.666667,1293.146667,1960.0472)">
            <path d="M0,20.249L-0.001,20.246L-0.003,20.249L-0.13,20.049C-4.093,13.914 -4.532,8.091 -4.95,2.571C-4.962,2.413 -4.973,1.385 -4.984,0.03C-1.648,0 1.675,0.012 4.979,0.062C4.969,1.401 4.958,2.414 4.947,2.571C4.531,8.091 4.09,13.914 0.127,20.049L0,20.249Z" style="fill:rgb(29,29,27);"/>
        </g>
        <g transform="matrix(2.666667,0,0,2.666667,1181.413333,1964.497867)">
            <path d="M0,20.967L-0.001,20.964L-0.003,20.967L-0.136,20.771C-4.312,14.779 -4.954,8.974 -5.563,3.471C-5.58,3.32 -5.624,2.348 -5.681,1.052C-2.368,0.656 0.945,0.307 4.256,0C4.301,1.637 4.335,2.947 4.327,3.127C4.104,8.657 3.867,14.493 0.12,20.762L0,20.967Z" style="fill:rgb(29,29,27);"/>
        </g>
        <g transform="matrix(2.666667,0,0,2.666667,1404.8728,1964.977867)">
            <path d="M0,20.787L-0.001,20.784L-0.003,20.787L-0.123,20.582C-3.868,14.313 -4.105,8.477 -4.329,2.947C-4.336,2.774 -4.305,1.552 -4.263,0C-0.919,0.315 2.392,0.669 5.67,1.058C5.617,2.26 5.577,3.147 5.561,3.291C4.952,8.794 4.309,14.599 0.135,20.591L0,20.787Z" style="fill:rgb(29,29,27);"/>
        </g>
        <g transform="matrix(2.666667,0,0,2.666667,1422.9488,2168.082667)">
            <path d="M0,-29.589L0,-19.618L14.069,-19.618L14.069,-13.198L0,-13.198L0,-0.438L19.3,-0.438L19.3,6.281L-7.562,6.281L-7.562,-36.308L19.627,-36.308L19.627,-29.589L0,-29.589ZM-34.939,-29.739L-34.939,-16.105C-33.659,-15.966 -32.646,-15.897 -31.913,-15.897C-28.459,-15.897 -25.949,-16.473 -24.351,-17.634C-22.763,-18.784 -21.97,-20.66 -21.97,-23.259C-21.97,-27.674 -25.533,-29.888 -32.637,-29.888C-33.43,-29.888 -34.205,-29.838 -34.939,-29.739M-34.939,-9.387L-34.939,6.281L-42.5,6.281L-42.5,-36.278C-37.46,-36.496 -34.512,-36.595 -33.659,-36.595C-26.93,-36.595 -22.018,-35.563 -18.904,-33.499C-15.797,-31.435 -14.24,-28.221 -14.24,-23.835C-14.24,-14.071 -19.995,-9.188 -31.506,-9.188C-32.36,-9.188 -33.501,-9.248 -34.939,-9.387M-69.679,-29.589L-69.679,-19.618L-54.705,-19.618L-54.705,-13.198L-69.679,-13.198L-69.679,6.281L-77.24,6.281L-77.24,-36.308L-49.179,-36.308L-49.179,-29.589L-69.679,-29.589ZM-117.586,-36.308L-110.025,-36.308L-110.025,-7.442C-110.025,-5.151 -109.33,-3.295 -107.931,-1.856C-106.532,-0.427 -104.617,0.288 -102.176,0.288C-99.437,0.288 -97.315,-0.407 -95.796,-1.817C-94.268,-3.225 -93.514,-5.14 -93.514,-7.581L-93.514,-36.308L-85.953,-36.308L-85.953,-7.006C-85.953,-2.619 -87.421,0.804 -90.358,3.283C-93.295,5.765 -97.215,7.006 -102.116,7.006C-107.058,7.006 -110.868,5.795 -113.558,3.374C-116.238,0.953 -117.586,-2.521 -117.586,-7.035L-117.586,-36.308Z" style="fill:rgb(29,29,27);"/>
        </g>
        <g transform="matrix(2.666667,0,0,2.666667,2187.088,1853.926933)">
            <path d="M0,-21.646L0,-12.818C1.041,-12.732 1.836,-12.688 2.386,-12.688C4.743,-12.688 6.467,-13.021 7.559,-13.686C8.65,-14.351 9.196,-15.645 9.196,-17.568C9.196,-19.13 8.611,-20.222 7.439,-20.844C6.268,-21.465 4.425,-21.776 1.909,-21.776C1.301,-21.776 0.665,-21.733 0,-21.646M12.059,5.227L3.579,-7.895C2.725,-7.909 1.533,-7.96 0,-8.047L0,5.227L-5.856,5.227L-5.856,-26.548C-5.538,-26.548 -4.316,-26.602 -2.191,-26.71C-0.065,-26.819 1.648,-26.873 2.95,-26.873C11.018,-26.873 15.052,-23.75 15.052,-17.503C15.052,-15.624 14.496,-13.91 13.382,-12.363C12.269,-10.816 10.866,-9.724 9.175,-9.088L18.566,5.227L12.059,5.227Z" style="fill:rgb(29,29,27);fill-rule:nonzero;"/>
        </g>
        <g transform="matrix(2.666667,0,0,2.666667,2258.865067,1854.506667)">
            <path d="M0,-21.755L0,-14.316L10.498,-14.316L10.498,-9.522L0,-9.522L0,-0.001L14.402,-0.001L14.402,5.01L-5.639,5.01L-5.639,-26.765L14.64,-26.765L14.64,-21.755L0,-21.755Z" style="fill:rgb(29,29,27);fill-rule:nonzero;"/>
        </g>
        <g transform="matrix(2.666667,0,0,2.666667,2307.159733,1787.817867)">
            <path d="M0,28.261L2.082,23.207C4.309,24.769 6.499,25.55 8.654,25.55C11.965,25.55 13.621,24.393 13.621,22.08C13.621,20.995 13.231,19.961 12.45,18.978C11.669,17.995 10.06,16.892 7.624,15.67C5.187,14.449 3.546,13.444 2.7,12.656C1.854,11.868 1.204,10.931 0.748,9.847C0.293,8.762 0.065,7.562 0.065,6.246C0.065,3.788 0.965,1.75 2.765,0.13C4.566,-1.489 6.876,-2.299 9.695,-2.299C13.368,-2.299 16.064,-1.612 17.785,-0.239L16.072,4.62C14.091,3.203 12.001,2.494 9.804,2.494C8.502,2.494 7.494,2.838 6.778,3.524C6.062,4.211 5.704,5.104 5.704,6.203C5.704,8.025 7.721,9.919 11.756,11.886C13.881,12.927 15.414,13.885 16.354,14.759C17.294,15.634 18.009,16.654 18.501,17.818C18.992,18.982 19.238,20.279 19.238,21.711C19.238,24.285 18.222,26.403 16.191,28.066C14.159,29.729 11.437,30.56 8.025,30.56C5.061,30.56 2.386,29.794 0,28.261" style="fill:rgb(29,29,27);fill-rule:nonzero;"/>
        </g>
        <g transform="matrix(2.666667,0,0,2.666667,2406.236267,1854.506667)">
            <path d="M0,-21.755L0,5.01L-5.639,5.01L-5.639,-21.755L-15.746,-21.755L-15.746,-26.765L10.563,-26.765L10.563,-21.755L0,-21.755Z" style="fill:rgb(29,29,27);fill-rule:nonzero;"/>
        </g>
        <g transform="matrix(2.666667,0,0,2.666667,2461.702933,1841.954133)">
            <path d="M0,-12.775L-3.817,-1.041L3.817,-1.041L0,-12.775ZM7.786,9.717L5.466,3.275L-5.422,3.275L-7.635,9.717L-13.903,9.717L-1.236,-22.492L1.236,-22.492L14.011,9.717L7.786,9.717Z" style="fill:rgb(29,29,27);fill-rule:nonzero;"/>
        </g>
        <g transform="matrix(2.666667,0,0,2.666667,2508.0312,1869.311467)">
            <path d="M0,-32.317L5.639,-32.317L5.639,-10.78C5.639,-9.073 6.16,-7.685 7.201,-6.615C8.242,-5.545 9.673,-5.01 11.495,-5.01C13.534,-5.01 15.121,-5.534 16.256,-6.583C17.391,-7.631 17.959,-9.066 17.959,-10.888L17.959,-32.317L23.598,-32.317L23.598,-10.454C23.598,-7.186 22.503,-4.627 20.312,-2.776C18.121,-0.925 15.197,0 11.539,0C7.852,0 5.007,-0.904 3.004,-2.711C1.001,-4.519 0,-7.107 0,-10.476L0,-32.317Z" style="fill:rgb(29,29,27);fill-rule:nonzero;"/>
        </g>
        <g transform="matrix(2.666667,0,0,2.666667,2603.9264,1853.926933)">
            <path d="M0,-21.646L0,-12.818C1.041,-12.732 1.836,-12.688 2.386,-12.688C4.743,-12.688 6.467,-13.021 7.559,-13.686C8.65,-14.351 9.196,-15.645 9.196,-17.568C9.196,-19.13 8.611,-20.222 7.439,-20.844C6.268,-21.465 4.425,-21.776 1.909,-21.776C1.301,-21.776 0.665,-21.733 0,-21.646M12.059,5.227L3.579,-7.895C2.725,-7.909 1.533,-7.96 0,-8.047L0,5.227L-5.856,5.227L-5.856,-26.548C-5.538,-26.548 -4.316,-26.602 -2.191,-26.71C-0.065,-26.819 1.648,-26.873 2.95,-26.873C11.018,-26.873 15.052,-23.75 15.052,-17.503C15.052,-15.624 14.496,-13.91 13.382,-12.363C12.269,-10.816 10.866,-9.724 9.175,-9.088L18.566,5.227L12.059,5.227Z" style="fill:rgb(29,29,27);fill-rule:nonzero;"/>
        </g>
        <g transform="matrix(2.666667,0,0,2.666667,2689.353333,1841.954133)">
            <path d="M0,-12.775L-3.817,-1.041L3.817,-1.041L0,-12.775ZM7.786,9.717L5.466,3.275L-5.422,3.275L-7.635,9.717L-13.903,9.717L-1.236,-22.492L1.236,-22.492L14.011,9.717L7.786,9.717Z" style="fill:rgb(29,29,27);fill-rule:nonzero;"/>
        </g>
        <g transform="matrix(2.666667,0,0,2.666667,2791.264,1783.131733)">
            <path d="M0,32.209L-15.421,12.103L-15.421,31.797L-20.843,31.797L-20.843,0L-18.132,0L-3.123,19.174L-3.123,0L2.299,0L2.299,32.209L0,32.209Z" style="fill:rgb(29,29,27);fill-rule:nonzero;"/>
        </g>
        <g transform="matrix(2.666667,0,0,2.666667,2849.217333,1854.506667)">
            <path d="M0,-21.755L0,5.01L-5.639,5.01L-5.639,-21.755L-15.746,-21.755L-15.746,-26.765L10.563,-26.765L10.563,-21.755L0,-21.755Z" style="fill:rgb(29,29,27);fill-rule:nonzero;"/>
        </g>
        <g transform="matrix(2.666667,0,0,2.666667,2902.2552,1854.506667)">
            <path d="M0,-21.755L0,-14.316L10.498,-14.316L10.498,-9.522L0,-9.522L0,-0.001L14.402,-0.001L14.402,5.01L-5.639,5.01L-5.639,-26.765L14.64,-26.765L14.64,-21.755L0,-21.755Z" style="fill:rgb(29,29,27);fill-rule:nonzero;"/>
        </g>
        <g transform="matrix(2.666667,0,0,2.666667,2171.471467,1990.292)">
            <path d="M0,-32.317L5.639,-32.317L5.639,-10.78C5.639,-9.073 6.16,-7.685 7.201,-6.615C8.242,-5.545 9.673,-5.01 11.495,-5.01C13.534,-5.01 15.121,-5.534 16.256,-6.583C17.391,-7.631 17.959,-9.066 17.959,-10.888L17.959,-32.317L23.598,-32.317L23.598,-10.454C23.598,-7.186 22.503,-4.627 20.312,-2.776C18.121,-0.925 15.197,0 11.539,0C7.852,0 5.007,-0.903 3.004,-2.711C1.001,-4.518 0,-7.107 0,-10.476L0,-32.317Z" style="fill:rgb(29,29,27);fill-rule:nonzero;"/>
        </g>
        <g transform="matrix(2.666667,0,0,2.666667,2307.333333,1904.112267)">
            <path d="M0,32.209L-15.421,12.103L-15.421,31.797L-20.843,31.797L-20.843,0L-18.132,0L-3.123,19.174L-3.123,0L2.299,0L2.299,32.209L0,32.209Z" style="fill:rgb(29,29,27);fill-rule:nonzero;"/>
        </g>
        <g transform="matrix(2.666667,0,0,2.666667,0,1012.957333)">
            <rect x="874.164" y="334.183" width="5.639" height="31.775" style="fill:rgb(29,29,27);"/>
        </g>
        <g transform="matrix(2.666667,0,0,2.666667,2395.362667,1904.112267)">
            <path d="M0,32.209L-3.102,32.209L-14.987,0L-8.784,0L-1.432,21.473L6.333,0L12.406,0L0,32.209Z" style="fill:rgb(29,29,27);fill-rule:nonzero;"/>
        </g>
        <g transform="matrix(2.666667,0,0,2.666667,2452.4488,1975.4872)">
            <path d="M0,-21.755L0,-14.316L10.498,-14.316L10.498,-9.522L0,-9.522L0,-0.001L14.402,-0.001L14.402,5.01L-5.639,5.01L-5.639,-26.765L14.64,-26.765L14.64,-21.755L0,-21.755Z" style="fill:rgb(29,29,27);fill-rule:nonzero;"/>
        </g>
        <g transform="matrix(2.666667,0,0,2.666667,2520.408267,1974.907467)">
            <path d="M0,-21.646L0,-12.818C1.041,-12.732 1.836,-12.688 2.386,-12.688C4.743,-12.688 6.467,-13.021 7.559,-13.686C8.65,-14.351 9.196,-15.645 9.196,-17.568C9.196,-19.13 8.611,-20.222 7.439,-20.844C6.268,-21.465 4.425,-21.776 1.909,-21.776C1.301,-21.776 0.665,-21.733 0,-21.646M12.059,5.227L3.579,-7.895C2.725,-7.909 1.533,-7.96 0,-8.047L0,5.227L-5.856,5.227L-5.856,-26.548C-5.538,-26.548 -4.316,-26.602 -2.191,-26.71C-0.065,-26.819 1.648,-26.873 2.95,-26.873C11.018,-26.873 15.052,-23.75 15.052,-17.503C15.052,-15.624 14.496,-13.91 13.382,-12.363C12.269,-10.816 10.866,-9.724 9.175,-9.088L18.566,5.227L12.059,5.227Z" style="fill:rgb(29,29,27);fill-rule:nonzero;"/>
        </g>
        <g transform="matrix(2.666667,0,0,2.666667,2573.098667,1908.798667)">
            <path d="M0,28.261L2.082,23.207C4.309,24.769 6.499,25.55 8.654,25.55C11.965,25.55 13.621,24.393 13.621,22.08C13.621,20.995 13.231,19.961 12.45,18.978C11.669,17.995 10.06,16.892 7.624,15.67C5.187,14.449 3.546,13.444 2.7,12.656C1.854,11.868 1.204,10.931 0.748,9.847C0.293,8.762 0.065,7.562 0.065,6.246C0.065,3.788 0.965,1.75 2.765,0.13C4.566,-1.489 6.876,-2.299 9.695,-2.299C13.368,-2.299 16.064,-1.612 17.785,-0.239L16.072,4.62C14.091,3.203 12.001,2.494 9.804,2.494C8.502,2.494 7.494,2.838 6.778,3.524C6.062,4.211 5.704,5.104 5.704,6.203C5.704,8.025 7.721,9.919 11.756,11.886C13.881,12.927 15.414,13.885 16.354,14.759C17.294,15.634 18.009,16.654 18.501,17.818C18.992,18.982 19.238,20.279 19.238,21.711C19.238,24.285 18.222,26.403 16.191,28.066C14.159,29.729 11.437,30.56 8.025,30.56C5.061,30.56 2.386,29.794 0,28.261" style="fill:rgb(29,29,27);fill-rule:nonzero;"/>
        </g>
        <g transform="matrix(2.666667,0,0,2.666667,0,1012.957333)">
            <rect x="989.247" y="334.183" width="5.639" height="31.775" style="fill:rgb(29,29,27);"/>
        </g>
        <g transform="matrix(2.666667,0,0,2.666667,2705.142933,1975.4872)">
            <path d="M0,-21.755L0,5.01L-5.639,5.01L-5.639,-21.755L-15.746,-21.755L-15.746,-26.765L10.563,-26.765L10.563,-21.755L0,-21.755Z" style="fill:rgb(29,29,27);fill-rule:nonzero;"/>
        </g>
        <g transform="matrix(2.666667,0,0,2.666667,2788.661067,1988.8448)">
            <path d="M0,-40.732L-4.902,-34.377L-9.023,-34.377L-5.357,-40.732L0,-40.732ZM-6.312,-22.491L-10.129,-10.757L-2.494,-10.757L-6.312,-22.491ZM1.475,0L-0.846,-6.441L-11.734,-6.441L-13.946,0L-20.214,0L-7.548,-32.208L-5.075,-32.208L7.7,0L1.475,0Z" style="fill:rgb(29,29,27);fill-rule:nonzero;"/>
        </g>
        <g transform="matrix(2.666667,0,0,2.666667,2833.774667,1974.907467)">
            <path d="M0,-21.646L0,-12.818C1.041,-12.732 1.836,-12.688 2.386,-12.688C4.743,-12.688 6.467,-13.021 7.559,-13.686C8.65,-14.351 9.196,-15.645 9.196,-17.568C9.196,-19.13 8.611,-20.222 7.439,-20.844C6.268,-21.465 4.425,-21.776 1.909,-21.776C1.301,-21.776 0.665,-21.733 0,-21.646M12.059,5.227L3.579,-7.895C2.725,-7.909 1.533,-7.96 0,-8.047L0,5.227L-5.856,5.227L-5.856,-26.548C-5.538,-26.548 -4.316,-26.602 -2.191,-26.71C-0.065,-26.819 1.648,-26.873 2.95,-26.873C11.018,-26.873 15.052,-23.75 15.052,-17.503C15.052,-15.624 14.496,-13.91 13.382,-12.363C12.269,-10.816 10.866,-9.724 9.175,-9.088L18.566,5.227L12.059,5.227Z" style="fill:rgb(29,29,27);fill-rule:nonzero;"/>
        </g>
        <g transform="matrix(2.666667,0,0,2.666667,0,1012.957333)">
            <rect x="1084.051" y="334.183" width="5.639" height="31.775" style="fill:rgb(29,29,27);"/>
        </g>
        <g transform="matrix(2.666667,0,0,2.666667,2935.0496,1947.146133)">
            <path d="M0,-0.521C0,3.195 0.629,6.073 1.887,8.111C3.145,10.15 4.974,11.169 7.374,11.169C10.194,11.169 12.345,10.172 13.827,8.176C15.309,6.181 16.05,3.282 16.05,-0.521C16.05,-7.968 13.303,-11.691 7.808,-11.691C5.292,-11.691 3.362,-10.682 2.017,-8.665C0.672,-6.648 0,-3.933 0,-0.521M-5.856,-0.521C-5.856,-5.047 -4.616,-8.875 -2.136,-12.005C0.343,-15.136 3.658,-16.701 7.808,-16.701C12.377,-16.701 15.869,-15.284 18.284,-12.45C20.699,-9.616 21.906,-5.64 21.906,-0.521C21.906,4.598 20.645,8.661 18.121,11.668C15.598,14.676 12.016,16.18 7.374,16.18C3.109,16.18 -0.163,14.691 -2.44,11.712C-4.718,8.733 -5.856,4.656 -5.856,-0.521" style="fill:rgb(29,29,27);fill-rule:nonzero;"/>
        </g>
        <g transform="matrix(2.666667,0,0,2.666667,0,0)">
            <clipPath id="_clip1">
                <path d="M634.512,683.209C634.512,692.415 637.949,700.818 643.611,707.205L643.611,755.791L661.722,755.791L661.703,719.59L697.904,755.791L715.897,755.791L715.897,742.196L688.45,714.749C699.453,708.542 706.884,696.744 706.884,683.209C706.884,663.224 690.682,647.023 670.698,647.023C650.713,647.023 634.512,663.224 634.512,683.209ZM652.623,683.15C652.623,673.167 660.715,665.074 670.698,665.074C680.681,665.074 688.773,673.167 688.773,683.15C688.773,693.132 680.681,701.224 670.698,701.224C660.715,701.224 652.623,693.132 652.623,683.15Z" clip-rule="nonzero"/>
            </clipPath>
            <g clip-path="url(#_clip1)">
                <g transform="matrix(-1,0,0,1,1426.947,388.053)">
                    <rect x="683.036" y="315.536" width="60.875" height="60.875" style="fill:rgb(224,80,94);"/>
                </g>
                <g transform="matrix(-1,0,0,1,1305.197,266.303)">
                    <rect x="622.161" y="376.411" width="60.875" height="60.875" style="fill:rgb(162,25,32);"/>
                </g>
                <g transform="matrix(-1,0,0,1,1305.197,388.053)">
                    <rect x="622.161" y="315.536" width="60.875" height="60.875" style="fill:rgb(63,78,82);"/>
                </g>
                <g transform="matrix(-1,0,0,1,1426.947,266.303)">
                    <rect x="683.036" y="376.411" width="60.875" height="60.875" style="fill:rgb(109,122,127);"/>
                </g>
                <g transform="matrix(-0.707107,0.707107,0.707107,0.707107,756.560789,673.081459)">
                    <path d="M30.517,-73.462C27.835,-70.856 11.086,-54.017 12.208,-27.841C13.197,-4.817 27.331,9.543 30.517,12.628L73.562,-30.417L30.517,-73.462Z" style="fill:rgb(92,192,238);fill-rule:nonzero;"/>
                </g>
                <g transform="matrix(1,0,0,1,622.1615,703.5892)">
                    <path d="M0,-60.875L60.875,0L0,0L0,-60.875Z" style="fill:rgb(224,80,94);fill-rule:nonzero;"/>
                </g>
                <g transform="matrix(1,0,0,1,683.0612,764.464)">
                    <path d="M0,-60.875L-0.001,-60.875C-16.811,-60.875 -30.439,-47.248 -30.439,-30.438C-30.439,-13.628 -16.811,0 -0.001,0L0,0L0,-60.875Z" style="fill:rgb(111,145,54);fill-rule:nonzero;"/>
                </g>
                <g transform="matrix(1,0,0,1,683.0612,764.464)">
                    <path d="M0,-60.875L0,0C16.81,-0.001 30.436,-13.628 30.436,-30.438C30.436,-47.247 16.81,-60.874 0,-60.875" style="fill:rgb(242,179,25);fill-rule:nonzero;"/>
                </g>
            </g>
        </g>
        <g transform="matrix(2.666667,0,0,2.666667,0,0)">
            <clipPath id="_clip2">
                <path d="M715.988,648.85L715.988,721.398C715.979,741.24 732.294,757.57 752.121,757.584C771.968,757.598 788.313,741.258 788.303,721.398L788.303,649.034L770.189,649.034L770.189,721.395C770.102,731.251 761.972,739.31 752.121,739.314C742.265,739.319 734.125,731.257 734.037,721.395L734.037,648.85L715.988,648.85Z" clip-rule="nonzero"/>
            </clipPath>
            <g clip-path="url(#_clip2)">
                <g transform="matrix(-1,0,0,1,1426.947,388.053)">
                    <rect x="683.036" y="315.536" width="60.875" height="60.875" style="fill:rgb(224,80,94);"/>
                </g>
                <g transform="matrix(-1,0,0,1,1426.947,266.303)">
                    <rect x="683.036" y="376.411" width="60.875" height="60.875" style="fill:rgb(109,122,127);"/>
                </g>
                <g transform="matrix(-1,0,0,1,1548.697,266.303)">
                    <rect x="743.911" y="376.411" width="60.875" height="60.875" style="fill:rgb(239,123,29);"/>
                </g>
                <g transform="matrix(-1,0,0,1,1548.697,388.053)">
                    <rect x="743.911" y="315.536" width="60.875" height="60.875" style="fill:rgb(92,192,238);"/>
                </g>
                <g transform="matrix(1,0,0,1,743.911,764.464)">
                    <path d="M0,-60.875L60.875,0L0,0L0,-60.875Z" style="fill:rgb(74,94,37);fill-rule:nonzero;"/>
                </g>
                <g transform="matrix(1,0,0,1,804.7858,703.5892)">
                    <path d="M0,-60.875L-60.875,0L-60.875,-60.875L0,-60.875Z" style="fill:rgb(242,179,25);fill-rule:nonzero;"/>
                </g>
                <g transform="matrix(-0.707107,0.707107,0.707107,0.707107,756.560789,673.081459)">
                    <path d="M30.517,-73.462C27.835,-70.856 11.086,-54.017 12.208,-27.841C13.197,-4.817 27.331,9.543 30.517,12.628L73.562,-30.417L30.517,-73.462Z" style="fill:rgb(92,192,238);fill-rule:nonzero;"/>
                </g>
            </g>
        </g>
    </g>
</svg>
