<?xml version="1.0" encoding="UTF-8" standalone="no"?>
<!DOCTYPE svg PUBLIC "-//W3C//DTD SVG 1.1//EN" "http://www.w3.org/Graphics/SVG/1.1/DTD/svg11.dtd">
<svg width="100%" height="100%" viewBox="0 0 2368 577" version="1.1" xmlns="http://www.w3.org/2000/svg" xmlns:xlink="http://www.w3.org/1999/xlink" xml:space="preserve" xmlns:serif="http://www.serif.com/" style="fill-rule:evenodd;clip-rule:evenodd;stroke-linejoin:round;stroke-miterlimit:2;">
    <g transform="matrix(1,0,0,1,-816.533333,-1440.108357)">
        <g transform="matrix(2.666667,0,0,2.666667,1753.287467,1688.556)">
            <path d="M0,-38.404L0,-22.742C1.847,-22.588 3.258,-22.511 4.233,-22.511C8.414,-22.511 11.473,-23.101 13.411,-24.282C15.347,-25.461 16.316,-27.757 16.316,-31.17C16.316,-33.94 15.277,-35.877 13.199,-36.98C11.121,-38.083 7.85,-38.635 3.386,-38.635C2.309,-38.635 1.18,-38.558 0,-38.404M21.395,9.274L6.349,-14.007C4.835,-14.032 2.719,-14.123 0,-14.277L0,9.274L-10.39,9.274L-10.39,-47.101C-9.826,-47.101 -7.658,-47.197 -3.887,-47.389C-0.115,-47.582 2.924,-47.678 5.233,-47.678C19.548,-47.678 26.706,-42.137 26.706,-31.054C26.706,-27.719 25.718,-24.679 23.743,-21.934C21.767,-19.189 19.279,-17.252 16.277,-16.124L32.94,9.274L21.395,9.274Z" style="fill:rgb(29,29,27);fill-rule:nonzero;"/>
        </g>
        <g transform="matrix(2.666667,0,0,2.666667,1880.633067,1689.581067)">
            <path d="M0,-38.596L0,-25.397L18.625,-25.397L18.625,-16.893L0,-16.893L0,0L25.551,0L25.551,8.889L-10.005,8.889L-10.005,-47.485L25.974,-47.485L25.974,-38.596L0,-38.596Z" style="fill:rgb(29,29,27);fill-rule:nonzero;"/>
        </g>
        <g transform="matrix(2.666667,0,0,2.666667,1966.3168,1571.267467)">
            <path d="M0,50.14L3.694,41.174C7.644,43.945 11.531,45.33 15.354,45.33C21.228,45.33 24.166,43.278 24.166,39.173C24.166,37.249 23.473,35.415 22.088,33.67C20.703,31.926 17.848,29.97 13.526,27.802C9.203,25.634 6.292,23.852 4.791,22.453C3.29,21.055 2.136,19.394 1.328,17.47C0.52,15.546 0.115,13.417 0.115,11.082C0.115,6.721 1.712,3.104 4.906,0.23C8.1,-2.642 12.198,-4.079 17.201,-4.079C23.717,-4.079 28.501,-2.861 31.554,-0.424L28.514,8.196C24.999,5.682 21.293,4.425 17.393,4.425C15.084,4.425 13.295,5.034 12.025,6.253C10.755,7.471 10.12,9.056 10.12,11.005C10.12,14.237 13.699,17.598 20.857,21.087C24.628,22.934 27.347,24.634 29.015,26.186C30.682,27.738 31.952,29.547 32.824,31.611C33.696,33.677 34.132,35.979 34.132,38.519C34.132,43.085 32.33,46.844 28.726,49.794C25.121,52.744 20.292,54.219 14.238,54.219C8.979,54.219 4.233,52.859 0,50.14" style="fill:rgb(29,29,27);fill-rule:nonzero;"/>
        </g>
        <g transform="matrix(2.666667,0,0,2.666667,2142.097067,1689.581067)">
            <path d="M0,-38.596L0,8.889L-10.005,8.889L-10.005,-38.596L-27.937,-38.596L-27.937,-47.485L18.74,-47.485L18.74,-38.596L0,-38.596Z" style="fill:rgb(29,29,27);fill-rule:nonzero;"/>
        </g>
        <g transform="matrix(2.666667,0,0,2.666667,2240.505333,1667.316267)">
            <path d="M0,-22.666L-6.773,-1.848L6.773,-1.848L0,-22.666ZM13.815,17.239L9.697,5.81L-9.62,5.81L-13.545,17.239L-24.666,17.239L-2.193,-39.905L2.193,-39.905L24.859,17.239L13.815,17.239Z" style="fill:rgb(29,29,27);fill-rule:nonzero;"/>
        </g>
        <g transform="matrix(2.666667,0,0,2.666667,2322.700267,1715.8504)">
            <path d="M0,-57.336L10.005,-57.336L10.005,-19.125C10.005,-16.097 10.929,-13.634 12.776,-11.736C14.623,-9.838 17.162,-8.889 20.395,-8.889C24.012,-8.889 26.827,-9.818 28.841,-11.679C30.855,-13.538 31.862,-16.085 31.862,-19.317L31.862,-57.336L41.867,-57.336L41.867,-18.547C41.867,-12.749 39.924,-8.209 36.037,-4.925C32.151,-1.641 26.962,0 20.472,0C13.93,0 8.882,-1.603 5.33,-4.81C1.776,-8.016 0,-12.608 0,-18.586L0,-57.336Z" style="fill:rgb(29,29,27);fill-rule:nonzero;"/>
        </g>
        <g transform="matrix(2.666667,0,0,2.666667,2492.836533,1688.556)">
            <path d="M0,-38.404L0,-22.742C1.847,-22.588 3.258,-22.511 4.233,-22.511C8.414,-22.511 11.473,-23.101 13.411,-24.282C15.347,-25.461 16.316,-27.757 16.316,-31.17C16.316,-33.94 15.277,-35.877 13.199,-36.98C11.121,-38.083 7.85,-38.635 3.386,-38.635C2.309,-38.635 1.18,-38.558 0,-38.404M21.395,9.274L6.349,-14.007C4.835,-14.032 2.719,-14.123 0,-14.277L0,9.274L-10.39,9.274L-10.39,-47.101C-9.826,-47.101 -7.658,-47.197 -3.887,-47.389C-0.115,-47.582 2.925,-47.678 5.233,-47.678C19.548,-47.678 26.706,-42.137 26.706,-31.054C26.706,-27.719 25.718,-24.679 23.743,-21.934C21.767,-19.189 19.279,-17.252 16.277,-16.124L32.94,9.274L21.395,9.274Z" style="fill:rgb(29,29,27);fill-rule:nonzero;"/>
        </g>
        <g transform="matrix(2.666667,0,0,2.666667,2644.399467,1667.316267)">
            <path d="M0,-22.666L-6.773,-1.848L6.773,-1.848L0,-22.666ZM13.815,17.239L9.697,5.81L-9.62,5.81L-13.545,17.239L-24.666,17.239L-2.193,-39.905L2.193,-39.905L24.859,17.239L13.815,17.239Z" style="fill:rgb(29,29,27);fill-rule:nonzero;"/>
        </g>
        <g transform="matrix(2.666667,0,0,2.666667,2825.207733,1562.954133)">
            <path d="M0,57.144L-27.36,21.472L-27.36,56.413L-36.98,56.413L-36.98,0L-32.17,0L-5.541,34.017L-5.541,0L4.079,0L4.079,57.144L0,57.144Z" style="fill:rgb(29,29,27);fill-rule:nonzero;"/>
        </g>
        <g transform="matrix(2.666667,0,0,2.666667,2928.028267,1689.581067)">
            <path d="M0,-38.596L0,8.889L-10.005,8.889L-10.005,-38.596L-27.937,-38.596L-27.937,-47.485L18.74,-47.485L18.74,-38.596L0,-38.596Z" style="fill:rgb(29,29,27);fill-rule:nonzero;"/>
        </g>
        <g transform="matrix(2.666667,0,0,2.666667,3022.126667,1689.581067)">
            <path d="M0,-38.596L0,-25.397L18.625,-25.397L18.625,-16.893L0,-16.893L0,0L25.551,0L25.551,8.889L-10.005,8.889L-10.005,-47.485L25.975,-47.485L25.975,-38.596L0,-38.596Z" style="fill:rgb(29,29,27);fill-rule:nonzero;"/>
        </g>
        <g transform="matrix(2.666667,0,0,2.666667,1725.581333,1930.492267)">
            <path d="M0,-57.336L10.005,-57.336L10.005,-19.125C10.005,-16.097 10.929,-13.634 12.776,-11.736C14.623,-9.838 17.162,-8.889 20.395,-8.889C24.012,-8.889 26.827,-9.818 28.841,-11.679C30.855,-13.538 31.862,-16.085 31.862,-19.317L31.862,-57.336L41.867,-57.336L41.867,-18.547C41.867,-12.749 39.924,-8.209 36.037,-4.925C32.151,-1.641 26.962,0 20.472,0C13.93,0 8.882,-1.603 5.33,-4.81C1.776,-8.016 0,-12.608 0,-18.586L0,-57.336Z" style="fill:rgb(29,29,27);fill-rule:nonzero;"/>
        </g>
        <g transform="matrix(2.666667,0,0,2.666667,1966.6248,1777.596267)">
            <path d="M0,57.144L-27.36,21.472L-27.36,56.413L-36.98,56.413L-36.98,0L-32.17,0L-5.541,34.017L-5.541,0L4.079,0L4.079,57.144L0,57.144Z" style="fill:rgb(29,29,27);fill-rule:nonzero;"/>
        </g>
        <g transform="matrix(2.666667,0,0,2.666667,0,825.525333)">
            <rect x="753.3" y="357.027" width="10.005" height="56.374" style="fill:rgb(29,29,27);"/>
        </g>
        <g transform="matrix(2.666667,0,0,2.666667,2122.8056,1777.596267)">
            <path d="M0,57.144L-5.503,57.144L-26.59,0L-15.585,0L-2.54,38.096L11.236,0L22.011,0L0,57.144Z" style="fill:rgb(29,29,27);fill-rule:nonzero;"/>
        </g>
        <g transform="matrix(2.666667,0,0,2.666667,2224.086933,1904.222933)">
            <path d="M0,-38.596L0,-25.397L18.625,-25.397L18.625,-16.893L0,-16.893L0,0L25.551,0L25.551,8.889L-10.005,8.889L-10.005,-47.485L25.975,-47.485L25.975,-38.596L0,-38.596Z" style="fill:rgb(29,29,27);fill-rule:nonzero;"/>
        </g>
        <g transform="matrix(2.666667,0,0,2.666667,2344.659733,1903.197867)">
            <path d="M0,-38.404L0,-22.742C1.847,-22.588 3.258,-22.511 4.233,-22.511C8.414,-22.511 11.473,-23.101 13.411,-24.282C15.347,-25.461 16.316,-27.757 16.316,-31.17C16.316,-33.94 15.277,-35.877 13.199,-36.98C11.121,-38.083 7.85,-38.635 3.386,-38.635C2.309,-38.635 1.18,-38.558 0,-38.404M21.395,9.274L6.349,-14.007C4.835,-14.032 2.719,-14.123 0,-14.277L0,9.274L-10.39,9.274L-10.39,-47.101C-9.826,-47.101 -7.658,-47.197 -3.887,-47.389C-0.115,-47.582 2.925,-47.678 5.233,-47.678C19.548,-47.678 26.706,-42.137 26.706,-31.054C26.706,-27.719 25.718,-24.679 23.743,-21.934C21.767,-19.189 19.279,-17.252 16.277,-16.124L32.94,9.274L21.395,9.274Z" style="fill:rgb(29,29,27);fill-rule:nonzero;"/>
        </g>
        <g transform="matrix(2.666667,0,0,2.666667,2438.142667,1785.909333)">
            <path d="M0,50.14L3.694,41.174C7.644,43.945 11.531,45.33 15.354,45.33C21.228,45.33 24.166,43.278 24.166,39.173C24.166,37.249 23.473,35.415 22.088,33.67C20.703,31.926 17.848,29.97 13.526,27.802C9.203,25.634 6.292,23.852 4.791,22.453C3.29,21.055 2.136,19.394 1.328,17.47C0.519,15.546 0.115,13.417 0.115,11.082C0.115,6.721 1.712,3.104 4.906,0.23C8.1,-2.642 12.198,-4.079 17.201,-4.079C23.717,-4.079 28.501,-2.861 31.554,-0.424L28.514,8.196C24.999,5.682 21.292,4.425 17.393,4.425C15.084,4.425 13.295,5.034 12.025,6.253C10.755,7.471 10.12,9.056 10.12,11.005C10.12,14.237 13.699,17.598 20.857,21.087C24.628,22.934 27.347,24.634 29.014,26.186C30.682,27.738 31.952,29.547 32.824,31.611C33.696,33.677 34.132,35.979 34.132,38.519C34.132,43.085 32.33,46.844 28.726,49.794C25.121,52.744 20.292,54.219 14.238,54.219C8.979,54.219 4.233,52.859 0,50.14" style="fill:rgb(29,29,27);fill-rule:nonzero;"/>
        </g>
        <g transform="matrix(2.666667,0,0,2.666667,0,825.525333)">
            <rect x="957.479" y="357.027" width="10.005" height="56.374" style="fill:rgb(29,29,27);"/>
        </g>
        <g transform="matrix(2.666667,0,0,2.666667,2672.4136,1904.222933)">
            <path d="M0,-38.596L0,8.889L-10.005,8.889L-10.005,-38.596L-27.937,-38.596L-27.937,-47.485L18.74,-47.485L18.74,-38.596L0,-38.596Z" style="fill:rgb(29,29,27);fill-rule:nonzero;"/>
        </g>
        <g transform="matrix(2.666667,0,0,2.666667,2820.589867,1927.928267)">
            <path d="M0,-72.267L-8.697,-60.992L-16.008,-60.992L-9.505,-72.267L0,-72.267ZM-11.198,-39.905L-17.97,-19.087L-4.425,-19.087L-11.198,-39.905ZM2.617,0L-1.501,-11.429L-20.818,-11.429L-24.743,0L-35.864,0L-13.391,-57.144L-9.004,-57.144L13.661,0L2.617,0Z" style="fill:rgb(29,29,27);fill-rule:nonzero;"/>
        </g>
        <g transform="matrix(2.666667,0,0,2.666667,2900.629867,1903.197867)">
            <path d="M0,-38.404L0,-22.742C1.847,-22.588 3.258,-22.511 4.233,-22.511C8.414,-22.511 11.473,-23.101 13.411,-24.282C15.347,-25.461 16.316,-27.757 16.316,-31.17C16.316,-33.94 15.277,-35.877 13.199,-36.98C11.121,-38.083 7.85,-38.635 3.386,-38.635C2.309,-38.635 1.18,-38.558 0,-38.404M21.395,9.274L6.349,-14.007C4.835,-14.032 2.719,-14.123 0,-14.277L0,9.274L-10.39,9.274L-10.39,-47.101C-9.826,-47.101 -7.658,-47.197 -3.886,-47.389C-0.115,-47.582 2.925,-47.678 5.234,-47.678C19.548,-47.678 26.706,-42.137 26.706,-31.054C26.706,-27.719 25.718,-24.679 23.743,-21.934C21.767,-19.189 19.279,-17.252 16.277,-16.124L32.94,9.274L21.395,9.274Z" style="fill:rgb(29,29,27);fill-rule:nonzero;"/>
        </g>
        <g transform="matrix(2.666667,0,0,2.666667,0,825.525333)">
            <rect x="1125.678" y="357.027" width="10.005" height="56.374" style="fill:rgb(29,29,27);"/>
        </g>
        <g transform="matrix(2.666667,0,0,2.666667,3080.3096,1853.940533)">
            <path d="M0,-0.923C0,5.67 1.116,10.775 3.348,14.392C5.58,18.01 8.825,19.818 13.083,19.818C18.086,19.818 21.902,18.048 24.531,14.508C27.161,10.968 28.476,5.824 28.476,-0.923C28.476,-14.135 23.601,-20.741 13.853,-20.741C9.389,-20.741 5.965,-18.951 3.579,-15.373C1.193,-11.794 0,-6.977 0,-0.923M-10.39,-0.923C-10.39,-8.952 -8.19,-15.744 -3.79,-21.299C0.609,-26.852 6.49,-29.63 13.853,-29.63C21.959,-29.63 28.155,-27.115 32.439,-22.087C36.723,-17.059 38.866,-10.004 38.866,-0.923C38.866,8.158 36.627,15.368 32.151,20.703C27.674,26.039 21.318,28.707 13.083,28.707C5.516,28.707 -0.289,26.065 -4.329,20.78C-8.37,15.496 -10.39,8.261 -10.39,-0.923" style="fill:rgb(29,29,27);fill-rule:nonzero;"/>
        </g>
        <g transform="matrix(2.666667,0,0,2.666667,0,0)">
            <clipPath id="_clip1">
                <path d="M328.111,611.894C328.111,628.227 334.21,643.136 344.256,654.466L344.256,740.668L376.389,740.668L376.354,676.44L440.581,740.668L472.504,740.668L472.504,716.548L423.807,667.851C443.33,656.839 456.513,635.907 456.513,611.894C456.513,576.437 427.77,547.693 392.313,547.693C356.855,547.693 328.111,576.437 328.111,611.894ZM360.244,611.789C360.244,594.078 374.602,579.721 392.313,579.721C410.024,579.721 424.381,594.078 424.381,611.789C424.381,629.5 410.024,643.857 392.313,643.857C374.602,643.857 360.244,629.5 360.244,611.789Z" clip-rule="nonzero"/>
            </clipPath>
            <g clip-path="url(#_clip1)">
                <g transform="matrix(-1,0,0,1,936.409,324.107)">
                    <rect x="414.203" y="323.945" width="108.003" height="108.003" style="fill:rgb(224,80,94);"/>
                </g>
                <g transform="matrix(-1,0,0,1,720.403,108.101)">
                    <rect x="306.2" y="431.948" width="108.003" height="108.003" style="fill:rgb(162,25,32);"/>
                </g>
                <g transform="matrix(-1,0,0,1,720.403,324.107)">
                    <rect x="306.2" y="323.945" width="108.003" height="108.003" style="fill:rgb(63,78,82);"/>
                </g>
                <g transform="matrix(-1,0,0,1,936.409,108.101)">
                    <rect x="414.203" y="431.948" width="108.003" height="108.003" style="fill:rgb(109,122,127);"/>
                </g>
                <g transform="matrix(-0.707107,0.707107,0.707107,0.707107,544.648867,593.925718)">
                    <path d="M54.142,-130.335C49.386,-125.712 19.668,-95.836 21.66,-49.395C23.413,-8.545 48.49,16.93 54.142,22.404L130.512,-53.966L54.142,-130.335Z" style="fill:rgb(92,192,238);fill-rule:nonzero;"/>
                </g>
                <g transform="matrix(1,0,0,1,306.2004,648.052)">
                    <path d="M0,-108.003L108.003,0L0,0L0,-108.003Z" style="fill:rgb(224,80,94);fill-rule:nonzero;"/>
                </g>
                <g transform="matrix(1,0,0,1,414.2477,756.0551)">
                    <path d="M0,-108.003L-0.002,-108.003C-29.826,-108.003 -54.004,-83.826 -54.004,-54.002L-54.004,-54.001C-54.004,-24.177 -29.826,0 -0.002,0L0,0L0,-108.003Z" style="fill:rgb(111,145,54);fill-rule:nonzero;"/>
                </g>
                <g transform="matrix(0,1,1,0,495.2492,675.0536)">
                    <path d="M-27.002,-81.001L81.001,-81.001C81,-51.178 56.823,-27.001 27.001,-27.001L26.999,-27.001C-2.823,-27.001 -27,-51.178 -27.002,-81.001" style="fill:rgb(242,179,25);fill-rule:nonzero;"/>
                </g>
            </g>
        </g>
        <g transform="matrix(2.666667,0,0,2.666667,0,0)">
            <clipPath id="_clip2">
                <path d="M472.667,550.933L472.667,679.648C472.648,714.851 501.595,743.826 536.773,743.849C571.983,743.873 600.983,714.884 600.966,679.648L600.966,551.263L568.83,551.263L568.83,679.645C568.673,697.129 554.251,711.428 536.773,711.436C519.285,711.443 504.845,697.14 504.689,679.645L504.689,550.933L472.667,550.933Z" clip-rule="nonzero"/>
            </clipPath>
            <g clip-path="url(#_clip2)">
                <g transform="matrix(-1,0,0,1,936.409,324.107)">
                    <rect x="414.203" y="323.945" width="108.003" height="108.003" style="fill:rgb(224,80,94);"/>
                </g>
                <g transform="matrix(-1,0,0,1,936.409,108.101)">
                    <rect x="414.203" y="431.948" width="108.003" height="108.003" style="fill:rgb(109,122,127);"/>
                </g>
                <g transform="matrix(-1,0,0,1,1152.417,108.101)">
                    <rect x="522.207" y="431.948" width="108.003" height="108.003" style="fill:rgb(239,123,29);"/>
                </g>
                <g transform="matrix(-1,0,0,1,1152.417,324.107)">
                    <rect x="522.207" y="323.945" width="108.003" height="108.003" style="fill:rgb(92,192,238);"/>
                </g>
                <g transform="matrix(1,0,0,1,522.2065,756.0551)">
                    <path d="M0,-108.003L108.003,0L0,0L0,-108.003Z" style="fill:rgb(74,94,37);fill-rule:nonzero;"/>
                </g>
                <g transform="matrix(1,0,0,1,630.2096,648.052)">
                    <path d="M0,-108.003L-108.003,0L-108.003,-108.003L0,-108.003Z" style="fill:rgb(242,179,25);fill-rule:nonzero;"/>
                </g>
                <g transform="matrix(-0.707107,0.707107,0.707107,0.707107,544.648867,593.925718)">
                    <path d="M54.142,-130.335C49.386,-125.712 19.668,-95.836 21.66,-49.395C23.413,-8.545 48.49,16.93 54.142,22.404L130.512,-53.966L54.142,-130.335Z" style="fill:rgb(92,192,238);fill-rule:nonzero;"/>
                </g>
            </g>
        </g>
    </g>
</svg>
