<?xml version="1.0" encoding="UTF-8" standalone="no"?><!DOCTYPE svg PUBLIC "-//W3C//DTD SVG 1.1//EN" "http://www.w3.org/Graphics/SVG/1.1/DTD/svg11.dtd"><svg width="100%" height="100%" viewBox="0 0 1920 1080" version="1.1" xmlns="http://www.w3.org/2000/svg" xmlns:xlink="http://www.w3.org/1999/xlink" xml:space="preserve" xmlns:serif="http://www.serif.com/" style="fill-rule:evenodd;clip-rule:evenodd;stroke-linejoin:round;stroke-miterlimit:2;"><rect x="1498.517" y="0" width="179.833" height="179.654" style="fill:#bce2f1;"/><rect x="1318.954" y="0" width="179.833" height="179.654" style="fill:#e0505e;"/><rect x="1498.517" y="180.002" width="179.833" height="179.653" style="fill:#5cc0ee;"/><rect x="1318.953" y="180.002" width="179.833" height="179.653" style="fill:#e0505e;"/><path d="M1498.786,359.636l0,-179.635l-179.515,0l179.515,179.635Z" style="fill:#a21920;fill-rule:nonzero;"/><rect x="1498.517" y="360.004" width="179.833" height="179.653" style="fill:#5cc0ee;"/><path d="M1498.517,409.029l0,130.628l131.143,0c-31.563,-54.136 -76.87,-99.274 -131.143,-130.628" style="fill:#bdcfd6;fill-rule:nonzero;"/><path d="M1499.153,360.004l179.196,179.316l0,-179.316l-179.196,0Z" style="fill:#bce2f1;fill-rule:nonzero;"/><rect x="1318.953" y="360.004" width="179.833" height="179.653" style="fill:#a21920;"/><path d="M1498.786,409.186c-52.87,-30.605 -114.26,-48.126 -179.743,-48.126l-0.09,0l0,178.597l179.833,0l0,-130.471Z" style="fill:#6d7a7f;fill-rule:nonzero;"/><rect x="1498.517" y="540.006" width="179.833" height="179.653" style="fill:#bce2f1;"/><path d="M1629.863,540.005l-131.346,0l0,179.653l179.828,0c-0.126,-65.473 -17.766,-126.834 -48.482,-179.653" style="fill:#e1ebf0;fill-rule:nonzero;"/><rect x="1318.953" y="540.006" width="179.833" height="179.653" style="fill:#3f4e52;"/><path d="M1318.953,719.659l179.553,0c0.001,-0.289 0.01,-0.576 0.01,-0.866c0,-93.849 -72.038,-170.861 -163.833,-178.787l-15.73,0l0,179.653Z" style="fill:#6f9136;fill-rule:nonzero;"/><rect x="1498.517" y="720.345" width="179.833" height="179.653" style="fill:#3f4e52;"/><path d="M1498.517,899.998l131.772,0c30.564,-52.845 48.061,-114.194 48.061,-179.632l0,-0.021l-179.833,0l0,179.653Z" style="fill:#fff;fill-rule:nonzero;"/><rect x="1318.953" y="720.345" width="179.833" height="179.653" style="fill:#e1ebf0;"/><path d="M1318.953,720.345l0,177.921l0.09,0.001c98.602,0 178.619,-79.517 179.454,-177.922l-179.544,0Z" style="fill:#e0505e;fill-rule:nonzero;"/><rect x="1498.517" y="900.347" width="179.833" height="179.653" style="fill:#a21920;"/><path d="M1498.517,1031.704c54.517,-31.495 99.988,-76.897 131.568,-131.357l-131.568,0l0,131.357Z" style="fill:#e1ebf0;fill-rule:nonzero;"/><rect x="1318.953" y="900.347" width="179.833" height="179.653" style="fill:#3f4e52;"/><path d="M1318.953,1079.673l0.09,0.001c65.483,0 126.873,-17.522 179.743,-48.127l0,-131.2l-179.833,0l0,179.326Z" style="fill:#fff;fill-rule:nonzero;"/><rect x="1139.255" y="0" width="179.833" height="179.653" style="fill:#3f4e52;"/><rect x="959.692" y="0" width="179.833" height="179.653" style="fill:#5cc0ee;"/><rect x="1139.255" y="180.002" width="179.833" height="179.653" style="fill:#a21920;"/><rect x="959.692" y="180.002" width="179.833" height="179.653" style="fill:#bce2f1;"/><rect x="1139.255" y="360.004" width="179.833" height="179.653" style="fill:#e0505e;"/><path d="M1319.088,361.06l-0.045,0c-65.502,0 -126.908,17.531 -179.788,48.152l0,130.445l179.833,0l0,-178.597Z" style="fill:#3f4e52;fill-rule:nonzero;"/><rect x="959.692" y="360.004" width="179.833" height="179.653" style="fill:#5cc0ee;"/><path d="M1139.524,539.657l0,-130.602c-54.253,31.353 -99.544,76.481 -131.098,130.602l131.098,0Z" style="fill:#e1ebf0;fill-rule:nonzero;"/><rect x="1139.255" y="540.006" width="179.833" height="179.653" style="fill:#6d7a7f;"/><path d="M1139.569,718.793c0,0.289 0.01,0.577 0.011,0.866l179.508,0l0,-179.654l-15.686,0c-91.795,7.927 -163.833,84.938 -163.833,178.788" style="fill:#4a5e25;fill-rule:nonzero;"/><rect x="959.692" y="540.006" width="179.833" height="179.653" style="fill:#bce2f1;"/><path d="M959.741,719.659l179.784,0l0,-179.653l-131.302,0c-30.716,52.819 -48.356,114.18 -48.482,179.653" style="fill:#bdcfd6;fill-rule:nonzero;"/><rect x="1139.255" y="720.345" width="179.833" height="179.653" style="fill:#fff;"/><path d="M1319.043,898.267l0.045,-0.001l0,-177.921l-179.499,0c0.835,98.405 80.852,177.922 179.454,177.922" style="fill:#f2b319;fill-rule:nonzero;"/><rect x="959.692" y="720.345" width="179.833" height="179.653" style="fill:#a21920;"/><path d="M959.736,720.366c0,65.437 17.497,126.787 48.061,179.632l131.727,0l0,-179.654l-179.788,0l0,0.022Z" style="fill:#e1ebf0;fill-rule:nonzero;"/><rect x="1139.255" y="900.347" width="179.833" height="179.653" style="fill:#e0505e;"/><path d="M1139.255,1031.521c52.88,30.621 114.286,48.153 179.788,48.153l0.045,-0.001l0,-179.326l-179.833,0l0,131.174Z" style="fill:#e1ebf0;fill-rule:nonzero;"/><rect x="959.692" y="900.347" width="179.833" height="179.653" style="fill:#6d7a7f;"/><path d="M1139.524,1031.678l0,-131.331l-131.524,0c31.573,54.445 77.027,99.837 131.524,131.331" style="fill:#fff;fill-rule:nonzero;"/><rect x="780.476" y="0" width="179.833" height="179.653" style="fill:#e0505e;"/><rect x="600.912" y="0" width="179.833" height="179.653" style="fill:#6d7a7f;"/><path d="M780.745,122.403c-46.778,-53.298 -109.073,-92.638 -179.833,-110.956l0,168.206l179.833,0l0,-57.25Z" style="fill:#e1ebf0;fill-rule:nonzero;"/><rect x="780.476" y="180.002" width="179.833" height="179.653" style="fill:#3f4e52;"/><path d="M780.475,359.655l89.432,0c0,-0.116 0.002,-0.232 0.002,-0.348c0,-65.303 -17.423,-126.535 -47.871,-179.305l-41.563,0l0,179.653Z" style="fill:#5cc0ee;fill-rule:nonzero;"/><rect x="600.912" y="180.002" width="179.833" height="179.653" style="fill:#bce2f1;"/><path d="M600.912,203.598l0,156.058l89.153,0c0.001,-0.314 0.012,-0.625 0.012,-0.939c0,-66.192 -35.839,-124.006 -89.165,-155.119" style="fill:#3f4e52;fill-rule:nonzero;"/><path d="M600.912,259.436l0,100.219l44.805,0c0.002,-0.313 0.012,-0.624 0.012,-0.938c0,-39.538 -17.338,-75.021 -44.817,-99.281" style="fill:#ef7b1d;fill-rule:nonzero;"/><rect x="780.476" y="360.004" width="179.833" height="179.653" style="fill:#e0505e;"/><path d="M780.475,360.004l0,179.653l40.954,0c30.714,-52.819 48.351,-114.18 48.476,-179.653l-89.43,0Z" style="fill:#bce2f1;fill-rule:nonzero;"/><rect x="600.912" y="360.004" width="179.833" height="179.653" style="fill:#e1ebf0;"/><path d="M600.912,513.836c52.979,-30.911 88.687,-88.18 89.148,-153.833l-89.148,0l0,153.833Z" style="fill:#6d7a7f;fill-rule:nonzero;"/><path d="M600.912,457.998c27.18,-23.996 44.428,-58.975 44.8,-97.994l-44.8,0l0,97.994Z" style="fill:#efd39a;fill-rule:nonzero;"/><rect x="780.476" y="540.006" width="179.833" height="179.653" style="fill:#a21920;"/><path d="M821.226,540.005l-40.751,0l0,56.513c15.327,-17.424 28.993,-36.344 40.751,-56.513" style="fill:#5cc0ee;fill-rule:nonzero;"/><rect x="600.912" y="540.006" width="179.833" height="179.653" style="fill:#3f4e52;"/><path d="M715.7,654.35c23.974,-16.698 45.823,-36.237 65.045,-58.139l0,-56.205l-179.613,0l114.568,114.344Z" style="fill:#bce2f1;fill-rule:nonzero;"/><rect x="780.476" y="720.345" width="179.833" height="179.653" style="fill:#e0505e;"/><rect x="780.476" y="900.347" width="179.833" height="179.653" style="fill:#b6def8;"/><path d="M782.522,900.347l177.574,177.574l0,-177.574l-177.574,0Z" style="fill:#5cc0ee;fill-rule:nonzero;"/><path d="M780.475,898.3l1.698,1.698l177.922,0l0,-1.731l-178.271,-177.922l-1.349,0l0,177.955Z" style="fill:#e1ebf0;fill-rule:nonzero;"/><rect x="600.912" y="900.347" width="179.833" height="179.653" style="fill:#6d7a7f;"/><path d="M600.912,959.479c11.284,-8.503 22.012,-17.816 32.125,-27.929c9.837,-9.837 18.909,-20.258 27.223,-31.203l-59.348,0l0,59.132Z" style="fill:#6f9136;fill-rule:nonzero;"/><path d="M780.745,900.347l-177.285,0l177.098,177.098l0.187,0.001l0,-177.099Z" style="fill:#fff;fill-rule:nonzero;"/><rect x="421.214" y="0" width="179.833" height="179.653" style="fill:#a21920;"/><path d="M601.047,11.483c-28.897,-7.493 -59.204,-11.483 -90.444,-11.483c-30.86,0 -60.81,3.893 -89.389,11.21l0,168.443l179.833,0l0,-168.17Z" style="fill:#bce2f1;fill-rule:nonzero;"/><rect x="241.65" y="0" width="179.833" height="179.653" style="fill:#e0505e;"/><path d="M421.483,11.142c-70.65,18.03 -132.928,56.996 -179.833,109.904l0,58.607l179.833,-0l0,-168.511Z" style="fill:#5cc0ee;fill-rule:nonzero;"/><rect x="421.214" y="180.002" width="179.833" height="179.653" style="fill:#5cc0ee;"/><path d="M601.047,203.677c-22.09,-12.914 -47.186,-21.238 -73.985,-23.675l-32.917,0c-26.372,2.398 -51.1,10.488 -72.931,23.052l0,156.601l179.833,0l0,-155.978Z" style="fill:#6d7a7f;fill-rule:nonzero;"/><path d="M601.047,259.555c-23.358,-20.677 -54.068,-33.236 -87.716,-33.236c-35.805,0 -68.285,14.219 -92.117,37.311l0,96.025l179.833,0l0,-100.1Z" style="fill:#efd39a;fill-rule:nonzero;"/><rect x="241.65" y="180.002" width="179.833" height="179.653" style="fill:#fff;"/><path d="M421.483,202.901c-53.984,30.943 -90.354,89.131 -90.354,155.815c0,0.314 0.01,0.625 0.012,0.939l90.342,0l0,-156.754Z" style="fill:#3f4e52;fill-rule:nonzero;"/><path d="M421.483,263.368c-24.996,24.083 -40.55,57.898 -40.55,95.349c0,0.314 0.009,0.625 0.012,0.939l40.538,0l0,-96.288Z" style="fill:#f2b319;fill-rule:nonzero;"/><rect x="421.214" y="360.004" width="179.833" height="179.653" style="fill:#b6def8;"/><path d="M421.214,514.38c26.32,15.147 56.843,23.811 89.389,23.811c32.985,0 63.885,-8.908 90.444,-24.434l0,-153.753l-179.833,0l0,154.376Z" style="fill:#3f4e52;fill-rule:nonzero;"/><path d="M421.214,453.803c23.832,23.092 56.312,37.312 92.117,37.312c33.648,0 64.358,-12.56 87.716,-33.237l0,-97.874l-179.833,0l0,93.799Z" style="fill:#f2b319;fill-rule:nonzero;"/><rect x="241.65" y="360.004" width="179.833" height="179.653" style="fill:#5cc0ee;"/><path d="M242.074,360.109l0,178.851l0.697,0.697l178.713,0l0,-0.138l-179.41,-179.41Z" style="fill:#bce2f1;fill-rule:nonzero;"/><path d="M421.483,514.532l0,-154.529l-90.338,0c0.466,66.145 36.702,123.785 90.338,154.529" style="fill:#6d7a7f;fill-rule:nonzero;"/><path d="M421.483,454.066l0,-94.063l-40.534,0c0.352,36.938 15.825,70.256 40.534,94.063" style="fill:#ef7b1d;fill-rule:nonzero;"/><rect x="421.214" y="540.006" width="179.833" height="179.653" style="fill:#5cc0ee;"/><path d="M421.214,707.404c28.579,7.317 58.529,11.21 89.389,11.21c31.24,0 61.548,-3.99 90.444,-11.483l0,-167.125l-179.833,0l0,167.398Z" style="fill:#fff;fill-rule:nonzero;"/><rect x="241.65" y="540.006" width="179.833" height="179.653" style="fill:#b6def8;"/><path d="M241.65,597.567c46.905,52.908 109.183,91.874 179.833,109.904l0,-167.465l-179.833,0l0,57.561Z" style="fill:#e1ebf0;fill-rule:nonzero;"/><rect x="421.214" y="720.345" width="179.833" height="179.653" style="fill:#3f718d;"/><rect x="421.214" y="720.345" width="179.833" height="179.653" style="fill:#e0505e;"/><rect x="241.65" y="720.345" width="179.833" height="179.653" style="fill:#e1ebf0;"/><rect x="421.214" y="900.347" width="179.833" height="179.653" style="fill:#3f4e52;"/><path d="M421.214,1020.183c40.067,-0.281 78.96,-8.277 115.634,-23.789c22.976,-9.718 44.448,-22.117 64.199,-37.018l0,-59.029l-179.833,0l0,119.836Z" style="fill:#9abf68;fill-rule:nonzero;"/><path d="M421.214,977.065c70.044,-0.579 133.471,-28.901 179.833,-74.519l0,-2.2l-179.833,0l0,76.719Z" style="fill:#a21920;fill-rule:nonzero;"/><rect x="241.65" y="900.347" width="179.833" height="179.653" style="fill:#fff;"/><path d="M1319.088,-0l-179.563,0l179.563,179.564l0,-179.564Z" style="fill:#a21920;fill-rule:nonzero;"/><path d="M780.475,122.096l0,57.558l41.36,0c-11.894,-20.562 -25.768,-39.833 -41.36,-57.558" style="fill:#fff;fill-rule:nonzero;"/><path d="M600.912,707.166l0,11.57l0.922,0.923l178.911,0l0,-0.392l-65.039,-64.911c-34.367,23.935 -73.112,42.02 -114.794,52.81" style="fill:#fff;fill-rule:nonzero;"/><path d="M715.706,654.345l-0.007,0.005l-114.568,-114.344l-0.219,0l0,167.161c41.682,-10.791 80.427,-28.876 114.794,-52.811l0,-0.011Z" style="fill:#5cc0ee;fill-rule:nonzero;"/><path d="M601.047,897.933l0,-177.588l-177.588,0l177.588,177.588Z" style="fill:#b6def8;fill-rule:nonzero;"/><rect x="600.731" y="720.255" width="179.653" height="179.833" style="fill:#b6def8;"/><path d="M778.319,720.255l-177.588,0l0,177.588l177.588,-177.588Z" style="fill:#5cc0ee;fill-rule:nonzero;"/><path d="M660.26,900.347l-56.8,0l30.383,30.383c9.524,-9.596 18.332,-19.74 26.417,-30.383" style="fill:#e1ebf0;fill-rule:nonzero;"/><path d="M600.912,719.659l0.922,0l-0.922,-0.922l0,0.922Z" style="fill:#5cc0ee;fill-rule:nonzero;"/><path d="M1386.195,180.002l0,87.597c-37.143,9.56 -64.987,42.272 -67.241,81.834l0,10.222l44.776,0l0,-49.585l22.465,0l0,49.585l44.929,0l0,-49.585l22.464,0l0,49.585l44.779,0c0.092,-1.665 0.15,-3.34 0.15,-5.029c0,-41.87 -28.637,-77.052 -67.393,-87.027l0,-87.597l-44.929,0Z" style="fill:#6d7a7f;fill-rule:nonzero;"/><path d="M1138.18,359.655l1.345,-1.345l0,-90.65l-91.995,91.995l90.65,0Z" style="fill:#e1ebf0;fill-rule:nonzero;"/><path d="M959.691,538.143l178.14,-178.14l-90.65,0l-53.705,53.705l-0.152,0.006c-10.146,9.708 -21.433,18.232 -33.633,25.364l0,99.065Z" style="fill:#bdcfd6;fill-rule:nonzero;"/><path d="M958.178,539.657l2.131,-2.131l0,-98.812c-24.312,14.344 -52.292,23.132 -82.202,24.594c-21.708,20.773 -38.202,46.943 -47.353,76.349l127.424,0Z" style="fill:#6d7a7f;fill-rule:nonzero;"/><path d="M830.647,540.005c-5.181,16.772 -7.984,34.588 -7.984,53.061c0,24.277 4.828,47.423 13.559,68.546l121.607,-121.607l-127.182,0Z" style="fill:#3f4e52;fill-rule:nonzero;"/><path d="M1139.255,358.58l88.654,-88.654l-45.325,-45.325l-43.329,43.329l0,90.65Z" style="fill:#6d7a7f;fill-rule:nonzero;"/><rect x="1386.194" y="360.004" width="44.929" height="84.48" style="fill:#231f20;fill-rule:nonzero;"/><path d="M1453.588,360.004l0,72.456c25.399,-14.694 42.93,-41.463 44.76,-72.456l-44.76,0Z" style="fill:#231f20;fill-rule:nonzero;"/><path d="M1363.73,360.004l-44.76,0c1.83,30.993 19.361,57.762 44.76,72.456l0,-72.456Z" style="fill:#231f20;fill-rule:nonzero;"/><path d="M1453.588,387.112l0,45.347c12.912,-7.47 23.784,-18.066 31.603,-30.745c-10.254,-5.357 -20.798,-10.235 -31.603,-14.602" style="fill:#3f4e52;fill-rule:nonzero;"/><path d="M1431.123,444.484l0,-65.589c-14.587,-4.786 -29.586,-8.659 -44.929,-11.561l0,77.15l44.929,0Z" style="fill:#3f4e52;fill-rule:nonzero;"/><path d="M1363.73,363.824c-14.642,-1.817 -29.553,-2.764 -44.687,-2.764l-0.011,0c2.162,30.545 19.588,56.873 44.698,71.399l0,-68.635Z" style="fill:#3f4e52;fill-rule:nonzero;"/><path d="M1386.195,180.002l0,66.968l63.058,63.1l4.335,0l0,4.338l44.8,44.829c0.077,-1.528 0.129,-3.063 0.129,-4.611c0,-41.87 -28.637,-77.052 -67.393,-87.027l0,-87.597l-44.929,0Z" style="fill:#231f20;fill-rule:nonzero;"/><rect x="1386.195" y="1.843" width="44.929" height="177.81" style="fill:#3f4e52;"/><path d="M796.757,688.121c4.578,-10.781 7.112,-22.641 7.112,-35.092c0,-23.29 -8.861,-44.509 -23.394,-60.473l0,127.102l47.819,0l-31.537,-31.537Z" style="fill:#6d7a7f;fill-rule:nonzero;"/><path d="M715.7,654.35c23.974,-16.698 45.823,-36.237 65.045,-58.139l0,-3.353c-16.445,-18.227 -40.25,-29.686 -66.733,-29.686c-24.752,0 -47.166,10.009 -63.418,26.2l65.106,64.978Z" style="fill:#bdcfd6;fill-rule:nonzero;"/><path d="M828.981,720.345l-48.505,0l0,44.358l135.295,135.295l44.538,0l0,-48.325l-131.328,-131.328Z" style="fill:#3f4e52;fill-rule:nonzero;"/><path d="M960.096,944.323l0,-43.976l-43.976,0l43.976,43.976Z" style="fill:#3f4e52;fill-rule:nonzero;"/><path d="M780.475,720.345l0,44.358l135.296,135.295l44.324,0l0,-1.731l-178.271,-177.922l-1.349,0Z" style="fill:#6d7a7f;fill-rule:nonzero;"/><path d="M780.745,719.267l-65.039,-64.912c-24.718,17.216 -51.702,31.404 -80.414,42.029c4.831,8.753 11.076,16.615 18.431,23.274l127.022,0l0,-0.391Z" style="fill:#bdcfd6;fill-rule:nonzero;"/><path d="M650.594,589.371c-16.332,16.27 -26.44,38.783 -26.44,63.658c0,15.722 4.042,30.499 11.138,43.355c28.712,-10.625 55.696,-24.813 80.414,-42.029l0,-0.011l-0.006,0.005l-65.106,-64.978Z" style="fill:#6d7a7f;fill-rule:nonzero;"/><path d="M780.384,720.255l-125.989,0c15.863,14.078 36.739,22.632 59.617,22.632c13.109,0 25.562,-2.809 36.792,-7.856l29.58,29.581l0,-44.357Z" style="fill:#3f4e52;fill-rule:nonzero;"/><path d="M654.395,720.255c15.863,14.078 36.739,22.632 59.617,22.632c13.109,0 25.562,-2.809 36.792,-7.856l6.37,6.37l21.145,-21.146l-123.924,0Z" style="fill:#6d7a7f;fill-rule:nonzero;"/><rect x="1678.518" y="899.987" width="179.833" height="179.653" style="fill:#3f4e52;"/><rect x="1678.518" y="719.986" width="179.833" height="179.653" style="fill:#231f20;"/><rect x="1678.518" y="539.984" width="179.833" height="179.653" style="fill:#6d7a7f;"/><path d="M1858.351,670.612l0,-130.628l-131.143,0c31.563,54.136 76.87,99.274 131.143,130.628" style="fill:#3f4e52;fill-rule:nonzero;"/><path d="M1857.715,719.637l-179.196,-179.316l0,179.316l179.196,0Z" style="fill:#a21920;fill-rule:nonzero;"/><path d="M1857.774,719.451l-179.316,179.196l179.316,0l0,-179.196Z" style="fill:#e0505e;fill-rule:nonzero;"/><rect x="1678.518" y="359.982" width="179.833" height="179.653" style="fill:#3f4e52;"/><path d="M1727.005,539.635l131.346,0l0,-179.653l-179.828,0c0.126,65.473 17.766,126.834 48.482,179.653" style="fill:#e0505e;fill-rule:nonzero;"/><rect x="1678.518" y="179.643" width="179.833" height="179.653" style="fill:#3f4e52;"/><path d="M1858.351,179.643l-131.772,0c-30.564,52.845 -48.061,114.194 -48.061,179.632l0,0.021l179.833,0l0,-179.653Z" style="fill:#a21920;fill-rule:nonzero;"/><rect x="1678.518" y="-0.359" width="179.833" height="179.653" style="fill:#a21920;"/><path d="M1858.351,47.937c-54.517,31.495 -99.988,76.897 -131.568,131.357l131.568,0l0,-131.357Z" style="fill:#6d7a7f;fill-rule:nonzero;"/><rect x="61.905" y="0.322" width="179.833" height="179.653" style="fill:#a21920;"/><rect x="61.905" y="180.323" width="179.833" height="179.653" style="fill:#3f4e52;"/><path d="M241.738,359.976l-89.432,0c0,-0.116 -0.002,-0.232 -0.002,-0.348c0,-65.303 17.423,-126.535 47.871,-179.305l41.563,0l0,179.653Z" style="fill:#5cc0ee;fill-rule:nonzero;"/><rect x="61.905" y="360.325" width="179.833" height="179.653" style="fill:#e0505e;"/><path d="M241.738,360.325l0,179.653l-40.954,0c-30.714,-52.819 -48.351,-114.18 -48.476,-179.653l89.43,0Z" style="fill:#bce2f1;fill-rule:nonzero;"/><rect x="61.905" y="540.327" width="179.833" height="179.653" style="fill:#a21920;"/><path d="M200.987,540.327l40.751,0l0,56.512c-15.327,-17.423 -28.993,-36.343 -40.751,-56.512" style="fill:#5cc0ee;fill-rule:nonzero;"/><rect x="61.905" y="720.666" width="179.833" height="179.653" style="fill:#e0505e;"/><rect x="61.905" y="900.668" width="179.833" height="179.653" style="fill:#3f4e52;"/><path d="M239.691,1078.242l-177.574,-177.574l177.574,0l0,177.574Z" style="fill:#231f20;fill-rule:nonzero;"/><path d="M241.738,898.621l-1.698,1.698l-177.922,0l0,-1.731l178.271,-177.922l1.349,0l0,177.955Z" style="fill:#a21920;fill-rule:nonzero;"/><path d="M241.738,122.417l0,57.558l-41.36,0c11.894,-20.562 25.768,-39.833 41.36,-57.558" style="fill:#fff;fill-rule:nonzero;"/><rect x="-116.98" y="0.327" width="179.833" height="179.653" style="fill:#3f4e52;"/><rect x="-116.98" y="180.329" width="179.833" height="179.653" style="fill:#231f20;"/><rect x="-116.98" y="360.331" width="179.833" height="179.653" style="fill:#6d7a7f;"/><path d="M-116.343,360.33l179.196,179.316l0,-179.316l-179.196,0Z" style="fill:#a21920;fill-rule:nonzero;"/><path d="M-116.403,360.516l179.316,-179.196l-179.316,0l0,179.196Z" style="fill:#e0505e;fill-rule:nonzero;"/><rect x="-116.98" y="540.333" width="179.833" height="179.653" style="fill:#3f4e52;"/><path d="M14.367,540.332l-131.346,0l0,179.653l179.828,0c-0.126,-65.473 -17.766,-126.834 -48.482,-179.653" style="fill:#e0505e;fill-rule:nonzero;"/><rect x="-116.98" y="720.672" width="179.833" height="179.653" style="fill:#3f4e52;"/><path d="M-116.98,900.325l131.772,0c30.564,-52.845 48.061,-114.194 48.061,-179.632l0,-0.021l-179.833,0l0,179.653Z" style="fill:#a21920;fill-rule:nonzero;"/><rect x="-116.98" y="900.674" width="179.833" height="179.653" style="fill:#a21920;"/><rect x="1857.779" y="0.322" width="179.833" height="179.653" style="fill:#3f4e52;"/><rect x="1857.779" y="180.323" width="179.833" height="179.653" style="fill:#231f20;"/><rect x="1857.779" y="360.325" width="179.833" height="179.653" style="fill:#6d7a7f;"/><path d="M1857.779,409.35l0,130.628l131.143,0c-31.563,-54.136 -76.87,-99.274 -131.143,-130.628" style="fill:#3f4e52;fill-rule:nonzero;"/><path d="M1858.415,360.325l179.196,179.316l0,-179.316l-179.196,0Z" style="fill:#a21920;fill-rule:nonzero;"/><path d="M1858.355,360.511l179.316,-179.196l-179.316,0l0,179.196Z" style="fill:#e0505e;fill-rule:nonzero;"/><rect x="1857.779" y="540.327" width="179.833" height="179.653" style="fill:#3f4e52;"/><path d="M1989.125,540.327l-131.346,0l0,179.653l179.828,0c-0.126,-65.473 -17.766,-126.834 -48.482,-179.653" style="fill:#e0505e;fill-rule:nonzero;"/><rect x="1857.779" y="720.666" width="179.833" height="179.653" style="fill:#3f4e52;"/><path d="M1857.779,900.319l131.772,0c30.564,-52.845 48.061,-114.194 48.061,-179.632l0,-0.021l-179.833,0l0,179.653Z" style="fill:#a21920;fill-rule:nonzero;"/><rect x="1857.779" y="900.668" width="179.833" height="179.653" style="fill:#a21920;"/><path d="M1857.779,1032.025c54.517,-31.495 99.988,-76.897 131.568,-131.357l-131.568,0l0,131.357Z" style="fill:#6d7a7f;fill-rule:nonzero;"/></svg>